<?xml version="1.0" encoding="UTF-8" standalone="no"?>
<svg
   xmlns:dc="http://purl.org/dc/elements/1.1/"
   xmlns:cc="http://creativecommons.org/ns#"
   xmlns:rdf="http://www.w3.org/1999/02/22-rdf-syntax-ns#"
   xmlns:svg="http://www.w3.org/2000/svg"
   xmlns="http://www.w3.org/2000/svg"
   xmlns:sodipodi="http://sodipodi.sourceforge.net/DTD/sodipodi-0.dtd"
   xmlns:inkscape="http://www.inkscape.org/namespaces/inkscape"
   version="1.1"
   x="0px"
   y="0px"
   viewBox="0 0 1020.0873 635.41357"
   enable-background="new 0 0 1000 1000"
   xml:space="preserve"
   id="svg40"
   sodipodi:docname="dualshock4.svg"
   inkscape:version="1.0.2 (1.0.2+r75+1)"
   width="1020.0873"
   height="635.41357"
   inkscape:export-filename="dualshock4.png"
   inkscape:export-xdpi="150.02512"
   inkscape:export-ydpi="150.02512"><defs
   id="defs44" /><sodipodi:namedview
   pagecolor="#ffffff"
   bordercolor="#666666"
   borderopacity="1"
   objecttolerance="10"
   gridtolerance="10"
   guidetolerance="10"
   inkscape:pageopacity="0"
   inkscape:pageshadow="2"
   inkscape:window-width="2560"
   inkscape:window-height="1385"
   id="namedview42"
   showgrid="false"
   inkscape:zoom="1.4142136"
   inkscape:cx="364.26858"
   inkscape:cy="222.60498"
   inkscape:window-x="0"
   inkscape:window-y="27"
   inkscape:window-maximized="1"
   inkscape:current-layer="svg40"
   fit-margin-top="20"
   fit-margin-left="20"
   fit-margin-right="20"
   fit-margin-bottom="20" />
<metadata
   id="metadata2"> Svg Vector Icons : http://www.onlinewebfonts.com/icon <rdf:RDF><cc:Work
     rdf:about=""><dc:format>image/svg+xml</dc:format><dc:type
       rdf:resource="http://purl.org/dc/dcmitype/StillImage" /><dc:title></dc:title></cc:Work></rdf:RDF></metadata>
<path
   d="m 892.34235,615.31359 c -36.7,0 -69.6,-16.2 -80.2,-31.8 -15.8,-23.4 -29.4,-60.1 -39.4,-89.6 l -0.5,-1.5 c -8.3,-24.4 -16.7,-48.9 -24.8,-73.4 -1.9,-5.8 -6.8,-8.3 -12.6,-10.8 -38.5,28.2 -88.5,26.9 -125.4,-1.9 -1.1,-0.9 -2.9,-1.5 -4.2,-1.5 -10.5,0 -37.5,0 -64.1,0.1 -0.3,0.1 -0.5,0.2 -1,0.1 l -30.2,-0.1 -30.2,0.1 c -0.3,0.1 -0.7,0 -1,-0.1 -26.6,-0.1 -53.5,-0.1 -64,-0.1 -1.3,0 -3.1,0.6 -4.2,1.5 -19,14.8 -41.1,22.6 -64,22.6 -21.7,0 -42.9,-7.1 -61.3,-20.5 0,0 -0.1,-0.1 -0.2,-0.1 -5.7,2.5 -10.5,5 -12.5,10.8 -8.2,24.5 -16.5,48.9 -24.8,73.4 l -0.5,1.5 c -10,29.4 -23.6,66.2 -39.4,89.6 -10.6,15.6 -43.5,31.8 -80.2,31.8 -25.2,0 -48.699996,-7.8 -67.699996,-22.5 -32.8,-27 -39.5,-50.6 -39.9,-82.3 -0.3,-23 1,-47.4 3.7,-72.7 5.6,-51 15.2,-101.4 24,-143.9 10.7,-52.1 21.9,-97.7 34.5,-139.4 5.2,-17.4 13,-40 26.299996,-60.200003 l 8.3,-12.6 c 6.6,-10.1 13.2,-20.1 20,-30 2.4,-3.5 6.4,-5.7 9.3,-7.3 0.7,-0.4 1.5,-0.8 1.7,-1.1 0.2,-3.5 2.5,-6.4 4.4,-7.9 2.1,-1.6 4.7,-3.1 7.8,-4.4 35,-14.3 70.7,-14.8 105.8,-1.5 5,1.9 7.6,5.8 7.1,10.6 -0.1,1.5 0.1,2.2 0.2,2.4 0.1,0.2 0.7,0.5 2,0.6 1.2,0.1 2.2,0.6 2.7,0.9 6.7,3.4 14.5,5.1 23.8,5.2 h 74 c 1.4,-12.4 11.7,-21.8 24.2,-21.8 h 222.4 c 12.6,0 22.9,9.6 24.3,21.8 h 71.9 c 9.3,0 17.1,-1.7 23.8,-5.2 0.5,-0.3 1.4,-0.8 2.7,-0.9 1.3,-0.1 1.8,-0.4 2,-0.6 0.2,-0.2 0.4,-0.9 0.2,-2.4 -0.5,-4.9 2.1,-8.8 7.1,-10.6 35.2,-13.3 70.9,-12.8 105.9,1.5 3,1.2 5.6,2.7 7.8,4.4 1.9,1.5 4.2,4.3 4.4,7.5 0.2,0.6 1,1 1.6,1.4 2.9,1.6 6.9,3.8 9.3,7.3 6.8,9.9 13.4,19.9 20,30 l 8.3,12.6 c 13.3,20.200003 21.1,42.800003 26.3,60.200003 12.5,41.6 23.8,87.2 34.5,139.4 8.7,42.6 18.4,92.9 24,143.9 2.8,25.3 4.00005,49.8 3.70005,72.7 -0.40005,31.7 -7.00005,55.3 -39.80005,82.2 -19.3,14.8 -42.7,22.6 -67.9,22.6 z m -157.3,-216 c 0.6,0 1.7,0.2 2.2,0.4 7.1,3.1 15.2,6.7 18.5,16.6 8.1,24.5 16.5,48.9 24.8,73.3 l 0.5,1.5 c 9.8,28.9 23.1,65 38.4,87.5 9.1,13.4 39.6,27.9 72.9,27.9 23.3,0 44.8,-7.1 62.3,-20.7 30.1,-24.8 36.1,-45.7 36.5,-75.5 0.3,-22.6 -0.9,-46.7 -3.7,-71.7 -5.5,-50.7 -15.2,-100.8 -23.8,-143.1 -10.6,-51.9 -21.8,-97.2 -34.3,-138.6 -5.4,-17.9 -12.6,-38.8 -25.2,-57.900003 l -8.3,-12.6 c -6.6,-10 -13.1,-20 -19.9,-29.8 -1.3,-1.8 -4.2,-3.4 -6.3,-4.6 -2.4,-1.3 -5.9,-3.3 -6.2,-8.6 -0.1,-0.1 -0.5,-0.7 -1,-1.1 -1.5,-1.2 -3.4,-2.3 -5.7,-3.2 -33,-13.5 -66.3,-14 -99.4,-1.4 -1.6,0.6 -1.5,1 -1.5,1.6 0.3,3.7 -0.4,6.7 -2.2,8.9 -1.8,2.1 -4.4,3.4 -7.9,3.7 -7.4,4 -16.5,6 -27.3,6.1 h -71.5 V 161.81359 c 0,1.5 -0.1,2.9 -0.3,4.3 v 1.6 c 0,12.4 -8.9,22.7 -20.9,24.4 -3.6,1.3 -7.3,2 -11.2,2 h -208.9 c -4.8,0 -9.4,-1 -13.7,-3.1 -6.7,-2 -12.6,-7.7 -15.1,-14.8 -2.2,-4 -3.4,-9.2 -3.4,-14.4 l 0.2,-103.800003 h -72.1 c -10.8,0 -19.9,-2.1 -27.8,-6.1 -2.9,-0.2 -5.6,-1.5 -7.4,-3.6 -1.8,-2.2 -2.6,-5.2 -2.2,-8.9 0.1,-0.6 0.1,-1 -1.5,-1.6 -33.1,-12.6 -66.5,-12.1 -99.4,1.4 -2.3,0.9 -4.2,2 -5.7,3.2 -0.5,0.4 -0.9,1 -1,1.3 -0.3,5.1 -3.8,7 -6.1,8.3 -2.2,1.2 -5.2,2.9 -6.4,4.6 -6.8,9.9 -13.3,19.8 -19.9,29.8 l -8.3,12.6 c -12.6,19.100003 -19.799996,40.000003 -25.199996,57.900003 -12.5,41.5 -23.8,86.8 -34.4,138.7 -8.7,42.4 -18.3,92.5 -23.8,143.1 -2.7,25 -4,49.1 -3.7,71.7 0.4,29.8 6.3,50.7 36.6,75.6 17.4,13.4 38.999996,20.6 62.199996,20.6 33.4,0 63.8,-14.5 72.9,-27.9 15.3,-22.5 28.5,-58.6 38.4,-87.5 l 0.5,-1.5 c 8.3,-24.4 16.6,-48.8 24.8,-73.3 3.3,-9.9 11.4,-13.4 18.5,-16.6 0.6,-0.2 1.6,-0.5 2.2,-0.5 2.5,0 4.8,1.6 5.5,2.1 16.9,12.3 36.3,18.8 56.1,18.8 20.9,0 41.2,-7.2 58.6,-20.8 2.6,-2.1 6.3,-3.3 9.6,-3.3 10.7,0 38.1,0 65.1,0.1 0.3,0 0.7,0 1,0.1 l 29.2,-0.1 29.2,0.1 c 0.3,-0.1 0.6,-0.1 1,-0.1 27,-0.1 54.4,-0.1 65.1,-0.1 3.3,0 7,1.3 9.6,3.4 17.4,13.6 37.7,20.7 58.6,20.7 19.8,0 39.2,-6.5 56.2,-18.8 0.5,-0.5 2.9,-2.1 5.4,-2.1 z m -335.3,-363.100003 c -8.6,0 -15.6,7 -15.6,15.6 V 167.41359 c 0,2.4 0.3,4.2 0.9,5.9 2.1,4 6,7.7 10.6,9.9 0.9,0.2 2.5,0.5 4.1,0.5 h 222.4 c 0.5,0 0.9,0 1.4,-0.1 7.7,-3.2 13.2,-10.3 14.3,-18.6 V 52.413587 c 0,-9.2 -7,-16.2 -15.6,-16.2 h -222.5 z m 271.5,375.600003 c -33.9,0 -61.5,-27.6 -61.5,-61.4 0,-33.9 27.6,-61.5 61.5,-61.5 33.9,0 61.4,27.6 61.4,61.5 0,33.8 -27.5,61.4 -61.4,61.4 z m 0,-114.2 c -29.1,0 -52.7,23.6 -52.7,52.7 0,29.1 23.6,52.7 52.7,52.7 29,0 52.7,-23.6 52.7,-52.7 0,-29 -23.7,-52.7 -52.7,-52.7 z m -322.6,114.2 c -33.9,0 -61.5,-27.6 -61.5,-61.4 0,-33.9 27.6,-61.5 61.5,-61.5 33.9,0 61.5,27.6 61.5,61.5 -0.1,33.8 -27.6,61.4 -61.5,61.4 z m 0,-114.2 c -29,0 -52.7,23.6 -52.7,52.7 0,29.1 23.6,52.7 52.7,52.7 29.1,0 52.7,-23.6 52.7,-52.7 0,-29 -23.7,-52.7 -52.7,-52.7 z m 463.7,4.6 c -63,0 -114.2,-51.2 -114.2,-114.2 0,-63 51.2,-114.200003 114.2,-114.200003 63,0 114.2,51.200003 114.2,114.200003 0,63 -51.3,114.2 -114.2,114.2 z m -11.8,-219.000003 c -52.6,5.9 -93.7,50.600003 -93.7,104.800003 0,58.1 47.3,105.4 105.4,105.4 52.8,0 96.7,-39 104.3,-89.7 -6.2,11.2 -18.1,18.7 -31.8,18.7 -20,0 -36.4,-16.3 -36.4,-36.4 0,-20.1 16.3,-36.3 36.4,-36.3 13,0 24.4,6.8 30.8,17.1 -8.9,-43.4 -44.4,-77.100003 -88.7,-83.300003 13.3,5.4 22.7,18.500003 22.7,33.700003 0,20 -16.3,36.3 -36.4,36.3 -20,0 -36.4,-16.3 -36.4,-36.3 0.2,-15.5 10,-28.800003 23.8,-34.000003 z m 84.3,75.300003 c -15.2,0 -27.6,12.4 -27.6,27.6 0,15.2 12.4,27.6 27.6,27.6 15.2,0 27.6,-12.4 27.6,-27.6 0,-15.2 -12.4,-27.6 -27.6,-27.6 z m -71.5,-68.800003 c -15.2,0 -27.6,12.400003 -27.6,27.600003 0,15.2 12.4,27.6 27.6,27.6 15.2,0 27.6,-12.4 27.6,-27.6 -0.1,-15.3 -12.4,-27.600003 -27.6,-27.600003 z m -605.8,212.500003 c -63,0 -114.199996,-51.2 -114.199996,-114.2 0,-63 51.199996,-114.200003 114.199996,-114.200003 63,0 114.2,51.200003 114.2,114.200003 0,63 -51.2,114.2 -114.2,114.2 z m 0,-219.700003 c -58.1,0 -105.4,47.300003 -105.4,105.400003 0,58.1 47.3,105.4 105.4,105.4 58.1,0 105.4,-47.3 105.4,-105.4 0,-58 -47.3,-105.400003 -105.4,-105.400003 z m 605.8,208.900003 c -20,0 -36.4,-16.3 -36.4,-36.4 0,-20.1 16.3,-36.3 36.4,-36.3 20.1,0 36.4,16.3 36.4,36.3 -0.1,20.1 -16.4,36.4 -36.4,36.4 z m 0,-63.9 c -15.2,0 -27.6,12.4 -27.6,27.6 0,15.2 12.4,27.6 27.6,27.6 15.2,0 27.6,-12.4 27.6,-27.6 -0.1,-15.2 -12.4,-27.6 -27.6,-27.6 z m -590.1,61.1 h -29.9 c -9.8,0 -17.8,-8 -17.8,-17.8 v -39.4 c 0,-5.9 3,-12.3 7.5,-16.3 l 18.5,-20.3 c 3.5,-3.8 10,-3.8 13.5,0 l 19.9,21.8 c 0.8,0.5 1.3,1.2 1.7,2.1 2.7,3.8 4.3,8.4 4.3,12.8 v 39.4 c 0,9.8 -7.9,17.7 -17.7,17.7 z m -14.6,-87.8 -19.4,20.6 c -3,2.7 -4.9,6.7 -4.9,10.1 v 39.4 c 0,5 4,9 9,9 h 29.9 c 5,0 9,-4 9,-9 v -39.4 c 0,-2.8 -1.2,-6 -3.2,-8.4 -0.1,-0.1 -0.2,-0.2 -0.2,-0.3 z m 617.8,74 c -1.1,0 -2.2,-0.4 -3.1,-1.3 l -9.2,-9.2 -9.3,9.2 c -1.7,1.7 -4.5,1.7 -6.2,0 l -3,-3 c -0.8,-0.8 -1.3,-1.9 -1.3,-3.1 0,-1.2 0.5,-2.3 1.3,-3.1 l 9.2,-9.2 -9.2,-9.2 c -1.7,-1.7 -1.7,-4.5 0,-6.2 l 3,-3 c 1.6,-1.6 4.6,-1.6 6.2,0 l 9.2,9.3 9.2,-9.3 c 1.7,-1.6 4.6,-1.6 6.2,0 l 3,3 c 0.8,0.8 1.3,1.9 1.3,3.1 0,1.2 -0.5,2.3 -1.3,3.1 l -9.2,9.2 9.2,9.2 c 0.8,0.8 1.3,1.9 1.3,3.1 0,1.2 -0.5,2.3 -1.3,3.1 l -3,3 c -0.7,0.9 -1.8,1.3 -3,1.3 z m -82.5,-52.3 c -20,0 -36.4,-16.3 -36.4,-36.4 0,-20.1 16.3,-36.3 36.4,-36.3 20.1,0 36.4,16.3 36.4,36.3 0,20.1 -16.4,36.4 -36.4,36.4 z m 0,-64 c -15.2,0 -27.6,12.4 -27.6,27.6 0,15.2 12.4,27.6 27.6,27.6 15.2,0 27.6,-12.4 27.6,-27.6 0,-15.2 -12.4,-27.6 -27.6,-27.6 z m -453.9,60.4 h -39.4 c -5.9,0 -12.3,-3 -16.3,-7.5 l -20.3,-18.5 c -1.9,-1.8 -3,-4.2 -3,-6.8 0,-0.6 0.1,-1.2 0.2,-1.8 -2.5,0.8 -5.4,0.5 -7.7,-1 0.3,0.9 0.4,1.8 0.4,2.7 0,2.5 -1.1,5 -3,6.8 l -20.6,18.9 c -3.7,4.2 -10.1,7.2 -16,7.2 h -39.4 c -9.8,0 -17.7,-8 -17.7,-17.7 v -29.9 c 0,-9.8 8,-17.8 17.7,-17.8 h 39.4 c 4.6,0 9.6,1.8 13.5,4.8 0.2,0.1 0.5,0.3 0.7,0.5 l 13.2,12.1 -8.9,-9.7 c -4.2,-3.7 -7.2,-10.1 -7.2,-16 v -39.4 c 0,-9.800003 8,-17.700003 17.8,-17.700003 h 29.9 c 9.8,0 17.8,8 17.8,17.700003 v 39.4 c 0,4.6 -1.8,9.6 -4.8,13.4 -0.1,0.2 -0.3,0.5 -0.5,0.7 l -1.5,1.6 2.3,-2.1 c 0.2,-0.2 0.4,-0.4 0.7,-0.5 3.9,-3 8.9,-4.8 13.5,-4.8 h 39.4 c 9.8,0 17.7,8 17.7,17.8 v 29.9 c -0.2,9.7 -8.1,17.7 -17.9,17.7 z m -48.1,-53.2 -22,20.1 20.6,19.4 c 2.7,3 6.7,4.9 10.1,4.9 h 39.4 c 4.9,0 9,-4 9,-9 v -29.9 c 0,-5 -4,-9 -9,-9 h -39.4 c -2.8,0 -6,1.2 -8.4,3.2 -0.1,0.2 -0.2,0.2 -0.3,0.3 z m -117.1,-3.5 c -4.9,0 -9,4 -9,9 v 29.9 c 0,4.9 4,9 9,9 h 39.4 c 3.4,0 7.4,-1.9 9.7,-4.5 l 21,-19.2 -22,-20.7 c -0.1,-0.1 -0.2,-0.1 -0.2,-0.2 -2.4,-2 -5.6,-3.2 -8.4,-3.2 h -39.5 z m 68.5,-65.500003 c -4.9,0 -9,4.000003 -9,9.000003 v 39.4 c 0,3.4 1.9,7.4 4.5,9.7 l 19.5,21.1 c 0.1,0 0.2,-0.1 0.3,-0.2 l 20.1,-22 c 0.1,-0.1 0.2,-0.2 0.2,-0.3 2,-2.4 3.2,-5.6 3.2,-8.4 v -39.4 c 0,-4.9 -4,-9.000003 -9,-9.000003 z m 691.5,110.400003 c -11.8,0 -21.4,-9.6 -21.4,-21.4 0,-11.8 9.6,-21.4 21.4,-21.4 11.8,0 21.4,9.6 21.4,21.4 -0.1,11.8 -9.7,21.4 -21.4,21.4 z m 0,-34 c -6.9,0 -12.6,5.6 -12.6,12.6 0,6.9 5.7,12.6 12.6,12.6 6.9,0 12.6,-5.6 12.6,-12.6 0,-6.9 -5.7,-12.6 -12.6,-12.6 z m -127.5,30.5 h -26.9 c -2.4,0 -4.4,-2 -4.4,-4.4 v -26.9 c 0,-2.4 2,-4.4 4.4,-4.4 h 26.9 c 2.4,0 4.4,2 4.4,4.4 v 26.9 c 0,2.4 -1.9,4.4 -4.4,4.4 z m -22.5,-8.8 h 18.1 v -18.1 h -18.1 z m -60,-43.6 c -13.2,0 -24,-10.8 -24,-24 V 86.913587 c 0,-13.2 10.8,-24 24,-24 13.2,0 24,10.8 24,24 v 40.300003 c -0.1,13.2 -10.8,24 -24,24 z m 0,-79.600003 c -8.4,0 -15.2,6.8 -15.2,15.2 v 40.300003 c 0,8.4 6.8,15.2 15.2,15.2 8.4,0 15.2,-6.8 15.2,-15.2 V 86.813587 c 0,-8.4 -6.9,-15.2 -15.2,-15.2 z m -329.8,79.600003 c -13.2,0 -24,-10.8 -24,-24 V 86.913587 c 0,-13.2 10.8,-24 24,-24 13.2,0 24,10.8 24,24 v 40.300003 c 0,13.2 -10.8,24 -24,24 z m 0,-79.600003 c -8.4,0 -15.2,6.8 -15.2,15.2 v 40.300003 c 0,8.4 6.8,15.2 15.2,15.2 8.4,0 15.2,-6.8 15.2,-15.2 V 86.813587 c 0,-8.4 -6.8,-15.2 -15.2,-15.2 z m 483.6,59.800003 h -30.7 c -1.6,0 -3,-0.8 -3.8,-2.2 -0.8,-1.4 -0.8,-3 0,-4.4 l 15.3,-26.000003 c 0.8,-1.3 2.2,-2.2 3.8,-2.2 v 0 c 1.6,0 3,0.8 3.8,2.2 l 15.3,26.000003 c 0.8,1.4 0.8,3 0,4.4 -0.7,1.3 -2.1,2.2 -3.7,2.2 z m -23,-8.8 h 15.3 l -7.7,-12.9 z"
   id="path4"
   sodipodi:nodetypes="sccccccscccccscsccccccsccccccccccccccsccccsscscssccccccccccccccsscccccsccccccccccscccccccscscssccccscccccsccccccccccscccccscscscccccscscssssccssccsscsssssssssssssscssssssssssscsscsssccssccsssssssscsssssssssssssscsssscssssscccccsssccsssssscccssccsssscssscccsssscssscsssssssssssssccsccsccssssssccccsssssscccccssscscccsssssscccssssccccscccsscccccssccssscssssssssssssssscccccssssscsssssssssssssssssssssssssccsscccscccc" /><g
   id="g8"
   transform="translate(9.9423538,-182.38641)" /><g
   id="g10"
   transform="translate(9.9423538,-182.38641)" /><g
   id="g12"
   transform="translate(9.9423538,-182.38641)" /><g
   id="g14"
   transform="translate(9.9423538,-182.38641)" /><g
   id="g16"
   transform="translate(9.9423538,-182.38641)" /><g
   id="g18"
   transform="translate(9.9423538,-182.38641)" /><g
   id="g20"
   transform="translate(9.9423538,-182.38641)" /><g
   id="g22"
   transform="translate(9.9423538,-182.38641)" /><g
   id="g24"
   transform="translate(9.9423538,-182.38641)" /><g
   id="g26"
   transform="translate(9.9423538,-182.38641)" /><g
   id="g28"
   transform="translate(9.9423538,-182.38641)" /><g
   id="g30"
   transform="translate(9.9423538,-182.38641)" /><g
   id="g32"
   transform="translate(9.9423538,-182.38641)" /><g
   id="g34"
   transform="translate(9.9423538,-182.38641)" /><g
   id="g36"
   transform="translate(9.9423538,-182.38641)" />
</svg>
