<?xml version="1.0" encoding="UTF-8" standalone="no"?>
<!DOCTYPE svg PUBLIC "-//W3C//DTD SVG 1.1//EN"
 "http://www.w3.org/Graphics/SVG/1.1/DTD/svg11.dtd">
<!-- Generated by graphviz version 2.40.1 (20161225.0304)
 -->
<!-- Title: G Pages: 1 -->
<svg width="354pt" height="78pt"
 viewBox="0.00 0.00 353.50 78.00" xmlns="http://www.w3.org/2000/svg" xmlns:xlink="http://www.w3.org/1999/xlink">
<g id="graph0" class="graph" transform="scale(1 1) rotate(0) translate(4 74)">
<title>G</title>
<polygon fill="#ffffff" stroke="transparent" points="-4,4 -4,-74 349.5,-74 349.5,4 -4,4"/>
<!-- params -->
<g id="node1" class="node">
<title>params</title>
<polygon fill="none" stroke="#000000" points="103,-53 0,-53 0,-17 109,-17 109,-47 103,-53"/>
<polyline fill="none" stroke="#000000" points="103,-53 103,-47 "/>
<polyline fill="none" stroke="#000000" points="109,-47 103,-47 "/>
<text text-anchor="middle" x="54.5" y="-31.3" font-family="Times,serif" font-size="14.00" fill="#000000">Input parameters</text>
</g>
<!-- task -->
<g id="node2" class="node">
<title>task</title>
<path fill="none" stroke="#000000" d="M139.5,-.5C139.5,-.5 195.5,-.5 195.5,-.5 201.5,-.5 207.5,-6.5 207.5,-12.5 207.5,-12.5 207.5,-57.5 207.5,-57.5 207.5,-63.5 201.5,-69.5 195.5,-69.5 195.5,-69.5 139.5,-69.5 139.5,-69.5 133.5,-69.5 127.5,-63.5 127.5,-57.5 127.5,-57.5 127.5,-12.5 127.5,-12.5 127.5,-6.5 133.5,-.5 139.5,-.5"/>
<text text-anchor="middle" x="167.5" y="-54.3" font-family="Times,serif" font-size="14.00" fill="#000000">Task name</text>
<polyline fill="none" stroke="#000000" points="127.5,-46.5 207.5,-46.5 "/>
<text text-anchor="middle" x="167.5" y="-31.3" font-family="Times,serif" font-size="14.00" fill="#000000">module</text>
<polyline fill="none" stroke="#000000" points="127.5,-23.5 207.5,-23.5 "/>
<text text-anchor="middle" x="167.5" y="-8.3" font-family="Times,serif" font-size="14.00" fill="#000000">description.</text>
</g>
<!-- task_output -->
<g id="node3" class="node">
<title>task_output</title>
<polygon fill="none" stroke="#000000" points="345.5,-53 342.5,-57 321.5,-57 318.5,-53 225.5,-53 225.5,-17 345.5,-17 345.5,-53"/>
<text text-anchor="middle" x="285.5" y="-31.3" font-family="Times,serif" font-size="14.00" fill="#000000">Task output (EXT)</text>
</g>
</g>
</svg>
