<?xml version="1.0" encoding="UTF-8" standalone="no"?>
<!DOCTYPE svg PUBLIC "-//W3C//DTD SVG 1.1//EN"
 "http://www.w3.org/Graphics/SVG/1.1/DTD/svg11.dtd">
<!-- Generated by graphviz version 2.40.1 (20161225.0304)
 -->
<!-- Title: G Pages: 1 -->
<svg width="782pt" height="241pt"
 viewBox="0.00 0.00 782.00 241.00" xmlns="http://www.w3.org/2000/svg" xmlns:xlink="http://www.w3.org/1999/xlink">
<g id="graph0" class="graph" transform="scale(1 1) rotate(0) translate(4 237)">
<title>G</title>
<polygon fill="#ffffff" stroke="transparent" points="-4,4 -4,-237 778,-237 778,4 -4,4"/>
<g id="clust2" class="cluster">
<title>cluster_level1</title>
<polygon fill="none" stroke="#000000" points="8,-8 8,-189 766,-189 766,-8 8,-8"/>
<text text-anchor="middle" x="387" y="-173.8" font-family="Times,serif" font-size="14.00" fill="#000000">Real plants</text>
</g>
<!-- input -->
<g id="node1" class="node">
<title>input</title>
<polygon fill="none" stroke="#000000" points="489,-233 279,-233 279,-197 495,-197 495,-227 489,-233"/>
<polyline fill="none" stroke="#000000" points="489,-233 489,-227 "/>
<polyline fill="none" stroke="#000000" points="495,-227 489,-227 "/>
<text text-anchor="middle" x="387" y="-211.3" font-family="Times,serif" font-size="14.00" fill="#000000">Scanner parameters (TOML)</text>
</g>
<!-- scan_task -->
<g id="node2" class="node">
<title>scan_task</title>
<path fill="none" stroke="#000000" d="M290,-88.5C290,-88.5 484,-88.5 484,-88.5 490,-88.5 496,-94.5 496,-100.5 496,-100.5 496,-145.5 496,-145.5 496,-151.5 490,-157.5 484,-157.5 484,-157.5 290,-157.5 290,-157.5 284,-157.5 278,-151.5 278,-145.5 278,-145.5 278,-100.5 278,-100.5 278,-94.5 284,-88.5 290,-88.5"/>
<text text-anchor="middle" x="387" y="-142.3" font-family="Times,serif" font-size="14.00" fill="#000000">Scan</text>
<polyline fill="none" stroke="#000000" points="278,-134.5 496,-134.5 "/>
<text text-anchor="middle" x="387" y="-119.3" font-family="Times,serif" font-size="14.00" fill="#000000">romiscanner.scan</text>
<polyline fill="none" stroke="#000000" points="278,-111.5 496,-111.5 "/>
<text text-anchor="middle" x="387" y="-96.3" font-family="Times,serif" font-size="14.00" fill="#000000">Scan a plant (requires romi scanner).</text>
</g>
<!-- input&#45;&gt;scan_task -->
<g id="edge1" class="edge">
<title>input&#45;&gt;scan_task</title>
<path fill="none" stroke="#000000" d="M387,-196.8238C387,-188.4189 387,-178.0291 387,-167.7246"/>
<polygon fill="#000000" stroke="#000000" points="390.5001,-167.5253 387,-157.5253 383.5001,-167.5253 390.5001,-167.5253"/>
</g>
<!-- scan_out1 -->
<g id="node3" class="node">
<title>scan_out1</title>
<polygon fill="none" stroke="#000000" points="232,-52 229,-56 208,-56 205,-52 16,-52 16,-16 232,-16 232,-52"/>
<text text-anchor="middle" x="124" y="-30.3" font-family="Times,serif" font-size="14.00" fill="#000000">Multiple RGB images (PNG|JPEG)</text>
</g>
<!-- scan_task&#45;&gt;scan_out1 -->
<g id="edge2" class="edge">
<title>scan_task&#45;&gt;scan_out1</title>
<path fill="none" stroke="#000000" d="M284.9409,-88.4629C251.9908,-77.3125 216.441,-65.2823 187.1547,-55.3717"/>
<polygon fill="#000000" stroke="#000000" points="188.07,-51.9866 177.4758,-52.0964 185.8262,-58.6172 188.07,-51.9866"/>
</g>
<!-- scan_out2 -->
<g id="node4" class="node">
<title>scan_out2</title>
<polygon fill="none" stroke="#000000" points="523.5,-52 520.5,-56 499.5,-56 496.5,-52 250.5,-52 250.5,-16 523.5,-16 523.5,-52"/>
<text text-anchor="middle" x="387" y="-30.3" font-family="Times,serif" font-size="14.00" fill="#000000">Approximate camera poses from CNC (JSON)</text>
</g>
<!-- scan_task&#45;&gt;scan_out2 -->
<g id="edge3" class="edge">
<title>scan_task&#45;&gt;scan_out2</title>
<path fill="none" stroke="#000000" d="M387,-88.3354C387,-79.7833 387,-70.7211 387,-62.4995"/>
<polygon fill="#000000" stroke="#000000" points="390.5001,-62.2891 387,-52.2892 383.5001,-62.2892 390.5001,-62.2891"/>
</g>
<!-- scan_out3 -->
<g id="node5" class="node">
<title>scan_out3</title>
<polygon fill="none" stroke="#000000" points="758,-52 755,-56 734,-56 731,-52 542,-52 542,-16 758,-16 758,-52"/>
<text text-anchor="middle" x="650" y="-30.3" font-family="Times,serif" font-size="14.00" fill="#000000">Metadata (JSON)</text>
</g>
<!-- scan_task&#45;&gt;scan_out3 -->
<g id="edge4" class="edge">
<title>scan_task&#45;&gt;scan_out3</title>
<path fill="none" stroke="#000000" d="M489.0591,-88.4629C522.0092,-77.3125 557.559,-65.2823 586.8453,-55.3717"/>
<polygon fill="#000000" stroke="#000000" points="588.1738,-58.6172 596.5242,-52.0964 585.93,-51.9866 588.1738,-58.6172"/>
</g>
</g>
</svg>
