<?xml version="1.0" encoding="UTF-8" standalone="no"?>
<!DOCTYPE svg PUBLIC "-//W3C//DTD SVG 1.1//EN"
 "http://www.w3.org/Graphics/SVG/1.1/DTD/svg11.dtd">
<!-- Generated by graphviz version 2.40.1 (20161225.0304)
 -->
<!-- Title: G Pages: 1 -->
<svg width="610pt" height="419pt"
 viewBox="0.00 0.00 610.00 419.00" xmlns="http://www.w3.org/2000/svg" xmlns:xlink="http://www.w3.org/1999/xlink">
<g id="graph0" class="graph" transform="scale(1 1) rotate(0) translate(4 415)">
<title>G</title>
<polygon fill="#ffffff" stroke="transparent" points="-4,4 -4,-415 606,-415 606,4 -4,4"/>
<g id="clust3" class="cluster">
<title>cluster_level1</title>
<polygon fill="none" stroke="#000000" points="8,-8 8,-367 474,-367 474,-8 8,-8"/>
<text text-anchor="middle" x="241" y="-351.8" font-family="Times,serif" font-size="14.00" fill="#000000">Virtual plant generator</text>
</g>
<!-- lpy_input -->
<g id="node1" class="node">
<title>lpy_input</title>
<polygon fill="none" stroke="#000000" points="294,-411 84,-411 84,-375 300,-375 300,-405 294,-411"/>
<polyline fill="none" stroke="#000000" points="294,-411 294,-405 "/>
<polyline fill="none" stroke="#000000" points="300,-405 294,-405 "/>
<text text-anchor="middle" x="192" y="-389.3" font-family="Times,serif" font-size="14.00" fill="#000000">LPY parameters (TOML)</text>
</g>
<!-- virtualplant_task -->
<g id="node3" class="node">
<title>virtualplant_task</title>
<path fill="none" stroke="#000000" d="M96,-266.5C96,-266.5 288,-266.5 288,-266.5 294,-266.5 300,-272.5 300,-278.5 300,-278.5 300,-323.5 300,-323.5 300,-329.5 294,-335.5 288,-335.5 288,-335.5 96,-335.5 96,-335.5 90,-335.5 84,-329.5 84,-323.5 84,-323.5 84,-278.5 84,-278.5 84,-272.5 90,-266.5 96,-266.5"/>
<text text-anchor="middle" x="192" y="-320.3" font-family="Times,serif" font-size="14.00" fill="#000000">VirtualPlant</text>
<polyline fill="none" stroke="#000000" points="84,-312.5 300,-312.5 "/>
<text text-anchor="middle" x="192" y="-297.3" font-family="Times,serif" font-size="14.00" fill="#000000">romiscanner.lpy</text>
<polyline fill="none" stroke="#000000" points="84,-289.5 300,-289.5 "/>
<text text-anchor="middle" x="192" y="-274.3" font-family="Times,serif" font-size="14.00" fill="#000000">LPY 3D plant generator.</text>
</g>
<!-- lpy_input&#45;&gt;virtualplant_task -->
<g id="edge1" class="edge">
<title>lpy_input&#45;&gt;virtualplant_task</title>
<path fill="none" stroke="#000000" d="M192,-374.8238C192,-366.4189 192,-356.0291 192,-345.7246"/>
<polygon fill="#000000" stroke="#000000" points="195.5001,-345.5253 192,-335.5253 188.5001,-345.5253 195.5001,-345.5253"/>
</g>
<!-- vs_input -->
<g id="node2" class="node">
<title>vs_input</title>
<polygon fill="none" stroke="#000000" points="596,-411 386,-411 386,-375 602,-375 602,-405 596,-411"/>
<polyline fill="none" stroke="#000000" points="596,-411 596,-405 "/>
<polyline fill="none" stroke="#000000" points="602,-405 596,-405 "/>
<text text-anchor="middle" x="494" y="-389.3" font-family="Times,serif" font-size="14.00" fill="#000000">VirtualScan parameters (TOML)</text>
</g>
<!-- virtualscan_task -->
<g id="node6" class="node">
<title>virtualscan_task</title>
<path fill="none" stroke="#000000" d="M111,-88.5C111,-88.5 371,-88.5 371,-88.5 377,-88.5 383,-94.5 383,-100.5 383,-100.5 383,-145.5 383,-145.5 383,-151.5 377,-157.5 371,-157.5 371,-157.5 111,-157.5 111,-157.5 105,-157.5 99,-151.5 99,-145.5 99,-145.5 99,-100.5 99,-100.5 99,-94.5 105,-88.5 111,-88.5"/>
<text text-anchor="middle" x="241" y="-142.3" font-family="Times,serif" font-size="14.00" fill="#000000">VirtualScan</text>
<polyline fill="none" stroke="#000000" points="99,-134.5 383,-134.5 "/>
<text text-anchor="middle" x="241" y="-119.3" font-family="Times,serif" font-size="14.00" fill="#000000">romiscanner.scan</text>
<polyline fill="none" stroke="#000000" points="99,-111.5 383,-111.5 "/>
<text text-anchor="middle" x="241" y="-96.3" font-family="Times,serif" font-size="14.00" fill="#000000">Generate photorealistic images of a virtual plant.</text>
</g>
<!-- vs_input&#45;&gt;virtualscan_task -->
<g id="edge2" class="edge">
<title>vs_input&#45;&gt;virtualscan_task</title>
<path fill="none" stroke="#000000" d="M498.2764,-374.8853C506.145,-336.6886 518.4028,-247.0514 475,-194 462.8774,-179.1825 430.2524,-165.993 393.0761,-155.1237"/>
<polygon fill="#000000" stroke="#000000" points="393.5878,-151.6307 383.012,-152.2659 391.6756,-158.3645 393.5878,-151.6307"/>
</g>
<!-- virtualplant_out1 -->
<g id="node4" class="node">
<title>virtualplant_out1</title>
<polygon fill="none" stroke="#000000" points="232,-230 229,-234 208,-234 205,-230 16,-230 16,-194 232,-194 232,-230"/>
<text text-anchor="middle" x="124" y="-208.3" font-family="Times,serif" font-size="14.00" fill="#000000">3D Plant (OBJ)</text>
</g>
<!-- virtualplant_task&#45;&gt;virtualplant_out1 -->
<g id="edge3" class="edge">
<title>virtualplant_task&#45;&gt;virtualplant_out1</title>
<path fill="none" stroke="#000000" d="M165.5147,-266.3354C158.3932,-257.0146 150.8087,-247.0878 144.0973,-238.3038"/>
<polygon fill="#000000" stroke="#000000" points="146.8261,-236.1104 137.9737,-230.2892 141.2638,-240.3602 146.8261,-236.1104"/>
</g>
<!-- virtualplant_out2 -->
<g id="node5" class="node">
<title>virtualplant_out2</title>
<polygon fill="none" stroke="#000000" points="466,-230 463,-234 442,-234 439,-230 250,-230 250,-194 466,-194 466,-230"/>
<text text-anchor="middle" x="358" y="-208.3" font-family="Times,serif" font-size="14.00" fill="#000000">Angles &amp; internodes (JSON)</text>
</g>
<!-- virtualplant_task&#45;&gt;virtualplant_out2 -->
<g id="edge4" class="edge">
<title>virtualplant_task&#45;&gt;virtualplant_out2</title>
<path fill="none" stroke="#000000" d="M256.6553,-266.3354C276.3459,-255.7784 297.4865,-244.444 315.3379,-234.8731"/>
<polygon fill="#000000" stroke="#000000" points="317.1887,-237.8521 324.3481,-230.0423 313.881,-231.6829 317.1887,-237.8521"/>
</g>
<!-- virtualplant_out1&#45;&gt;virtualscan_task -->
<g id="edge5" class="edge">
<title>virtualplant_out1&#45;&gt;virtualscan_task</title>
<path fill="none" stroke="#000000" d="M147.6767,-193.9895C159.1752,-185.2428 173.4958,-174.3493 187.4395,-163.7426"/>
<polygon fill="#000000" stroke="#000000" points="189.7416,-166.389 195.5816,-157.5491 185.5035,-160.8177 189.7416,-166.389"/>
</g>
<!-- virtualscan_out1 -->
<g id="node7" class="node">
<title>virtualscan_out1</title>
<polygon fill="none" stroke="#000000" points="232,-52 229,-56 208,-56 205,-52 16,-52 16,-16 232,-16 232,-52"/>
<text text-anchor="middle" x="124" y="-30.3" font-family="Times,serif" font-size="14.00" fill="#000000">Multiple RGB images (PNG|JPEG)</text>
</g>
<!-- virtualscan_task&#45;&gt;virtualscan_out1 -->
<g id="edge6" class="edge">
<title>virtualscan_task&#45;&gt;virtualscan_out1</title>
<path fill="none" stroke="#000000" d="M195.4297,-88.3354C182.188,-78.2627 168.0159,-67.4822 155.8149,-58.201"/>
<polygon fill="#000000" stroke="#000000" points="157.7966,-55.311 147.7185,-52.0423 153.5585,-60.8823 157.7966,-55.311"/>
</g>
<!-- virtualscan_out2 -->
<g id="node8" class="node">
<title>virtualscan_out2</title>
<polygon fill="none" stroke="#000000" points="466,-52 463,-56 442,-56 439,-52 250,-52 250,-16 466,-16 466,-52"/>
<text text-anchor="middle" x="358" y="-30.3" font-family="Times,serif" font-size="14.00" fill="#000000">Camera poses (JSON)</text>
</g>
<!-- virtualscan_task&#45;&gt;virtualscan_out2 -->
<g id="edge7" class="edge">
<title>virtualscan_task&#45;&gt;virtualscan_out2</title>
<path fill="none" stroke="#000000" d="M286.5703,-88.3354C299.812,-78.2627 313.9841,-67.4822 326.1851,-58.201"/>
<polygon fill="#000000" stroke="#000000" points="328.4415,-60.8823 334.2815,-52.0423 324.2034,-55.311 328.4415,-60.8823"/>
</g>
</g>
</svg>
