<svg version="1.1" viewBox="0.0 0.0 849.4173228346457 348.1758530183727" fill="none" stroke="none" stroke-linecap="square" stroke-miterlimit="10" xmlns:xlink="http://www.w3.org/1999/xlink" xmlns="http://www.w3.org/2000/svg"><clipPath id="p.0"><path d="m0 0l849.4173 0l0 348.17584l-849.4173 0l0 -348.17584z" clip-rule="nonzero"/></clipPath><g clip-path="url(#p.0)"><path fill="#000000" fill-opacity="0.0" d="m0 0l849.4173 0l0 348.17584l-849.4173 0z" fill-rule="evenodd"/><path fill="#ffd966" d="m311.62213 130.63922l124.14145 0c3.0517578E-4 0 6.1035156E-4 1.2207031E-4 8.239746E-4 3.3569336E-4c2.1362305E-4 2.1362305E-4 3.3569336E-4 5.187988E-4 3.3569336E-4 8.087158E-4l-0.001159668 66.69151c0 7.3668365 -5.971985 13.338852 -13.338837 13.338852l-124.14148 0l0 0c-6.1035156E-4 0 -0.0011291504 -5.187988E-4 -0.0011291504 -0.001159668l0.0011291504 -66.6915l0 0c0 -7.3668365 5.9720154 -13.338852 13.338867 -13.338852z" fill-rule="evenodd"/><path stroke="#1a1a1a" stroke-width="1.0" stroke-linejoin="round" stroke-linecap="butt" d="m311.62213 130.63922l124.14145 0c3.0517578E-4 0 6.1035156E-4 1.2207031E-4 8.239746E-4 3.3569336E-4c2.1362305E-4 2.1362305E-4 3.3569336E-4 5.187988E-4 3.3569336E-4 8.087158E-4l-0.001159668 66.69151c0 7.3668365 -5.971985 13.338852 -13.338837 13.338852l-124.14148 0l0 0c-6.1035156E-4 0 -0.0011291504 -5.187988E-4 -0.0011291504 -0.001159668l0.0011291504 -66.6915l0 0c0 -7.3668365 5.9720154 -13.338852 13.338867 -13.338852z" fill-rule="evenodd"/><path fill="#000000" d="m325.01562 172.81184q-0.171875 1.8125 -1.34375 2.84375q-1.171875 1.015625 -3.125 1.015625q-1.359375 0 -2.390625 -0.640625q-1.03125 -0.65625 -1.59375 -1.84375q-0.5625 -1.1875 -0.59375 -2.75l0 -1.0625q0 -1.609375 0.5625 -2.828125q0.578125 -1.234375 1.640625 -1.890625q1.078125 -0.671875 2.46875 -0.671875q1.890625 0 3.03125 1.03125q1.15625 1.015625 1.34375 2.875l-1.96875 0q-0.140625 -1.21875 -0.71875 -1.765625q-0.578125 -0.546875 -1.6875 -0.546875q-1.28125 0 -1.984375 0.953125q-0.6875 0.9375 -0.703125 2.75l0 1.015625q0 1.84375 0.65625 2.8125q0.671875 0.96875 1.9375 0.96875q1.171875 0 1.75 -0.515625q0.59375 -0.53125 0.75 -1.75l1.96875 0zm6.6953125 2.875q-0.828125 0.984375 -2.375 0.984375q-1.375 0 -2.078125 -0.796875q-0.703125 -0.8125 -0.703125 -2.34375l0 -5.46875l1.890625 0l0 5.453125q0 1.609375 1.34375 1.609375q1.375 0 1.859375 -1.0l0 -6.0625l1.90625 0l0 8.453125l-1.796875 0l-0.046875 -0.828125zm8.203125 -5.890625q-0.375 -0.0625 -0.78125 -0.0625q-1.296875 0 -1.75 1.0l0 5.78125l-1.90625 0l0 -8.453125l1.8125 0l0.046875 0.9375q0.6875 -1.09375 1.90625 -1.09375q0.40625 0 0.671875 0.109375l0 1.78125zm4.3125 4.3125l1.796875 -6.046875l1.953125 0l-2.921875 8.453125l-1.65625 0l-2.953125 -8.453125l1.96875 0l1.8125 6.046875zm8.5625 2.5625q-1.8125 0 -2.9375 -1.140625q-1.109375 -1.140625 -1.109375 -3.03125l0 -0.234375q0 -1.265625 0.484375 -2.25q0.484375 -1.0 1.359375 -1.546875q0.890625 -0.5625 1.984375 -0.5625q1.71875 0 2.65625 1.109375q0.953125 1.09375 0.953125 3.109375l0 0.765625l-5.53125 0q0.09375 1.046875 0.703125 1.65625q0.609375 0.609375 1.546875 0.609375q1.296875 0 2.125 -1.0625l1.015625 0.984375q-0.5 0.75 -1.359375 1.171875q-0.84375 0.421875 -1.890625 0.421875zm-0.234375 -7.25q-0.78125 0 -1.265625 0.546875q-0.46875 0.546875 -0.609375 1.53125l3.625 0l0 -0.140625q-0.0625 -0.953125 -0.515625 -1.4375q-0.4375 -0.5 -1.234375 -0.5zm11.2265625 4.15625q0 -0.75 -0.53125 -1.15625q-0.53125 -0.40625 -1.90625 -0.8125q-1.375 -0.421875 -2.1875 -0.921875q-1.546875 -0.984375 -1.546875 -2.546875q0 -1.375 1.109375 -2.265625q1.125 -0.890625 2.921875 -0.890625q1.1875 0 2.109375 0.4375q0.9375 0.4375 1.46875 1.25q0.53125 0.796875 0.53125 1.78125l-1.96875 0q0 -0.890625 -0.5625 -1.390625q-0.5625 -0.5 -1.59375 -0.5q-0.96875 0 -1.515625 0.421875q-0.53125 0.40625 -0.53125 1.140625q0 0.625 0.578125 1.046875q0.578125 0.421875 1.90625 0.8125q1.328125 0.390625 2.125 0.90625q0.8125 0.5 1.1875 1.15625q0.375 0.640625 0.375 1.515625q0 1.421875 -1.09375 2.265625q-1.078125 0.84375 -2.953125 0.84375q-1.234375 0 -2.265625 -0.453125q-1.03125 -0.46875 -1.609375 -1.265625q-0.578125 -0.8125 -0.578125 -1.875l1.984375 0q0 0.96875 0.640625 1.5q0.640625 0.53125 1.828125 0.53125q1.03125 0 1.546875 -0.421875q0.53125 -0.421875 0.53125 -1.109375zm6.265625 -0.6875l-0.84375 0.859375l0 2.765625l-1.890625 0l0 -12.0l1.890625 0l0 6.921875l0.59375 -0.75l2.34375 -2.625l2.28125 0l-3.140625 3.515625l3.46875 4.9375l-2.1875 0l-2.515625 -3.625zm9.1796875 3.78125q-1.8125 0 -2.9375 -1.140625q-1.109375 -1.140625 -1.109375 -3.03125l0 -0.234375q0 -1.265625 0.484375 -2.25q0.484375 -1.0 1.359375 -1.546875q0.890625 -0.5625 1.984375 -0.5625q1.71875 0 2.65625 1.109375q0.953125 1.09375 0.953125 3.109375l0 0.765625l-5.53125 0q0.09375 1.046875 0.703125 1.65625q0.609375 0.609375 1.546875 0.609375q1.296875 0 2.125 -1.0625l1.015625 0.984375q-0.5 0.75 -1.359375 1.171875q-0.84375 0.421875 -1.890625 0.421875zm-0.234375 -7.25q-0.78125 0 -1.265625 0.546875q-0.46875 0.546875 -0.609375 1.53125l3.625 0l0 -0.140625q-0.0625 -0.953125 -0.515625 -1.4375q-0.4375 -0.5 -1.234375 -0.5zm7.1171875 7.09375l-1.90625 0l0 -12.0l1.90625 0l0 12.0zm5.7890625 0.15625q-1.8125 0 -2.9375 -1.140625q-1.109375 -1.140625 -1.109375 -3.03125l0 -0.234375q0 -1.265625 0.484375 -2.25q0.484375 -1.0 1.359375 -1.546875q0.890625 -0.5625 1.984375 -0.5625q1.71875 0 2.65625 1.109375q0.953125 1.09375 0.953125 3.109375l0 0.765625l-5.53125 0q0.09375 1.046875 0.703125 1.65625q0.609375 0.609375 1.546875 0.609375q1.296875 0 2.125 -1.0625l1.015625 0.984375q-0.5 0.75 -1.359375 1.171875q-0.84375 0.421875 -1.890625 0.421875zm-0.234375 -7.25q-0.78125 0 -1.265625 0.546875q-0.46875 0.546875 -0.609375 1.53125l3.625 0l0 -0.140625q-0.0625 -0.953125 -0.515625 -1.4375q-0.4375 -0.5 -1.234375 -0.5zm7.4765625 -3.421875l0 2.0625l1.484375 0l0 1.40625l-1.484375 0l0 4.71875q0 0.484375 0.1875 0.703125q0.1875 0.203125 0.6875 0.203125q0.328125 0 0.65625 -0.078125l0 1.46875q-0.640625 0.1875 -1.25 0.1875q-2.1875 0 -2.1875 -2.421875l0 -4.78125l-1.390625 0l0 -1.40625l1.390625 0l0 -2.0625l1.90625 0zm2.3515625 6.203125q0 -1.234375 0.484375 -2.234375q0.5 -1.0 1.390625 -1.53125q0.890625 -0.53125 2.046875 -0.53125q1.703125 0 2.765625 1.109375q1.078125 1.09375 1.15625 2.90625l0.015625 0.453125q0 1.25 -0.484375 2.234375q-0.484375 0.984375 -1.375 1.53125q-0.890625 0.53125 -2.0625 0.53125q-1.796875 0 -2.875 -1.1875q-1.0625 -1.203125 -1.0625 -3.1875l0 -0.09375zm1.890625 0.171875q0 1.296875 0.53125 2.046875q0.546875 0.734375 1.5 0.734375q0.96875 0 1.5 -0.75q0.546875 -0.75 0.546875 -2.203125q0 -1.28125 -0.5625 -2.03125q-0.546875 -0.75 -1.484375 -0.75q-0.9375 0 -1.484375 0.75q-0.546875 0.734375 -0.546875 2.203125zm9.328125 -4.3125l0.0625 0.96875q0.9375 -1.125 2.453125 -1.125q2.640625 0 2.6875 3.015625l0 5.59375l-1.890625 0l0 -5.484375q0 -0.796875 -0.359375 -1.1875q-0.34375 -0.390625 -1.125 -0.390625q-1.15625 0 -1.71875 1.046875l0 6.015625l-1.890625 0l0 -8.453125l1.78125 0z" fill-rule="nonzero"/><path fill="#000000" fill-opacity="0.0" d="m262.2829 170.438l36.0 0.22047424" fill-rule="evenodd"/><path stroke="#1a1a1a" stroke-width="3.0" stroke-linejoin="round" stroke-linecap="butt" d="m262.2829 170.43802l18.000336 0.11022949" fill-rule="evenodd"/><path fill="#1a1a1a" stroke="#1a1a1a" stroke-width="3.0" stroke-linecap="butt" d="m280.25287 175.50336l13.644409 -4.8717346l-13.58371 -5.0384827z" fill-rule="evenodd"/><path fill="#000000" fill-opacity="0.0" d="m435.76358 170.65497l36.0 0" fill-rule="evenodd"/><path stroke="#1a1a1a" stroke-width="3.0" stroke-linejoin="round" stroke-linecap="butt" d="m435.76358 170.65498l18.0 0" fill-rule="evenodd"/><path fill="#1a1a1a" stroke="#1a1a1a" stroke-width="3.0" stroke-linecap="butt" d="m453.76358 175.61017l13.614288 -4.955185l-13.614288 -4.9552z" fill-rule="evenodd"/><path fill="#ffe599" d="m22.770966 130.85747l124.141464 0c3.0517578E-4 0 5.950928E-4 1.2207031E-4 8.087158E-4 3.3569336E-4c2.1362305E-4 2.1362305E-4 3.3569336E-4 5.0354004E-4 3.3569336E-4 8.087158E-4l-0.0011444092 66.6915c0 7.366852 -5.972 13.338852 -13.338852 13.338852l-124.141464 0l0 0c-6.3323975E-4 0 -0.0011453629 -5.187988E-4 -0.0011453629 -0.0011444092l0.0011453629 -66.6915l0 0c0 -7.366852 5.972006 -13.338852 13.33885 -13.338852z" fill-rule="evenodd"/><path stroke="#1a1a1a" stroke-width="1.0" stroke-linejoin="round" stroke-linecap="butt" d="m22.770966 130.85747l124.141464 0c3.0517578E-4 0 5.950928E-4 1.2207031E-4 8.087158E-4 3.3569336E-4c2.1362305E-4 2.1362305E-4 3.3569336E-4 5.0354004E-4 3.3569336E-4 8.087158E-4l-0.0011444092 66.6915c0 7.366852 -5.972 13.338852 -13.338852 13.338852l-124.141464 0l0 0c-6.3323975E-4 0 -0.0011453629 -5.187988E-4 -0.0011453629 -0.0011444092l0.0011453629 -66.6915l0 0c0 -7.366852 5.972006 -13.338852 13.33885 -13.338852z" fill-rule="evenodd"/><path fill="#000000" d="m38.57462 166.95197l-3.546875 0l0 9.78125l-1.953125 0l0 -9.78125l-3.515625 0l0 -1.59375l9.015625 0l0 1.59375zm5.234375 3.0625q-0.375 -0.0625 -0.78125 -0.0625q-1.296875 0 -1.75 1.0l0 5.78125l-1.90625 0l0 -8.453125l1.8125 0l0.046875 0.9375q0.6875 -1.09375 1.90625 -1.09375q0.40625 0 0.671875 0.109375l0 1.78125zm3.21875 6.71875l-1.90625 0l0 -8.453125l1.90625 0l0 8.453125zm-2.015625 -10.65625q0 -0.4375 0.265625 -0.71875q0.28125 -0.296875 0.796875 -0.296875q0.515625 0 0.796875 0.296875q0.28125 0.28125 0.28125 0.71875q0 0.4375 -0.28125 0.71875q-0.28125 0.28125 -0.796875 0.28125q-0.515625 0 -0.796875 -0.28125q-0.265625 -0.28125 -0.265625 -0.71875zm9.1328125 10.65625q-0.125 -0.25 -0.21875 -0.796875q-0.90625 0.953125 -2.21875 0.953125q-1.28125 0 -2.09375 -0.71875q-0.796875 -0.734375 -0.796875 -1.8125q0 -1.34375 1.0 -2.0625q1.015625 -0.734375 2.875 -0.734375l1.171875 0l0 -0.546875q0 -0.65625 -0.375 -1.046875q-0.359375 -0.40625 -1.109375 -0.40625q-0.65625 0 -1.078125 0.328125q-0.40625 0.328125 -0.40625 0.828125l-1.890625 0q0 -0.703125 0.453125 -1.296875q0.46875 -0.609375 1.25 -0.953125q0.796875 -0.34375 1.78125 -0.34375q1.484375 0 2.359375 0.75q0.890625 0.734375 0.90625 2.09375l0 3.8125q0 1.140625 0.328125 1.8125l0 0.140625l-1.9375 0zm-2.09375 -1.375q0.5625 0 1.0625 -0.265625q0.5 -0.28125 0.75 -0.734375l0 -1.59375l-1.03125 0q-1.046875 0 -1.578125 0.375q-0.53125 0.359375 -0.53125 1.03125q0 0.546875 0.359375 0.875q0.359375 0.3125 0.96875 0.3125zm7.453125 -7.078125l0.0625 0.96875q0.9375 -1.125 2.453125 -1.125q2.6406212 0 2.6874962 3.015625l0 5.59375l-1.8906212 0l0 -5.484375q0 -0.796875 -0.359375 -1.1875q-0.34375 -0.390625 -1.125 -0.390625q-1.15625 0 -1.71875 1.046875l0 6.015625l-1.890625 0l0 -8.453125l1.78125 0zm6.8046837 4.15625q0 -1.96875 0.921875 -3.140625q0.9375 -1.171875 2.46875 -1.171875q1.4375 0 2.265625 1.0l0.09375 -0.84375l1.703125 0l0 8.1875q0 1.671875 -1.03125 2.625q-1.03125 0.96875 -2.796875 0.96875q-0.921875 0 -1.8125 -0.390625q-0.890625 -0.375 -1.34375 -1.0l0.890625 -1.140625q0.875 1.03125 2.15625 1.03125q0.953125 0 1.5 -0.515625q0.546875 -0.5 0.546875 -1.5l0 -0.578125q-0.828125 0.921875 -2.1875 0.921875q-1.484375 0 -2.4375 -1.171875q-0.9375 -1.1875 -0.9375 -3.28125zm1.890625 0.171875q0 1.265625 0.515625 2.0q0.53125 0.734375 1.453125 0.734375q1.140625 0 1.703125 -0.984375l0 -3.71875q-0.546875 -0.96875 -1.6875 -0.96875q-0.9375 0 -1.46875 0.75q-0.515625 0.734375 -0.515625 2.1875zm9.5390625 4.125l-1.90625 0l0 -12.0l1.90625 0l0 12.0zm5.7890625 0.15625q-1.8125 0 -2.9375 -1.140625q-1.109375 -1.140625 -1.109375 -3.03125l0 -0.234375q0 -1.265625 0.484375 -2.25q0.484375 -1.0 1.359375 -1.546875q0.890625 -0.5625 1.984375 -0.5625q1.71875 0 2.65625 1.109375q0.953125 1.09375 0.953125 3.109375l0 0.765625l-5.53125 0q0.09375 1.046875 0.703125 1.65625q0.609375 0.609375 1.546875 0.609375q1.296875 0 2.125 -1.0625l1.015625 0.984375q-0.5 0.75 -1.359375 1.171875q-0.84375 0.421875 -1.890625 0.421875zm-0.234375 -7.25q-0.78125 0 -1.265625 0.546875q-0.46875 0.546875 -0.609375 1.53125l3.625 0l0 -0.140625q-0.0625 -0.953125 -0.515625 -1.4375q-0.4375 -0.5 -1.234375 -0.5zm7.8359375 -4.28125l3.28125 8.71875l3.28125 -8.71875l2.546875 0l0 11.375l-1.96875 0l0 -3.75l0.203125 -5.015625l-3.359375 8.765625l-1.421875 0l-3.34375 -8.765625l0.1875 5.015625l0 3.75l-1.96875 0l0 -11.375l2.5625 0zm14.9921875 11.53125q-1.8125 0 -2.9375 -1.140625q-1.109375 -1.140625 -1.109375 -3.03125l0 -0.234375q0 -1.265625 0.484375 -2.25q0.484375 -1.0 1.359375 -1.546875q0.890625 -0.5625 1.984375 -0.5625q1.71875 0 2.65625 1.109375q0.953125 1.09375 0.953125 3.109375l0 0.765625l-5.53125 0q0.09375 1.046875 0.703125 1.65625q0.609375 0.609375 1.546875 0.609375q1.296875 0 2.125 -1.0625l1.015625 0.984375q-0.5 0.75 -1.359375 1.171875q-0.84375 0.421875 -1.890625 0.421875zm-0.234375 -7.25q-0.78125 0 -1.265625 0.546875q-0.46875 0.546875 -0.609375 1.53125l3.625 0l0 -0.140625q-0.0625 -0.953125 -0.515625 -1.4375q-0.4375 -0.5 -1.234375 -0.5zm9.8359375 4.796875q0 -0.515625 -0.421875 -0.78125q-0.421875 -0.265625 -1.390625 -0.46875q-0.96875 -0.203125 -1.609375 -0.515625q-1.421875 -0.6875 -1.421875 -1.984375q0 -1.09375 0.921875 -1.828125q0.921875 -0.734375 2.34375 -0.734375q1.515625 0 2.4375 0.75q0.9375 0.75 0.9375 1.9375l-1.890625 0q0 -0.546875 -0.40625 -0.90625q-0.40625 -0.359375 -1.078125 -0.359375q-0.625 0 -1.03125 0.296875q-0.390625 0.28125 -0.390625 0.765625q0 0.4375 0.359375 0.6875q0.375 0.234375 1.484375 0.484375q1.125 0.234375 1.765625 0.578125q0.640625 0.34375 0.9375 0.828125q0.3125 0.46875 0.3125 1.140625q0 1.140625 -0.953125 1.859375q-0.9375 0.703125 -2.46875 0.703125q-1.03125 0 -1.84375 -0.375q-0.8125 -0.375 -1.265625 -1.03125q-0.453125 -0.65625 -0.453125 -1.421875l1.84375 0q0.03125 0.671875 0.5 1.046875q0.46875 0.359375 1.25 0.359375q0.75 0 1.140625 -0.28125q0.390625 -0.296875 0.390625 -0.75zm5.3828125 -5.234375q0.9375 -1.078125 2.359375 -1.078125q2.703125 0 2.734375 3.078125l0 5.53125l-1.890625 0l0 -5.453125q0 -0.875 -0.390625 -1.234375q-0.375 -0.375 -1.109375 -0.375q-1.140625 0 -1.703125 1.015625l0 6.046875l-1.890625 0l0 -12.0l1.890625 0l0 4.46875z" fill-rule="nonzero"/><path fill="#000000" fill-opacity="0.0" d="m78.17281 82.09454l0 48.755905" fill-rule="evenodd"/><path stroke="#1a1a1a" stroke-width="3.0" stroke-linejoin="round" stroke-linecap="butt" d="m78.17282 82.09454l0 30.755913" fill-rule="evenodd"/><path fill="#1a1a1a" stroke="#1a1a1a" stroke-width="3.0" stroke-linecap="butt" d="m73.21762 112.85046l4.9552 13.614288l4.9551926 -13.614288z" fill-rule="evenodd"/><path fill="#000000" fill-opacity="0.0" d="m146.91243 170.87321l36.0 -0.4409485" fill-rule="evenodd"/><path stroke="#1a1a1a" stroke-width="3.0" stroke-linejoin="round" stroke-linecap="butt" d="m146.91243 170.87321l18.001343 -0.2204895" fill-rule="evenodd"/><path fill="#1a1a1a" stroke="#1a1a1a" stroke-width="3.0" stroke-linecap="butt" d="m164.97446 175.60756l13.552582 -5.121567l-13.67395 -4.788086z" fill-rule="evenodd"/><path fill="#e9edee" d="m38.487778 11.503135l79.37008 0l0 60.617905c-39.685043 0 -39.685043 23.096535 -79.37008 9.973503z" fill-rule="evenodd"/><path stroke="#1a1a1a" stroke-width="1.0" stroke-linejoin="round" stroke-linecap="butt" d="m38.487778 11.503135l79.37008 0l0 60.617905c-39.685043 0 -39.685043 23.096535 -79.37008 9.973503z" fill-rule="evenodd"/><path fill="#000000" d="m51.367794 32.39584q0.59375 0 1.03125 0.15625q0.4375 0.140625 0.734375 0.421875q0.296875 0.265625 0.4375 0.640625q0.140625 0.359375 0.140625 0.828125q0 1.03125 -0.609375 1.59375q-0.59375 0.546875 -1.8125 0.546875l-0.765625 0l0 2.46875l-0.875 0l0 -6.5q0.1875 -0.046875 0.40625 -0.078125q0.234375 -0.03125 0.46875 -0.046875q0.234375 -0.03125 0.453125 -0.03125q0.21875 0 0.390625 0zm0.0625 0.75q-0.265625 0 -0.53125 0.015625q-0.25 0 -0.375 0.015625l0 2.671875l0.71875 0q0.796875 0 1.1875 -0.3125q0.390625 -0.328125 0.390625 -1.0625q0 -1.328125 -1.390625 -1.328125zm7.671936 3.4375q0 0.578125 -0.171875 1.0625q-0.15625 0.46875 -0.46875 0.8125q-0.296875 0.34375 -0.71875 0.53125q-0.40625 0.1875 -0.890625 0.1875q-0.484375 0 -0.890625 -0.1875q-0.40625 -0.1875 -0.71875 -0.53125q-0.296875 -0.34375 -0.46875 -0.8125q-0.15625 -0.484375 -0.15625 -1.0625q0 -0.59375 0.15625 -1.0625q0.171875 -0.484375 0.46875 -0.8125q0.3125 -0.34375 0.71875 -0.53125q0.40625 -0.1875 0.890625 -0.1875q0.484375 0 0.890625 0.1875q0.421875 0.1875 0.71875 0.53125q0.3125 0.328125 0.46875 0.8125q0.171875 0.46875 0.171875 1.0625zm-0.90625 0q0 -0.84375 -0.375 -1.328125q-0.359375 -0.484375 -0.96875 -0.484375q-0.609375 0 -0.96875 0.484375q-0.359375 0.484375 -0.359375 1.328125q0 0.828125 0.359375 1.3125q0.359375 0.484375 0.96875 0.484375q0.609375 0 0.96875 -0.484375q0.375 -0.484375 0.375 -1.3125zm3.562561 -3.25q-0.28125 0 -0.484375 -0.1875q-0.203125 -0.1875 -0.203125 -0.515625q0 -0.328125 0.203125 -0.515625q0.203125 -0.203125 0.484375 -0.203125q0.28125 0 0.46875 0.203125q0.203125 0.1875 0.203125 0.515625q0 0.328125 -0.203125 0.515625q-0.1875 0.1875 -0.46875 0.1875zm-0.234375 1.515625l-1.421875 0l0 -0.734375l2.296875 0l0 3.03125q0 0.734375 0.203125 0.984375q0.203125 0.25 0.609375 0.25q0.3125 0 0.5625 -0.078125q0.2656212 -0.078125 0.4218712 -0.15625l0.125 0.75q-0.0625 0.03125 -0.1875 0.078125q-0.109375 0.046875 -0.2656212 0.078125q-0.15625 0.046875 -0.34375 0.078125q-0.1875 0.046875 -0.390625 0.046875q-0.46875 0 -0.78125 -0.125q-0.296875 -0.140625 -0.484375 -0.390625q-0.1875 -0.265625 -0.265625 -0.640625q-0.078125 -0.375 -0.078125 -0.875l0 -2.296875zm4.078182 -0.609375q0.484375 -0.109375 0.953125 -0.171875q0.484375 -0.0625 0.890625 -0.0625q1.0 0 1.5 0.515625q0.515625 0.5 0.515625 1.625l0 2.90625l-0.875 0l0 -2.734375q0 -0.484375 -0.09375 -0.78125q-0.078125 -0.296875 -0.234375 -0.453125q-0.15625 -0.171875 -0.375 -0.234375q-0.21875 -0.0625 -0.46875 -0.0625q-0.21875 0 -0.46875 0.03125q-0.234375 0.015625 -0.453125 0.0625l0 4.171875l-0.890625 0l0 -4.8125zm7.171936 -0.125l2.078125 0l0 0.734375l-2.078125 0l0 2.296875q0 0.375 0.046875 0.609375q0.0625 0.234375 0.171875 0.375q0.125 0.140625 0.3125 0.203125q0.203125 0.046875 0.484375 0.046875q0.375 0 0.609375 -0.0625q0.234375 -0.0625 0.453125 -0.171875l0.125 0.75q-0.15625 0.0625 -0.484375 0.171875q-0.3125 0.109375 -0.796875 0.109375q-0.546875 0 -0.90625 -0.125q-0.34375 -0.140625 -0.546875 -0.390625q-0.203125 -0.265625 -0.28125 -0.640625q-0.0625 -0.375 -0.0625 -0.875l0 -2.296875l-1.046875 0l0 -0.734375l1.046875 0l0 -1.390625l0.875 -0.15625l0 1.546875zm8.578247 2.46875q0 -0.671875 0.21875 -1.15625q0.21875 -0.484375 0.578125 -0.796875q0.375 -0.328125 0.875 -0.484375q0.5 -0.15625 1.0625 -0.15625q0.359375 0 0.71875 0.046875q0.359375 0.046875 0.765625 0.171875l-0.203125 0.765625q-0.359375 -0.125 -0.65625 -0.15625q-0.28125 -0.046875 -0.578125 -0.046875q-0.390625 0 -0.734375 0.109375q-0.328125 0.09375 -0.59375 0.3125q-0.25 0.21875 -0.40625 0.5625q-0.140625 0.34375 -0.140625 0.828125q0 0.46875 0.140625 0.8125q0.140625 0.328125 0.390625 0.546875q0.25 0.21875 0.59375 0.328125q0.359375 0.109375 0.78125 0.109375q0.34375 0 0.65625 -0.03125q0.328125 -0.046875 0.6875 -0.171875l0.140625 0.734375q-0.375 0.140625 -0.765625 0.203125q-0.375 0.0625 -0.828125 0.0625q-0.59375 0 -1.09375 -0.171875q-0.5 -0.171875 -0.859375 -0.484375q-0.34375 -0.328125 -0.546875 -0.8125q-0.203125 -0.484375 -0.203125 -1.125zm8.421936 2.59375q-0.46875 0 -0.78125 -0.125q-0.3125 -0.140625 -0.5 -0.390625q-0.171875 -0.265625 -0.25 -0.640625q-0.078125 -0.375 -0.078125 -0.875l0 -4.671875l-1.421875 0l0 -0.75l2.296875 0l0 5.421875q0 0.375 0.046875 0.609375q0.046875 0.234375 0.140625 0.375q0.109375 0.140625 0.25 0.203125q0.15625 0.046875 0.359375 0.046875q0.3125 0 0.578125 -0.078125q0.265625 -0.078125 0.421875 -0.15625l0.125 0.75q-0.0625 0.03125 -0.1875 0.078125q-0.109375 0.046875 -0.28125 0.078125q-0.15625 0.046875 -0.34375 0.078125q-0.1875 0.046875 -0.375 0.046875zm6.625061 -2.59375q0 0.578125 -0.171875 1.0625q-0.15625 0.46875 -0.46875 0.8125q-0.296875 0.34375 -0.71875 0.53125q-0.40625 0.1875 -0.890625 0.1875q-0.484375 0 -0.890625 -0.1875q-0.40625 -0.1875 -0.71875 -0.53125q-0.296875 -0.34375 -0.46875 -0.8125q-0.15625 -0.484375 -0.15625 -1.0625q0 -0.59375 0.15625 -1.0625q0.171875 -0.484375 0.46875 -0.8125q0.3125 -0.34375 0.71875 -0.53125q0.40625 -0.1875 0.890625 -0.1875q0.484375 0 0.890625 0.1875q0.421875 0.1875 0.71875 0.53125q0.3125 0.328125 0.46875 0.8125q0.171875 0.46875 0.171875 1.0625zm-0.90625 0q0 -0.84375 -0.375 -1.328125q-0.359375 -0.484375 -0.96875 -0.484375q-0.609375 0 -0.96875 0.484375q-0.359375 0.484375 -0.359375 1.328125q0 0.828125 0.359375 1.3125q0.359375 0.484375 0.96875 0.484375q0.609375 0 0.96875 -0.484375q0.375 -0.484375 0.375 -1.3125zm5.906311 2.328125q-0.296875 0.078125 -0.78125 0.15625q-0.46875 0.09375 -1.09375 0.09375q-0.578125 0 -0.953125 -0.15625q-0.359375 -0.171875 -0.59375 -0.46875q-0.234375 -0.3125 -0.34375 -0.71875q-0.09375 -0.421875 -0.09375 -0.921875l0 -2.78125l0.875 0l0 2.578125q0 0.921875 0.265625 1.3125q0.28125 0.375 0.921875 0.375q0.140625 0 0.28125 0q0.140625 -0.015625 0.265625 -0.03125q0.140625 -0.015625 0.234375 -0.03125q0.09375 -0.015625 0.125 -0.03125l0 -4.171875l0.890625 0l0 4.796875zm4.4375687 -3.765625q-0.15625 -0.125 -0.4375 -0.25q-0.28125 -0.125 -0.59375 -0.125q-0.359375 0 -0.609375 0.140625q-0.25 0.140625 -0.40625 0.375q-0.15625 0.234375 -0.234375 0.578125q-0.078125 0.328125 -0.078125 0.71875q0 0.859375 0.40625 1.328125q0.40625 0.46875 1.0625 0.46875q0.328125 0 0.546875 -0.03125q0.234375 -0.03125 0.34375 -0.0625l0 -3.140625zm0 -3.328125l0.890625 -0.15625l0 7.25q-0.296875 0.09375 -0.75 0.171875q-0.4375 0.09375 -1.03125 0.09375q-0.53125 0 -0.96875 -0.1875q-0.4375 -0.1875 -0.75 -0.515625q-0.3125 -0.34375 -0.484375 -0.8125q-0.171875 -0.484375 -0.171875 -1.078125q0 -0.578125 0.140625 -1.046875q0.15625 -0.484375 0.421875 -0.8125q0.28125 -0.34375 0.671875 -0.53125q0.390625 -0.203125 0.890625 -0.203125q0.390625 0 0.6875 0.09375q0.296875 0.09375 0.453125 0.203125l0 -2.46875z" fill-rule="nonzero"/><path fill="#000000" d="m68.9461 45.223965q-1.0 0.765625 -1.515625 1.765625q-0.515625 1.0 -0.515625 2.1875q0 0.59375 0.109375 1.125q0.125 0.53125 0.375 1.03125q0.25 0.484375 0.640625 0.9375q0.390625 0.46875 0.921875 0.921875l-0.46875 0.640625q-1.234375 -0.90625 -1.84375 -2.109375q-0.59375 -1.203125 -0.59375 -2.53125q0 -1.3125 0.609375 -2.515625q0.609375 -1.203125 1.828125 -2.09375l0.46875 0.640625l-0.015625 0zm3.734436 0.171875q0.59375 0 1.03125 0.15625q0.4375 0.140625 0.734375 0.421875q0.296875 0.265625 0.4375 0.640625q0.140625 0.359375 0.140625 0.828125q0 1.03125 -0.609375 1.59375q-0.59375 0.546875 -1.8125 0.546875l-0.765625 0l0 2.46875l-0.875 0l0 -6.5q0.1875 -0.046875 0.40625 -0.078125q0.234375 -0.03125 0.46875 -0.046875q0.234375 -0.03125 0.453125 -0.03125q0.21875 0 0.390625 0zm0.0625 0.75q-0.265625 0 -0.53125 0.015625q-0.25 0 -0.375 0.015625l0 2.671875l0.71875 0q0.796875 0 1.1875 -0.3125q0.390625 -0.328125 0.390625 -1.0625q0 -1.328125 -1.390625 -1.328125zm7.671936 5.15625l0 0.75l-3.9375 0l0 -6.59375l0.875 0l0 5.84375l3.0625 0zm2.656311 0.75l0 -2.453125q-0.640625 -1.0625 -1.171875 -2.078125q-0.53125 -1.015625 -0.921875 -2.0625l0.984375 0q0.296875 0.890625 0.703125 1.703125q0.40625 0.8125 0.859375 1.6875q0.484375 -0.90625 0.859375 -1.71875q0.390625 -0.828125 0.6875 -1.671875l0.96875 0q-0.40625 1.046875 -0.9375 2.046875q-0.515625 0.984375 -1.15625 2.078125l0 2.46875l-0.875 0zm4.312561 1.140625q1.0 -0.765625 1.515625 -1.765625q0.53125 -1.0 0.53125 -2.1875q0 -0.59375 -0.125 -1.125q-0.109375 -0.53125 -0.375 -1.015625q-0.25 -0.5 -0.640625 -0.953125q-0.390625 -0.46875 -0.921875 -0.921875l0.484375 -0.640625q1.21875 0.90625 1.8125 2.109375q0.609375 1.1875 0.609375 2.53125q0 0.65625 -0.15625 1.296875q-0.15625 0.640625 -0.453125 1.234375q-0.296875 0.578125 -0.75 1.109375q-0.453125 0.53125 -1.0625 0.96875l-0.46875 -0.640625l0 0z" fill-rule="nonzero"/><path fill="#e9edee" d="m182.91281 132.73155l79.37009 0l0 60.47696c-39.685043 0 -39.685043 23.042847 -79.37009 9.950317z" fill-rule="evenodd"/><path stroke="#1a1a1a" stroke-width="1.0" stroke-linejoin="round" stroke-linecap="butt" d="m182.91281 132.73155l79.37009 0l0 60.47696c-39.685043 0 -39.685043 23.042847 -79.37009 9.950317z" fill-rule="evenodd"/><path fill="#000000" d="m200.86317 147.11629l0 0.75l-1.8125 0l0 5.84375l-0.859375 0l0 -5.84375l-1.8125 0l0 -0.75l4.484375 0zm1.562561 6.59375l0 -4.671875q1.09375 -0.375 2.1875 -0.375q0.34375 0 0.65625 0.03125q0.3125 0.015625 0.6875 0.109375l-0.171875 0.765625q-0.328125 -0.09375 -0.59375 -0.109375q-0.265625 -0.03125 -0.578125 -0.03125q-0.640625 0 -1.3125 0.171875l0 4.109375l-0.875 0zm6.421936 -5.71875q-0.28125 0 -0.484375 -0.1875q-0.203125 -0.1875 -0.203125 -0.515625q0 -0.328125 0.203125 -0.515625q0.203125 -0.203125 0.484375 -0.203125q0.28125 0 0.46875 0.203125q0.203125 0.1875 0.203125 0.515625q0 0.328125 -0.203125 0.515625q-0.1875 0.1875 -0.46875 0.1875zm-0.234375 1.515625l-1.421875 0l0 -0.734375l2.296875 0l0 3.03125q0 0.734375 0.203125 0.984375q0.203125 0.25 0.609375 0.25q0.3125 0 0.5625 -0.078125q0.265625 -0.078125 0.421875 -0.15625l0.125 0.75q-0.0625 0.03125 -0.1875 0.078125q-0.109375 0.046875 -0.265625 0.078125q-0.15625 0.046875 -0.34375 0.078125q-0.1875 0.046875 -0.390625 0.046875q-0.46875 0 -0.78125 -0.125q-0.296875 -0.140625 -0.484375 -0.390625q-0.1875 -0.265625 -0.265625 -0.640625q-0.078125 -0.375 -0.078125 -0.875l0 -2.296875zm6.046936 3.578125q0.328125 0 0.578125 -0.015625q0.265625 -0.03125 0.4375 -0.0625l0 -1.46875q-0.171875 -0.0625 -0.40625 -0.09375q-0.234375 -0.03125 -0.5 -0.03125q-0.25 0 -0.484375 0.046875q-0.234375 0.03125 -0.421875 0.125q-0.171875 0.09375 -0.296875 0.25q-0.109375 0.15625 -0.109375 0.390625q0 0.484375 0.3125 0.671875q0.328125 0.1875 0.890625 0.1875zm-0.09375 -4.4375q0.5625 0 0.9375 0.140625q0.375 0.140625 0.609375 0.390625q0.234375 0.234375 0.328125 0.59375q0.109375 0.34375 0.109375 0.765625l0 3.09375q-0.3125 0.046875 -0.828125 0.125q-0.5 0.078125 -1.03125 0.078125q-0.40625 0 -0.796875 -0.078125q-0.375 -0.0625 -0.671875 -0.234375q-0.296875 -0.1875 -0.484375 -0.484375q-0.171875 -0.3125 -0.171875 -0.796875q0 -0.421875 0.171875 -0.71875q0.1875 -0.296875 0.484375 -0.46875q0.296875 -0.1875 0.671875 -0.265625q0.375 -0.078125 0.765625 -0.078125q0.515625 0 1.015625 0.109375l0 -0.25q0 -0.21875 -0.046875 -0.421875q-0.046875 -0.203125 -0.1875 -0.375q-0.125 -0.171875 -0.359375 -0.265625q-0.21875 -0.109375 -0.578125 -0.109375q-0.46875 0 -0.8125 0.0625q-0.328125 0.0625 -0.515625 0.125l-0.109375 -0.71875q0.1875 -0.09375 0.609375 -0.15625q0.421875 -0.0625 0.890625 -0.0625zm3.453186 0.25q0.484375 -0.109375 0.953125 -0.171875q0.484375 -0.0625 0.890625 -0.0625q1.0 0 1.5 0.515625q0.515625 0.5 0.515625 1.625l0 2.90625l-0.875 0l0 -2.734375q0 -0.484375 -0.09375 -0.78125q-0.078125 -0.296875 -0.234375 -0.453125q-0.15625 -0.171875 -0.375 -0.234375q-0.21875 -0.0625 -0.46875 -0.0625q-0.21875 0 -0.46875 0.03125q-0.234375 0.015625 -0.453125 0.0625l0 4.171875l-0.890625 0l0 -4.8125zm8.265686 4.359375q-0.15625 0.078125 -0.46875 0.171875q-0.296875 0.09375 -0.703125 0.09375q-0.4375 0 -0.8125 -0.140625q-0.375 -0.140625 -0.671875 -0.4375q-0.28125 -0.296875 -0.453125 -0.734375q-0.15625 -0.453125 -0.15625 -1.078125q0 -0.546875 0.15625 -1.0q0.15625 -0.453125 0.453125 -0.78125q0.296875 -0.328125 0.71875 -0.515625q0.421875 -0.1875 0.96875 -0.1875q0.640625 0 1.09375 0.09375q0.453125 0.09375 0.765625 0.171875l0 4.40625q0 1.15625 -0.59375 1.671875q-0.578125 0.515625 -1.75 0.515625q-0.46875 0 -0.859375 -0.078125q-0.390625 -0.078125 -0.6875 -0.1875l0.15625 -0.78125q0.28125 0.125 0.625 0.1875q0.359375 0.078125 0.796875 0.078125q0.765625 0 1.09375 -0.3125q0.328125 -0.296875 0.328125 -0.984375l0 -0.171875zm0 -3.71875q-0.125 -0.03125 -0.359375 -0.0625q-0.21875 -0.046875 -0.59375 -0.046875q-0.6875 0 -1.046875 0.46875q-0.359375 0.46875 -0.359375 1.25q0 0.421875 0.09375 0.734375q0.109375 0.296875 0.28125 0.5q0.1875 0.1875 0.40625 0.28125q0.21875 0.09375 0.484375 0.09375q0.328125 0 0.609375 -0.09375q0.296875 -0.109375 0.484375 -0.234375l0 -2.890625zm6.218811 4.03125q-0.296875 0.078125 -0.78125 0.15625q-0.46875 0.09375 -1.09375 0.09375q-0.578125 0 -0.953125 -0.15625q-0.359375 -0.171875 -0.59375 -0.46875q-0.234375 -0.3125 -0.34375 -0.71875q-0.09375 -0.421875 -0.09375 -0.921875l0 -2.78125l0.875 0l0 2.578125q0 0.921875 0.265625 1.3125q0.28125 0.375 0.921875 0.375q0.140625 0 0.28125 0q0.140625 -0.015625 0.265625 -0.03125q0.140625 -0.015625 0.234375 -0.03125q0.09375 -0.015625 0.125 -0.03125l0 -4.171875l0.890625 0l0 4.796875zm4.359436 0.265625q-0.46875 0 -0.78125 -0.125q-0.3125 -0.140625 -0.5 -0.390625q-0.171875 -0.265625 -0.25 -0.640625q-0.078125 -0.375 -0.078125 -0.875l0 -4.671875l-1.421875 0l0 -0.75l2.296875 0l0 5.421875q0 0.375 0.046875 0.609375q0.046875 0.234375 0.140625 0.375q0.109375 0.140625 0.25 0.203125q0.15625 0.046875 0.359375 0.046875q0.3125 0 0.578125 -0.078125q0.265625 -0.078125 0.421875 -0.15625l0.125 0.75q-0.0625 0.03125 -0.1875 0.078125q-0.109375 0.046875 -0.28125 0.078125q-0.15625 0.046875 -0.34375 0.078125q-0.1875 0.046875 -0.375 0.046875zm4.437561 -0.75q0.328125 0 0.578125 -0.015625q0.265625 -0.03125 0.4375 -0.0625l0 -1.46875q-0.171875 -0.0625 -0.40625 -0.09375q-0.234375 -0.03125 -0.5 -0.03125q-0.25 0 -0.484375 0.046875q-0.234375 0.03125 -0.421875 0.125q-0.171875 0.09375 -0.296875 0.25q-0.109375 0.15625 -0.109375 0.390625q0 0.484375 0.3125 0.671875q0.328125 0.1875 0.890625 0.1875zm-0.09375 -4.4375q0.5625 0 0.9375 0.140625q0.375 0.140625 0.609375 0.390625q0.234375 0.234375 0.328125 0.59375q0.109375 0.34375 0.109375 0.765625l0 3.09375q-0.3125 0.046875 -0.828125 0.125q-0.5 0.078125 -1.03125 0.078125q-0.40625 0 -0.796875 -0.078125q-0.375 -0.0625 -0.671875 -0.234375q-0.296875 -0.1875 -0.484375 -0.484375q-0.171875 -0.3125 -0.171875 -0.796875q0 -0.421875 0.171875 -0.71875q0.1875 -0.296875 0.484375 -0.46875q0.296875 -0.1875 0.671875 -0.265625q0.375 -0.078125 0.765625 -0.078125q0.515625 0 1.015625 0.109375l0 -0.25q0 -0.21875 -0.046875 -0.421875q-0.046875 -0.203125 -0.1875 -0.375q-0.125 -0.171875 -0.359375 -0.265625q-0.21875 -0.109375 -0.578125 -0.109375q-0.46875 0 -0.8125 0.0625q-0.328125 0.0625 -0.515625 0.125l-0.109375 -0.71875q0.1875 -0.09375 0.609375 -0.15625q0.421875 -0.0625 0.890625 -0.0625zm3.843811 5.0625l0 -4.671875q1.09375 -0.375 2.1875 -0.375q0.34375 0 0.65625 0.03125q0.3125 0.015625 0.6875 0.109375l-0.171875 0.765625q-0.328125 -0.09375 -0.59375 -0.109375q-0.265625 -0.03125 -0.578125 -0.03125q-0.640625 0 -1.3125 0.171875l0 4.109375l-0.875 0z" fill-rule="nonzero"/><path fill="#000000" d="m212.37898 161.89754q0.640625 -0.234375 1.203125 -0.234375q0.3125 0 0.578125 0.09375q0.28125 0.078125 0.46875 0.28125q0.453125 -0.375 0.984375 -0.375q0.25 0 0.46875 0.09375q0.234375 0.09375 0.40625 0.296875q0.1875 0.1875 0.28125 0.46875q0.109375 0.28125 0.109375 0.671875l0 3.515625l-0.796875 0l0 -3.53125q0 -0.390625 -0.171875 -0.59375q-0.171875 -0.203125 -0.421875 -0.203125q-0.125 0 -0.265625 0.0625q-0.140625 0.0625 -0.25 0.203125q0.0625 0.25 0.0625 0.546875l0 1.609375l-0.796875 0l0 -1.625q0 -0.375 -0.125 -0.578125q-0.109375 -0.21875 -0.453125 -0.21875q-0.21875 0 -0.484375 0.09375l0 4.234375l-0.796875 0l0 -4.8125zm7.656311 -0.25q1.0 0 1.53125 0.625q0.546875 0.625 0.546875 1.890625l0 0.3125l-3.53125 0q0.046875 0.765625 0.5 1.171875q0.453125 0.390625 1.28125 0.390625q0.46875 0 0.796875 -0.078125q0.328125 -0.078125 0.5 -0.15625l0.109375 0.75q-0.15625 0.078125 -0.578125 0.171875q-0.40625 0.109375 -0.921875 0.109375q-0.640625 0 -1.125 -0.203125q-0.484375 -0.203125 -0.8125 -0.53125q-0.3125 -0.34375 -0.484375 -0.8125q-0.15625 -0.484375 -0.15625 -1.046875q0 -0.65625 0.203125 -1.140625q0.203125 -0.5 0.53125 -0.8125q0.328125 -0.3125 0.75 -0.46875q0.421875 -0.171875 0.859375 -0.171875zm1.1875 2.109375q0 -0.625 -0.328125 -0.984375q-0.328125 -0.375 -0.875 -0.375q-0.3125 0 -0.5625 0.125q-0.25 0.109375 -0.4375 0.296875q-0.171875 0.1875 -0.28125 0.4375q-0.109375 0.25 -0.140625 0.5l2.625 0zm5.109436 1.71875q0 -0.265625 -0.21875 -0.4375q-0.21875 -0.171875 -0.546875 -0.296875q-0.3125 -0.125 -0.703125 -0.25q-0.375 -0.125 -0.703125 -0.296875q-0.328125 -0.1875 -0.546875 -0.453125q-0.21875 -0.265625 -0.21875 -0.703125q0 -0.59375 0.484375 -0.984375q0.484375 -0.40625 1.515625 -0.40625q0.40625 0 0.84375 0.0625q0.4375 0.0625 0.734375 0.15625l-0.15625 0.78125q-0.078125 -0.046875 -0.234375 -0.09375q-0.140625 -0.046875 -0.34375 -0.078125q-0.1875 -0.03125 -0.40625 -0.046875q-0.21875 -0.03125 -0.421875 -0.03125q-1.15625 0 -1.15625 0.625q0 0.21875 0.21875 0.375q0.21875 0.15625 0.546875 0.28125q0.34375 0.125 0.71875 0.265625q0.390625 0.140625 0.71875 0.328125q0.328125 0.1875 0.546875 0.46875q0.21875 0.265625 0.21875 0.671875q0 0.671875 -0.53125 1.046875q-0.515625 0.375 -1.640625 0.375q-0.515625 0 -0.9375 -0.09375q-0.421875 -0.078125 -0.8125 -0.25l0.171875 -0.796875q0.375 0.15625 0.78125 0.28125q0.40625 0.109375 0.875 0.109375q1.203125 0 1.203125 -0.609375zm2.343811 1.234375l0 -7.234375l0.890625 -0.15625l0 2.515625q0.21875 -0.078125 0.484375 -0.125q0.265625 -0.046875 0.515625 -0.046875q0.5625 0 0.9375 0.171875q0.390625 0.15625 0.609375 0.453125q0.21875 0.296875 0.3125 0.71875q0.109375 0.40625 0.109375 0.90625l0 2.796875l-0.875 0l0 -2.59375q0 -0.921875 -0.265625 -1.296875q-0.25 -0.375 -0.90625 -0.375q-0.28125 0 -0.546875 0.0625q-0.25 0.046875 -0.375 0.09375l0 4.109375l-0.890625 0z" fill-rule="nonzero"/><path fill="#000000" d="m213.37114 172.88191q-1.0 0.765625 -1.515625 1.765625q-0.515625 1.0 -0.515625 2.1875q0 0.59375 0.109375 1.125q0.125 0.53125 0.375 1.03125q0.25 0.484375 0.640625 0.9375q0.390625 0.46875 0.921875 0.921875l-0.46875 0.640625q-1.234375 -0.90625 -1.84375 -2.109375q-0.59375 -1.203125 -0.59375 -2.53125q0 -1.3125 0.609375 -2.515625q0.609375 -1.203125 1.828125 -2.09375l0.46875 0.640625l-0.015625 0zm3.734436 0.171875q0.59375 0 1.03125 0.15625q0.4375 0.140625 0.734375 0.421875q0.296875 0.265625 0.4375 0.640625q0.140625 0.359375 0.140625 0.828125q0 1.03125 -0.609375 1.59375q-0.59375 0.546875 -1.8125 0.546875l-0.765625 0l0 2.46875l-0.875 0l0 -6.5q0.1875 -0.046875 0.40625 -0.078125q0.234375 -0.03125 0.46875 -0.046875q0.234375 -0.03125 0.453125 -0.03125q0.21875 0 0.390625 0zm0.0625 0.75q-0.265625 0 -0.53125 0.015625q-0.25 0 -0.375 0.015625l0 2.671875l0.71875 0q0.796875 0 1.1875 -0.3125q0.390625 -0.328125 0.390625 -1.0625q0 -1.328125 -1.390625 -1.328125zm7.671936 5.15625l0 0.75l-3.9375 0l0 -6.59375l0.875 0l0 5.84375l3.0625 0zm2.656311 0.75l0 -2.453125q-0.640625 -1.0625 -1.171875 -2.078125q-0.53125 -1.015625 -0.921875 -2.0625l0.984375 0q0.296875 0.890625 0.703125 1.703125q0.40625 0.8125 0.859375 1.6875q0.484375 -0.90625 0.859375 -1.71875q0.390625 -0.828125 0.6875 -1.671875l0.96875 0q-0.40625 1.046875 -0.9375 2.046875q-0.515625 0.984375 -1.15625 2.078125l0 2.46875l-0.875 0zm4.312561 1.140625q1.0 -0.765625 1.515625 -1.765625q0.53125 -1.0 0.53125 -2.1875q0 -0.59375 -0.125 -1.125q-0.109375 -0.53125 -0.375 -1.015625q-0.25 -0.5 -0.640625 -0.953125q-0.390625 -0.46875 -0.921875 -0.921875l0.484375 -0.640625q1.21875 0.90625 1.8125 2.109375q0.609375 1.1875 0.609375 2.53125q0 0.65625 -0.15625 1.296875q-0.15625 0.640625 -0.453125 1.234375q-0.296875 0.578125 -0.75 1.109375q-0.453125 0.53125 -1.0625 0.96875l-0.46875 -0.640625l0 0z" fill-rule="nonzero"/><path fill="#e9edee" d="m471.76398 132.94678l79.370056 0l0 60.47696c-39.685028 0 -39.685028 23.042847 -79.370056 9.950317z" fill-rule="evenodd"/><path stroke="#1a1a1a" stroke-width="1.0" stroke-linejoin="round" stroke-linecap="butt" d="m471.76398 132.94678l79.370056 0l0 60.47696c-39.685028 0 -39.685028 23.042847 -79.370056 9.950317z" fill-rule="evenodd"/><path fill="#000000" d="m492.63626 159.80026q0.671875 0 1.015625 -0.25q0.359375 -0.25 0.359375 -0.765625q0 -0.3125 -0.140625 -0.53125q-0.125 -0.21875 -0.34375 -0.375q-0.203125 -0.171875 -0.46875 -0.296875q-0.265625 -0.125 -0.546875 -0.21875q-0.3125 -0.140625 -0.609375 -0.296875q-0.296875 -0.15625 -0.53125 -0.359375q-0.21875 -0.21875 -0.359375 -0.5q-0.125 -0.296875 -0.125 -0.6875q0 -0.875 0.53125 -1.359375q0.546875 -0.484375 1.515625 -0.484375q0.265625 0 0.53125 0.046875q0.265625 0.03125 0.484375 0.09375q0.21875 0.046875 0.390625 0.125q0.1875 0.0625 0.296875 0.140625l-0.28125 0.734375q-0.21875 -0.125 -0.59375 -0.25q-0.359375 -0.125 -0.828125 -0.125q-0.46875 0 -0.828125 0.234375q-0.34375 0.234375 -0.34375 0.71875q0 0.28125 0.09375 0.46875q0.109375 0.1875 0.28125 0.34375q0.171875 0.140625 0.40625 0.265625q0.234375 0.109375 0.515625 0.21875q0.40625 0.171875 0.734375 0.34375q0.34375 0.171875 0.578125 0.40625q0.234375 0.234375 0.359375 0.5625q0.140625 0.3125 0.140625 0.765625q0 0.875 -0.578125 1.34375q-0.578125 0.453125 -1.65625 0.453125q-0.359375 0 -0.671875 -0.046875q-0.296875 -0.046875 -0.546875 -0.125q-0.234375 -0.078125 -0.421875 -0.140625q-0.171875 -0.078125 -0.265625 -0.140625l0.265625 -0.734375q0.203125 0.125 0.609375 0.28125q0.421875 0.140625 1.03125 0.140625zm5.359436 -2.09375q0.296875 0.21875 0.65625 0.546875q0.359375 0.3125 0.71875 0.6875q0.359375 0.375 0.671875 0.765625q0.328125 0.390625 0.515625 0.71875l-1.046875 0q-0.203125 -0.328125 -0.5 -0.671875q-0.296875 -0.34375 -0.640625 -0.65625q-0.328125 -0.328125 -0.671875 -0.59375q-0.328125 -0.265625 -0.59375 -0.453125l0 2.375l-0.890625 0l0 -7.234375l0.890625 -0.15625l0 4.515625q0.59375 -0.515625 1.171875 -1.015625q0.59375 -0.515625 1.0625 -1.046875l1.03125 0q-0.46875 0.53125 -1.109375 1.109375q-0.640625 0.578125 -1.265625 1.109375zm5.562561 -2.34375q1.0 0 1.53125 0.625q0.546875 0.625 0.546875 1.890625l0 0.3125l-3.53125 0q0.046875 0.765625 0.5 1.171875q0.453125 0.390625 1.28125 0.390625q0.46875 0 0.796875 -0.078125q0.328125 -0.078125 0.5 -0.15625l0.109375 0.75q-0.15625 0.078125 -0.578125 0.171875q-0.40625 0.109375 -0.921875 0.109375q-0.640625 0 -1.125 -0.203125q-0.484375 -0.203125 -0.8125 -0.53125q-0.3125 -0.34375 -0.484375 -0.8125q-0.15625 -0.484375 -0.15625 -1.046875q0 -0.65625 0.203125 -1.140625q0.203125 -0.5 0.53125 -0.8125q0.328125 -0.3125 0.75 -0.46875q0.421875 -0.171875 0.859375 -0.171875zm1.1875 2.109375q0 -0.625 -0.328125 -0.984375q-0.328125 -0.375 -0.875 -0.375q-0.3125 0 -0.5625 0.125q-0.25 0.109375 -0.4375 0.296875q-0.171875 0.1875 -0.28125 0.4375q-0.109375 0.25 -0.140625 0.5l2.625 0zm4.984436 3.078125q-0.46875 0 -0.78125 -0.125q-0.3125 -0.140625 -0.5 -0.390625q-0.171875 -0.265625 -0.25 -0.640625q-0.078125 -0.375 -0.078125 -0.875l0 -4.671875l-1.421875 0l0 -0.75l2.296875 0l0 5.421875q0 0.375 0.046875 0.609375q0.046875 0.234375 0.140625 0.375q0.109375 0.140625 0.25 0.203125q0.15625 0.046875 0.359375 0.046875q0.3125 0 0.578125 -0.078125q0.265625 -0.078125 0.421875 -0.15625l0.125 0.75q-0.0625 0.03125 -0.1875 0.078125q-0.109375 0.046875 -0.28125 0.078125q-0.15625 0.046875 -0.34375 0.078125q-0.1875 0.046875 -0.375 0.046875zm4.4844666 -5.1875q1.0 0 1.53125 0.625q0.546875 0.625 0.546875 1.890625l0 0.3125l-3.53125 0q0.046875 0.765625 0.5 1.171875q0.453125 0.390625 1.28125 0.390625q0.46875 0 0.796875 -0.078125q0.328125 -0.078125 0.5 -0.15625l0.109375 0.75q-0.15625 0.078125 -0.578125 0.171875q-0.40625 0.109375 -0.921875 0.109375q-0.640625 0 -1.125 -0.203125q-0.484375 -0.203125 -0.8125 -0.53125q-0.3125 -0.34375 -0.484375 -0.8125q-0.15628052 -0.484375 -0.15628052 -1.046875q0 -0.65625 0.20315552 -1.140625q0.203125 -0.5 0.53125 -0.8125q0.328125 -0.3125 0.75 -0.46875q0.421875 -0.171875 0.859375 -0.171875zm1.1875 2.109375q0 -0.625 -0.328125 -0.984375q-0.328125 -0.375 -0.875 -0.375q-0.3125 0 -0.5625 0.125q-0.25 0.109375 -0.4375 0.296875q-0.171875 0.1875 -0.28125 0.4375q-0.109375 0.25 -0.140625 0.5l2.625 0zm3.968811 -1.984375l2.078125 0l0 0.734375l-2.078125 0l0 2.296875q0 0.375 0.046875 0.609375q0.0625 0.234375 0.171875 0.375q0.125 0.140625 0.3125 0.203125q0.203125 0.046875 0.484375 0.046875q0.375 0 0.609375 -0.0625q0.234375 -0.0625 0.453125 -0.171875l0.125 0.75q-0.15625 0.0625 -0.484375 0.171875q-0.3125 0.109375 -0.796875 0.109375q-0.546875 0 -0.90625 -0.125q-0.34375 -0.140625 -0.546875 -0.390625q-0.203125 -0.265625 -0.28125 -0.640625q-0.0625 -0.375 -0.0625 -0.875l0 -2.296875l-1.046875 0l0 -0.734375l1.046875 0l0 -1.390625l0.875 -0.15625l0 1.546875zm7.640686 2.46875q0 0.578125 -0.171875 1.0625q-0.15625 0.46875 -0.46875 0.8125q-0.296875 0.34375 -0.71875 0.53125q-0.40625 0.1875 -0.890625 0.1875q-0.484375 0 -0.890625 -0.1875q-0.40625 -0.1875 -0.71875 -0.53125q-0.296875 -0.34375 -0.46875 -0.8125q-0.15625 -0.484375 -0.15625 -1.0625q0 -0.59375 0.15625 -1.0625q0.171875 -0.484375 0.46875 -0.8125q0.3125 -0.34375 0.71875 -0.53125q0.40625 -0.1875 0.890625 -0.1875q0.484375 0 0.890625 0.1875q0.421875 0.1875 0.71875 0.53125q0.3125 0.328125 0.46875 0.8125q0.171875 0.46875 0.171875 1.0625zm-0.90625 0q0 -0.84375 -0.375 -1.328125q-0.359375 -0.484375 -0.96875 -0.484375q-0.609375 0 -0.96875 0.484375q-0.359375 0.484375 -0.359375 1.328125q0 0.828125 0.359375 1.3125q0.359375 0.484375 0.96875 0.484375q0.609375 0 0.96875 -0.484375q0.375 -0.484375 0.375 -1.3125zm2.078186 -2.34375q0.484375 -0.109375 0.953125 -0.171875q0.484375 -0.0625 0.890625 -0.0625q1.0 0 1.5 0.515625q0.515625 0.5 0.515625 1.625l0 2.90625l-0.875 0l0 -2.734375q0 -0.484375 -0.09375 -0.78125q-0.078125 -0.296875 -0.234375 -0.453125q-0.15625 -0.171875 -0.375 -0.234375q-0.21875 -0.0625 -0.46875 -0.0625q-0.21875 0 -0.46875 0.03125q-0.234375 0.015625 -0.453125 0.0625l0 4.171875l-0.890625 0l0 -4.8125z" fill-rule="nonzero"/><path fill="#000000" d="m499.5582 166.59714q-1.0 0.765625 -1.515625 1.765625q-0.515625 1.0 -0.515625 2.1875q0 0.59375 0.109375 1.125q0.125 0.53125 0.375 1.03125q0.25 0.484375 0.640625 0.9375q0.390625 0.46875 0.921875 0.921875l-0.46875 0.640625q-1.234375 -0.90625 -1.84375 -2.109375q-0.59375 -1.203125 -0.59375 -2.53125q0 -1.3125 0.609375 -2.515625q0.609375 -1.203125 1.828125 -2.09375l0.46875 0.640625l-0.015625 0zm2.593811 0.984375l0 -0.75l3.109375 0l0 4.46875q0 0.46875 -0.109375 0.890625q-0.09375 0.40625 -0.34375 0.71875q-0.25 0.296875 -0.671875 0.484375q-0.40625 0.171875 -1.046875 0.171875q-0.640625 0 -1.078125 -0.171875q-0.4375 -0.1875 -0.640625 -0.359375l0.34375 -0.71875q0.203125 0.15625 0.53125 0.328125q0.34375 0.15625 0.796875 0.15625q0.6875 0 1.015625 -0.359375q0.34375 -0.359375 0.34375 -1.21875l0 -3.640625l-2.25 0zm6.468811 5.21875q0.671875 0 1.015625 -0.25q0.359375 -0.25 0.359375 -0.765625q0 -0.3125 -0.140625 -0.53125q-0.125 -0.21875 -0.34375 -0.375q-0.203125 -0.171875 -0.46875 -0.296875q-0.265625 -0.125 -0.546875 -0.21875q-0.3125 -0.140625 -0.609375 -0.296875q-0.296875 -0.15625 -0.53125 -0.359375q-0.21875 -0.21875 -0.359375 -0.5q-0.125 -0.296875 -0.125 -0.6875q0 -0.875 0.53125 -1.359375q0.546875 -0.484375 1.515625 -0.484375q0.265625 0 0.53125 0.046875q0.265625 0.03125 0.484375 0.09375q0.21875 0.046875 0.390625 0.125q0.1875 0.0625 0.296875 0.140625l-0.28125 0.734375q-0.21875 -0.125 -0.59375 -0.25q-0.359375 -0.125 -0.828125 -0.125q-0.46875 0 -0.828125 0.234375q-0.34375 0.234375 -0.34375 0.71875q0 0.28125 0.09375 0.46875q0.109375 0.1875 0.28125 0.34375q0.171875 0.140625 0.40625 0.265625q0.234375 0.109375 0.515625 0.21875q0.40625 0.171875 0.734375 0.34375q0.34375 0.171875 0.578125 0.40625q0.234375 0.234375 0.359375 0.5625q0.140625 0.3125 0.140625 0.765625q0 0.875 -0.578125 1.34375q-0.578125 0.453125 -1.65625 0.453125q-0.359375 0 -0.671875 -0.046875q-0.296875 -0.046875 -0.546875 -0.125q-0.234375 -0.078125 -0.421875 -0.140625q-0.171875 -0.078125 -0.265625 -0.140625l0.265625 -0.734375q0.203125 0.125 0.609375 0.28125q0.421875 0.140625 1.03125 0.140625zm3.140686 -2.671875q0 -0.890625 0.171875 -1.53125q0.17190552 -0.65625 0.46878052 -1.078125q0.3125 -0.421875 0.734375 -0.625q0.4375 -0.21875 0.984375 -0.21875q0.515625 0 0.953125 0.21875q0.4375 0.203125 0.734375 0.625q0.3125 0.421875 0.484375 1.078125q0.1875 0.640625 0.1875 1.53125q0 0.875 -0.1875 1.53125q-0.171875 0.640625 -0.484375 1.078125q-0.296875 0.421875 -0.734375 0.625q-0.4375 0.203125 -0.953125 0.203125q-0.546875 0 -0.984375 -0.203125q-0.421875 -0.203125 -0.734375 -0.625q-0.296875 -0.4375 -0.46878052 -1.078125q-0.171875 -0.65625 -0.171875 -1.53125zm0.8906555 0q0 1.296875 0.34375 1.984375q0.359375 0.6875 1.09375 0.6875q0.75 0 1.125 -0.6875q0.375 -0.6875 0.375 -1.984375q0 -1.3125 -0.375 -2.0q-0.375 -0.6875 -1.125 -0.6875q-0.734375 0 -1.09375 0.6875q-0.34375 0.6875 -0.34375 2.0zm7.968811 3.296875q-0.359375 -0.890625 -0.6875 -1.609375q-0.3125 -0.71875 -0.609375 -1.34375q-0.28125 -0.625 -0.578125 -1.1875q-0.28125 -0.5625 -0.578125 -1.125l0 5.265625l-0.796875 0l0 -6.59375l0.890625 0q0.4375 0.796875 0.75 1.390625q0.328125 0.59375 0.59375 1.15625q0.28125 0.5625 0.53125 1.15625q0.265625 0.59375 0.578125 1.359375l0 -5.0625l0.796875 0l0 6.59375l-0.890625 0zm2.703186 1.140625q1.0 -0.765625 1.515625 -1.765625q0.53125 -1.0 0.53125 -2.1875q0 -0.59375 -0.125 -1.125q-0.109375 -0.53125 -0.375 -1.015625q-0.25 -0.5 -0.640625 -0.953125q-0.390625 -0.46875 -0.921875 -0.921875l0.484375 -0.640625q1.21875 0.90625 1.8125 2.109375q0.609375 1.1875 0.609375 2.53125q0 0.65625 -0.15625 1.296875q-0.15625 0.640625 -0.453125 1.234375q-0.296875 0.578125 -0.75 1.109375q-0.453125 0.53125 -1.0625 0.96875l-0.46875 -0.640625l0 0z" fill-rule="nonzero"/><path fill="#f6b26b" d="m600.47327 130.42139l124.14148 0c3.0517578E-4 0 6.1035156E-4 1.0681152E-4 7.9345703E-4 3.3569336E-4c2.4414062E-4 2.1362305E-4 3.6621094E-4 5.0354004E-4 3.6621094E-4 8.087158E-4l-0.001159668 66.6915c0 7.3668365 -5.971985 13.338852 -13.338867 13.338852l-124.14142 0l0 0c-6.713867E-4 0 -0.001159668 -5.187988E-4 -0.001159668 -0.0011444092l0.001159668 -66.69151l0 0c0 -7.3668365 5.971985 -13.338837 13.338806 -13.338837z" fill-rule="evenodd"/><path stroke="#1a1a1a" stroke-width="1.0" stroke-linejoin="round" stroke-linecap="butt" d="m600.47327 130.42139l124.14148 0c3.0517578E-4 0 6.1035156E-4 1.0681152E-4 7.9345703E-4 3.3569336E-4c2.4414062E-4 2.1362305E-4 3.6621094E-4 5.0354004E-4 3.6621094E-4 8.087158E-4l-0.001159668 66.6915c0 7.3668365 -5.971985 13.338852 -13.338867 13.338852l-124.14142 0l0 0c-6.713867E-4 0 -0.001159668 -5.187988E-4 -0.001159668 -0.0011444092l0.001159668 -66.69151l0 0c0 -7.3668365 5.971985 -13.338837 13.338806 -13.338837z" fill-rule="evenodd"/><path fill="#000000" d="m627.9097 166.51588l-3.546875 0l0 9.78125l-1.953125 0l0 -9.78125l-3.515625 0l0 -1.59375l9.015625 0l0 1.59375zm5.234375 3.0625q-0.375 -0.0625 -0.78125 -0.0625q-1.296875 0 -1.75 1.0l0 5.78125l-1.90625 0l0 -8.453125l1.8125 0l0.046875 0.9375q0.6875 -1.09375 1.90625 -1.09375q0.40625 0 0.671875 0.109375l0 1.78125zm4.7734375 6.875q-1.8125 0 -2.9375 -1.140625q-1.109375 -1.140625 -1.109375 -3.03125l0 -0.234375q0 -1.265625 0.484375 -2.25q0.484375 -1.0 1.359375 -1.546875q0.890625 -0.5625 1.984375 -0.5625q1.71875 0 2.65625 1.109375q0.953125 1.09375 0.953125 3.109375l0 0.765625l-5.53125 0q0.09375 1.046875 0.703125 1.65625q0.609375 0.609375 1.546875 0.609375q1.296875 0 2.125 -1.0625l1.015625 0.984375q-0.5 0.75 -1.359375 1.171875q-0.84375 0.421875 -1.890625 0.421875zm-0.234375 -7.25q-0.78125 0 -1.265625 0.546875q-0.46875 0.546875 -0.609375 1.53125l3.625 0l0 -0.140625q-0.0625 -0.953125 -0.515625 -1.4375q-0.4375 -0.5 -1.234375 -0.5zm8.8203125 7.25q-1.8125 0 -2.9375 -1.140625q-1.109375 -1.140625 -1.109375 -3.03125l0 -0.234375q0 -1.265625 0.484375 -2.25q0.484375 -1.0 1.359375 -1.546875q0.890625 -0.5625 1.984375 -0.5625q1.71875 0 2.65625 1.109375q0.953125 1.09375 0.953125 3.109375l0 0.765625l-5.53125 0q0.09375 1.046875 0.703125 1.65625q0.609375 0.609375 1.546875 0.609375q1.296875 0 2.125 -1.0625l1.015625 0.984375q-0.5 0.75 -1.359375 1.171875q-0.84375 0.421875 -1.890625 0.421875zm-0.234375 -7.25q-0.78125 0 -1.265625 0.546875q-0.46875 0.546875 -0.609375 1.53125l3.625 0l0 -0.140625q-0.0625 -0.953125 -0.515625 -1.4375q-0.4375 -0.5 -1.234375 -0.5zm13.9921875 5.609375q-0.609375 0.8125 -1.703125 1.234375q-1.09375 0.40625 -2.484375 0.40625q-1.4375 0 -2.546875 -0.640625q-1.09375 -0.65625 -1.6875 -1.859375q-0.59375 -1.21875 -0.625 -2.828125l0 -0.890625q0 -2.578125 1.234375 -4.015625q1.234375 -1.453125 3.453125 -1.453125q1.890625 0 3.0 0.9375q1.125 0.9375 1.359375 2.703125l-1.9375 0q-0.328125 -2.0625 -2.390625 -2.0625q-1.328125 0 -2.015625 0.96875q-0.6875 0.953125 -0.71875 2.796875l0 0.875q0 1.84375 0.78125 2.875q0.78125 1.015625 2.15625 1.015625q1.515625 0 2.15625 -0.6875l0 -2.234375l-2.34375 0l0 -1.5l4.3125 0l0 4.359375zm6.421875 -5.234375q-0.375 -0.0625 -0.78125 -0.0625q-1.296875 0 -1.75 1.0l0 5.78125l-1.90625 0l0 -8.453125l1.8125 0l0.046875 0.9375q0.6875 -1.09375 1.90625 -1.09375q0.40625 0 0.671875 0.109375l0 1.78125zm6.015625 6.71875q-0.125 -0.25 -0.21875 -0.796875q-0.90625 0.953125 -2.21875 0.953125q-1.28125 0 -2.09375 -0.71875q-0.796875 -0.734375 -0.796875 -1.8125q0 -1.34375 1.0 -2.0625q1.015625 -0.734375 2.875 -0.734375l1.171875 0l0 -0.546875q0 -0.65625 -0.375 -1.046875q-0.359375 -0.40625 -1.109375 -0.40625q-0.65625 0 -1.078125 0.328125q-0.40625 0.328125 -0.40625 0.828125l-1.890625 0q0 -0.703125 0.453125 -1.296875q0.46875 -0.609375 1.25 -0.953125q0.796875 -0.34375 1.78125 -0.34375q1.484375 0 2.359375 0.75q0.890625 0.734375 0.90625 2.09375l0 3.8125q0 1.140625 0.328125 1.8125l0 0.140625l-1.9375 0zm-2.09375 -1.375q0.5625 0 1.0625 -0.265625q0.5 -0.28125 0.75 -0.734375l0 -1.59375l-1.03125 0q-1.046875 0 -1.578125 0.375q-0.53125 0.359375 -0.53125 1.03125q0 0.546875 0.359375 0.875q0.359375 0.3125 0.96875 0.3125zm13.09375 -2.765625q0 1.953125 -0.890625 3.125q-0.890625 1.171875 -2.390625 1.171875q-1.390625 0 -2.21875 -0.921875l0 4.015625l-1.90625 0l0 -11.703125l1.75 0l0.078125 0.859375q0.84375 -1.015625 2.28125 -1.015625q1.546875 0 2.421875 1.15625q0.875 1.140625 0.875 3.1875l0 0.125zm-1.890625 -0.171875q0 -1.265625 -0.5 -2.0q-0.5 -0.75 -1.4375 -0.75q-1.171875 0 -1.671875 0.96875l0 3.75q0.515625 0.984375 1.6875 0.984375q0.90625 0 1.40625 -0.734375q0.515625 -0.734375 0.515625 -2.21875zm5.3671875 -3.21875q0.9375 -1.078125 2.359375 -1.078125q2.703125 0 2.734375 3.078125l0 5.53125l-1.890625 0l0 -5.453125q0 -0.875 -0.390625 -1.234375q-0.375 -0.375 -1.109375 -0.375q-1.140625 0 -1.703125 1.015625l0 6.046875l-1.890625 0l0 -12.0l1.890625 0l0 4.46875z" fill-rule="nonzero"/><path fill="#000000" fill-opacity="0.0" d="m551.13403 170.65323l36.0 -0.22047424" fill-rule="evenodd"/><path stroke="#1a1a1a" stroke-width="3.0" stroke-linejoin="round" stroke-linecap="butt" d="m551.13403 170.65323l18.000366 -0.11022949" fill-rule="evenodd"/><path fill="#1a1a1a" stroke="#1a1a1a" stroke-width="3.0" stroke-linecap="butt" d="m569.16473 175.49811l13.583679 -5.0384827l-13.644348 -4.8717346z" fill-rule="evenodd"/><path fill="#000000" fill-opacity="0.0" d="m724.61475 170.43713l36.0 0.44093323" fill-rule="evenodd"/><path stroke="#1a1a1a" stroke-width="3.0" stroke-linejoin="round" stroke-linecap="butt" d="m724.61475 170.43713l18.001343 0.2204895" fill-rule="evenodd"/><path fill="#1a1a1a" stroke="#1a1a1a" stroke-width="3.0" stroke-linecap="butt" d="m742.5554 175.61244l13.67395 -4.788086l-13.552612 -5.121567z" fill-rule="evenodd"/><path fill="#e9edee" d="m760.6151 133.16718l79.37012 0l0 60.476974c-39.68506 0 -39.68506 23.042831 -79.37012 9.950302z" fill-rule="evenodd"/><path stroke="#1a1a1a" stroke-width="1.0" stroke-linejoin="round" stroke-linecap="butt" d="m760.6151 133.16718l79.37012 0l0 60.476974c-39.68506 0 -39.68506 23.042831 -79.37012 9.950302z" fill-rule="evenodd"/><path fill="#000000" d="m781.22955 154.05191l0 0.75l-1.8125 0l0 5.84375l-0.859375 0l0 -5.84375l-1.8125 0l0 -0.75l4.484375 0zm1.562561 6.59375l0 -4.671875q1.09375 -0.375 2.1875 -0.375q0.34375 0 0.65625 0.03125q0.3125 0.015625 0.6875 0.109375l-0.171875 0.765625q-0.328125 -0.09375 -0.59375 -0.109375q-0.265625 -0.03125 -0.578125 -0.03125q-0.640625 0 -1.3125 0.171875l0 4.109375l-0.875 0zm6.953186 -5.0625q1.0 0 1.53125 0.625q0.546875 0.625 0.546875 1.890625l0 0.3125l-3.53125 0q0.046875 0.765625 0.5 1.171875q0.453125 0.390625 1.28125 0.390625q0.46875 0 0.796875 -0.078125q0.328125 -0.078125 0.5 -0.15625l0.109375 0.75q-0.15625 0.078125 -0.578125 0.171875q-0.40625 0.109375 -0.921875 0.109375q-0.640625 0 -1.125 -0.203125q-0.484375 -0.203125 -0.8125 -0.53125q-0.3125 -0.34375 -0.484375 -0.8125q-0.15625 -0.484375 -0.15625 -1.046875q0 -0.65625 0.203125 -1.140625q0.203125 -0.5 0.53125 -0.8125q0.328125 -0.3125 0.75 -0.46875q0.421875 -0.171875 0.859375 -0.171875zm1.1875 2.109375q0 -0.625 -0.328125 -0.984375q-0.328125 -0.375 -0.875 -0.375q-0.3125 0 -0.5625 0.125q-0.25 0.109375 -0.4375 0.296875q-0.171875 0.1875 -0.28125 0.4375q-0.109375 0.25 -0.140625 0.5l2.625 0zm4.140686 -2.109375q1.0 0 1.53125 0.625q0.546875 0.625 0.546875 1.890625l0 0.3125l-3.53125 0q0.046875 0.765625 0.5 1.171875q0.453125 0.390625 1.28125 0.390625q0.46875 0 0.796875 -0.078125q0.328125 -0.078125 0.5 -0.15625l0.109375 0.75q-0.15625 0.078125 -0.578125 0.171875q-0.40625 0.109375 -0.921875 0.109375q-0.640625 0 -1.125 -0.203125q-0.484375 -0.203125 -0.8125 -0.53125q-0.3125 -0.34375 -0.484375 -0.8125q-0.15625 -0.484375 -0.15625 -1.046875q0 -0.65625 0.203125 -1.140625q0.203125 -0.5 0.53125 -0.8125q0.328125 -0.3125 0.75 -0.46875q0.421875 -0.171875 0.859375 -0.171875zm1.1875 2.109375q0 -0.625 -0.328125 -0.984375q-0.328125 -0.375 -0.875 -0.375q-0.3125 0 -0.5625 0.125q-0.25 0.109375 -0.4375 0.296875q-0.171875 0.1875 -0.28125 0.4375q-0.109375 0.25 -0.140625 0.5l2.625 0zm5.343811 -0.296875l0.875 0l0 3.09375q-0.203125 0.078125 -0.65625 0.1875q-0.4375 0.109375 -1.046875 0.109375q-0.59375 0 -1.09375 -0.21875q-0.484375 -0.234375 -0.828125 -0.671875q-0.34375 -0.4375 -0.546875 -1.078125q-0.1875 -0.65625 -0.1875 -1.46875q0 -0.84375 0.21875 -1.46875q0.21875 -0.640625 0.578125 -1.078125q0.375 -0.4375 0.859375 -0.671875q0.484375 -0.234375 1.0625 -0.234375q0.359375 0 0.625 0.0625q0.28125 0.046875 0.46875 0.125q0.203125 0.078125 0.328125 0.15625q0.140625 0.078125 0.203125 0.125l-0.28125 0.734375q-0.25 -0.203125 -0.59375 -0.3125q-0.328125 -0.125 -0.703125 -0.125q-0.40625 0 -0.75 0.1875q-0.34375 0.1875 -0.59375 0.546875q-0.25 0.34375 -0.390625 0.84375q-0.125 0.5 -0.125 1.109375q0 0.59375 0.109375 1.09375q0.125 0.484375 0.359375 0.84375q0.234375 0.34375 0.578125 0.546875q0.359375 0.1875 0.796875 0.1875q0.3125 0 0.484375 -0.046875q0.171875 -0.046875 0.25 -0.078125l0 -2.5zm2.500061 3.25l0 -4.671875q1.09375 -0.375 2.1875 -0.375q0.34375 0 0.65625 0.03125q0.3125 0.015625 0.6875 0.109375l-0.171875 0.765625q-0.328125 -0.09375 -0.59375 -0.109375q-0.265625 -0.03125 -0.578125 -0.03125q-0.640625 0 -1.3125 0.171875l0 4.109375l-0.875 0zm6.906311 -0.625q0.328125 0 0.578125 -0.015625q0.265625 -0.03125 0.4375 -0.0625l0 -1.46875q-0.171875 -0.0625 -0.40625 -0.09375q-0.234375 -0.03125 -0.5 -0.03125q-0.25 0 -0.484375 0.046875q-0.234375 0.03125 -0.421875 0.125q-0.171875 0.09375 -0.296875 0.25q-0.109375 0.15625 -0.109375 0.390625q0 0.484375 0.3125 0.671875q0.328125 0.1875 0.890625 0.1875zm-0.09375 -4.4375q0.5625 0 0.9375 0.140625q0.375 0.140625 0.609375 0.390625q0.234375 0.234375 0.328125 0.59375q0.109375 0.34375 0.109375 0.765625l0 3.09375q-0.3125 0.046875 -0.828125 0.125q-0.5 0.078125 -1.03125 0.078125q-0.40625 0 -0.796875 -0.078125q-0.375 -0.0625 -0.671875 -0.234375q-0.296875 -0.1875 -0.484375 -0.484375q-0.171875 -0.3125 -0.171875 -0.796875q0 -0.421875 0.171875 -0.71875q0.1875 -0.296875 0.484375 -0.46875q0.296875 -0.1875 0.671875 -0.265625q0.375 -0.078125 0.765625 -0.078125q0.515625 0 1.015625 0.109375l0 -0.25q0 -0.21875 -0.046875 -0.421875q-0.046875 -0.203125 -0.1875 -0.375q-0.125 -0.171875 -0.359375 -0.265625q-0.21875 -0.109375 -0.578125 -0.109375q-0.46875 0 -0.8125 0.0625q-0.328125 0.0625 -0.515625 0.125l-0.109375 -0.71875q0.1875 -0.09375 0.609375 -0.15625q0.421875 -0.0625 0.890625 -0.0625zm6.703186 2.59375q0 -0.859375 -0.40625 -1.328125q-0.40625 -0.46875 -1.0625 -0.46875q-0.359375 0 -0.5625 0.03125q-0.203125 0.03125 -0.328125 0.0625l0 3.125q0.15625 0.140625 0.4375 0.265625q0.28125 0.109375 0.59375 0.109375q0.359375 0 0.609375 -0.140625q0.25 -0.140625 0.40625 -0.375q0.15625 -0.234375 0.234375 -0.5625q0.078125 -0.328125 0.078125 -0.71875zm0.90625 0q0 0.578125 -0.15625 1.046875q-0.140625 0.46875 -0.40625 0.8125q-0.265625 0.34375 -0.671875 0.546875q-0.390625 0.1875 -0.890625 0.1875q-0.390625 0 -0.6875 -0.109375q-0.296875 -0.09375 -0.453125 -0.203125l0 1.953125l-0.890625 0l0 -6.5625q0.296875 -0.078125 0.75 -0.15625q0.453125 -0.09375 1.03125 -0.09375q0.53125 0 0.96875 0.1875q0.4375 0.171875 0.75 0.515625q0.3125 0.328125 0.484375 0.8125q0.171875 0.46875 0.171875 1.0625zm1.171936 2.46875l0 -7.234375l0.890625 -0.15625l0 2.515625q0.21875 -0.078125 0.484375 -0.125q0.265625 -0.046875 0.515625 -0.046875q0.5625 0 0.9375 0.171875q0.390625 0.15625 0.609375 0.453125q0.21875 0.296875 0.3125 0.71875q0.109375 0.40625 0.109375 0.90625l0 2.796875l-0.875 0l0 -2.59375q0 -0.921875 -0.265625 -1.296875q-0.25 -0.375 -0.90625 -0.375q-0.28125 0 -0.546875 0.0625q-0.25 0.046875 -0.375 0.09375l0 4.109375l-0.890625 0z" fill-rule="nonzero"/><path fill="#000000" d="m788.40936 166.81754q-1.0 0.765625 -1.515625 1.765625q-0.515625 1.0 -0.515625 2.1875q0 0.59375 0.109375 1.125q0.125 0.53125 0.375 1.03125q0.25 0.484375 0.640625 0.9375q0.390625 0.46875 0.921875 0.921875l-0.46875 0.640625q-1.234375 -0.90625 -1.84375 -2.109375q-0.59375 -1.203125 -0.59375 -2.53125q0 -1.3125 0.609375 -2.515625q0.609375 -1.203125 1.828125 -2.09375l0.46875 0.640625l-0.015625 0zm2.593811 0.984375l0 -0.75l3.109375 0l0 4.46875q0 0.46875 -0.109375 0.890625q-0.09375 0.40625 -0.34375 0.71875q-0.25 0.296875 -0.671875 0.484375q-0.40625 0.171875 -1.046875 0.171875q-0.640625 0 -1.078125 -0.171875q-0.4375 -0.1875 -0.640625 -0.359375l0.34375 -0.71875q0.203125 0.15625 0.53125 0.328125q0.34375 0.15625 0.796875 0.15625q0.6875 0 1.015625 -0.359375q0.34375 -0.359375 0.34375 -1.21875l0 -3.640625l-2.25 0zm6.468811 5.21875q0.671875 0 1.015625 -0.25q0.359375 -0.25 0.359375 -0.765625q0 -0.3125 -0.140625 -0.53125q-0.125 -0.21875 -0.34375 -0.375q-0.203125 -0.171875 -0.46875 -0.296875q-0.265625 -0.125 -0.546875 -0.21875q-0.3125 -0.140625 -0.609375 -0.296875q-0.296875 -0.15625 -0.53125 -0.359375q-0.21875 -0.21875 -0.359375 -0.5q-0.125 -0.296875 -0.125 -0.6875q0 -0.875 0.53125 -1.359375q0.546875 -0.484375 1.515625 -0.484375q0.265625 0 0.53125 0.046875q0.265625 0.03125 0.484375 0.09375q0.21875 0.046875 0.390625 0.125q0.1875 0.0625 0.296875 0.140625l-0.28125 0.734375q-0.21875 -0.125 -0.59375 -0.25q-0.359375 -0.125 -0.828125 -0.125q-0.46875 0 -0.828125 0.234375q-0.34375 0.234375 -0.34375 0.71875q0 0.28125 0.09375 0.46875q0.109375 0.1875 0.28125 0.34375q0.171875 0.140625 0.40625 0.265625q0.234375 0.109375 0.515625 0.21875q0.40625 0.171875 0.734375 0.34375q0.34375 0.171875 0.578125 0.40625q0.234375 0.234375 0.359375 0.5625q0.140625 0.3125 0.140625 0.765625q0 0.875 -0.578125 1.34375q-0.578125 0.453125 -1.65625 0.453125q-0.359375 0 -0.671875 -0.046875q-0.296875 -0.046875 -0.546875 -0.125q-0.234375 -0.078125 -0.421875 -0.140625q-0.171875 -0.078125 -0.265625 -0.140625l0.265625 -0.734375q0.203125 0.125 0.609375 0.28125q0.421875 0.140625 1.03125 0.140625zm3.140686 -2.671875q0 -0.890625 0.171875 -1.53125q0.171875 -0.65625 0.46875 -1.078125q0.3125 -0.421875 0.734375 -0.625q0.4375 -0.21875 0.984375 -0.21875q0.515625 0 0.953125 0.21875q0.4375 0.203125 0.734375 0.625q0.3125 0.421875 0.484375 1.078125q0.1875 0.640625 0.1875 1.53125q0 0.875 -0.1875 1.53125q-0.171875 0.640625 -0.484375 1.078125q-0.296875 0.421875 -0.734375 0.625q-0.4375 0.203125 -0.953125 0.203125q-0.546875 0 -0.984375 -0.203125q-0.421875 -0.203125 -0.734375 -0.625q-0.296875 -0.4375 -0.46875 -1.078125q-0.171875 -0.65625 -0.171875 -1.53125zm0.890625 0q0 1.296875 0.34375 1.984375q0.359375 0.6875 1.09375 0.6875q0.75 0 1.125 -0.6875q0.375 -0.6875 0.375 -1.984375q0 -1.3125 -0.375 -2.0q-0.375 -0.6875 -1.125 -0.6875q-0.734375 0 -1.09375 0.6875q-0.34375 0.6875 -0.34375 2.0zm7.968811 3.296875q-0.359375 -0.890625 -0.6875 -1.609375q-0.3125 -0.71875 -0.609375 -1.34375q-0.28125 -0.625 -0.578125 -1.1875q-0.28125 -0.5625 -0.578125 -1.125l0 5.265625l-0.796875 0l0 -6.59375l0.890625 0q0.4375 0.796875 0.75 1.390625q0.328125 0.59375 0.59375 1.15625q0.28125 0.5625 0.53125 1.15625q0.265625 0.59375 0.578125 1.359375l0 -5.0625l0.796875 0l0 6.59375l-0.890625 0zm2.703186 1.140625q1.0 -0.765625 1.515625 -1.765625q0.53125 -1.0 0.53125 -2.1875q0 -0.59375 -0.125 -1.125q-0.109375 -0.53125 -0.375 -1.015625q-0.25 -0.5 -0.640625 -0.953125q-0.390625 -0.46875 -0.921875 -0.921875l0.484375 -0.640625q1.21875 0.90625 1.8125 2.109375q0.609375 1.1875 0.609375 2.53125q0 0.65625 -0.15625 1.296875q-0.15625 0.640625 -0.453125 1.234375q-0.296875 0.578125 -0.75 1.109375q-0.453125 0.53125 -1.0625 0.96875l-0.46875 -0.640625l0 0z" fill-rule="nonzero"/><path fill="#e9edee" d="m428.6164 245.33476l94.49005 0l0 73.24797c-47.245026 0 -47.245026 27.908813 -94.49005 12.051544z" fill-rule="evenodd"/><path stroke="#1a1a1a" stroke-width="1.0" stroke-linejoin="round" stroke-linecap="butt" d="m428.6164 245.33476l94.49005 0l0 73.24797c-47.245026 0 -47.245026 27.908813 -94.49005 12.051544z" fill-rule="evenodd"/><path fill="#000000" d="m453.533 272.69876l-0.40625 -1.71875l-2.53125 0l-0.390625 1.71875l-0.890625 0q0.1875 -0.703125 0.40625 -1.515625q0.21875 -0.828125 0.484375 -1.6875q0.265625 -0.875 0.546875 -1.734375q0.296875 -0.875 0.609375 -1.65625l1.09375 0q0.296875 0.78125 0.578125 1.65625q0.296875 0.859375 0.546875 1.734375q0.25 0.859375 0.46875 1.6875q0.21875 0.8125 0.40625 1.515625l-0.921875 0zm-1.65625 -5.828125q-0.25 0.671875 -0.546875 1.5625q-0.28125 0.875 -0.53125 1.8125l2.125 0q-0.234375 -0.953125 -0.515625 -1.84375q-0.28125 -0.890625 -0.53125 -1.53125zm3.421936 1.015625q0.484375 -0.109375 0.953125 -0.171875q0.484375 -0.0625 0.890625 -0.0625q1.0 0 1.5 0.515625q0.515625 0.5 0.515625 1.625l0 2.90625l-0.875 0l0 -2.734375q0 -0.484375 -0.09375 -0.78125q-0.078125 -0.296875 -0.234375 -0.453125q-0.15625 -0.171875 -0.375 -0.234375q-0.21875 -0.0625 -0.46875 -0.0625q-0.21875 0 -0.46875 0.03125q-0.234375 0.015625 -0.453125 0.0625l0 4.171875l-0.890625 0l0 -4.8125zm8.265686 4.359375q-0.15625 0.078125 -0.46875 0.171875q-0.296875 0.09375 -0.703125 0.09375q-0.4375 0 -0.8125 -0.140625q-0.375 -0.140625 -0.671875 -0.4375q-0.28125 -0.296875 -0.453125 -0.734375q-0.15625 -0.453125 -0.15625 -1.078125q0 -0.546875 0.15625 -1.0q0.15625 -0.453125 0.453125 -0.78125q0.296875 -0.328125 0.71875 -0.515625q0.421875 -0.1875 0.96875 -0.1875q0.640625 0 1.09375 0.09375q0.453125 0.09375 0.765625 0.171875l0 4.40625q0 1.15625 -0.59375 1.671875q-0.578125 0.515625 -1.75 0.515625q-0.46875 0 -0.859375 -0.078125q-0.390625 -0.078125 -0.6875 -0.1875l0.15625 -0.78125q0.28125 0.125 0.625 0.1875q0.359375 0.078125 0.796875 0.078125q0.765625 0 1.09375 -0.3125q0.328125 -0.296875 0.328125 -0.984375l0 -0.171875zm0 -3.71875q-0.125 -0.03125 -0.359375 -0.0625q-0.21875 -0.046875 -0.59375 -0.046875q-0.6875 0 -1.046875 0.46875q-0.359375 0.46875 -0.359375 1.25q0 0.421875 0.09375 0.734375q0.109375 0.296875 0.28125 0.5q0.1875 0.1875 0.40625 0.28125q0.21875 0.09375 0.484375 0.09375q0.328125 0 0.609375 -0.09375q0.296875 -0.109375 0.484375 -0.234375l0 -2.890625zm5.250061 4.296875q-0.46875 0 -0.78125 -0.125q-0.3125 -0.140625 -0.5 -0.390625q-0.171875 -0.265625 -0.25 -0.640625q-0.078125 -0.375 -0.078125 -0.875l0 -4.671875l-1.421875 0l0 -0.75l2.296875 0l0 5.421875q0 0.375 0.046875 0.609375q0.046875 0.234375 0.140625 0.375q0.109375 0.140625 0.25 0.203125q0.15625 0.046875 0.359375 0.046875q0.3125 0 0.578125 -0.078125q0.265625 -0.078125 0.421875 -0.15625l0.125 0.75q-0.0625 0.03125 -0.1875 0.078125q-0.109375 0.046875 -0.28125 0.078125q-0.15625 0.046875 -0.34375 0.078125q-0.1875 0.046875 -0.375 0.046875zm4.484436 -5.1875q1.0 0 1.53125 0.625q0.546875 0.625 0.546875 1.890625l0 0.3125l-3.53125 0q0.046875 0.765625 0.5 1.171875q0.453125 0.390625 1.28125 0.390625q0.46875 0 0.796875 -0.078125q0.328125 -0.078125 0.5 -0.15625l0.109375 0.75q-0.15625 0.078125 -0.578125 0.171875q-0.40625 0.109375 -0.921875 0.109375q-0.640625 0 -1.125 -0.203125q-0.484375 -0.203125 -0.8125 -0.53125q-0.3125 -0.34375 -0.484375 -0.8125q-0.15625 -0.484375 -0.15625 -1.046875q0 -0.65625 0.203125 -1.140625q0.203125 -0.5 0.53125 -0.8125q0.328125 -0.3125 0.75 -0.46875q0.421875 -0.171875 0.859375 -0.171875zm1.1875 2.109375q0 -0.625 -0.328125 -0.984375q-0.328125 -0.375 -0.875 -0.375q-0.3125 0 -0.5625 0.125q-0.25 0.109375 -0.4375 0.296875q-0.171875 0.1875 -0.28125 0.4375q-0.109375 0.25 -0.140625 0.5l2.625 0zm5.109436 1.71875q0 -0.265625 -0.21875 -0.4375q-0.21875 -0.171875 -0.546875 -0.296875q-0.3125 -0.125 -0.703125 -0.25q-0.375 -0.125 -0.703125 -0.296875q-0.328125 -0.1875 -0.546875 -0.453125q-0.21875 -0.265625 -0.21875 -0.703125q0 -0.59375 0.484375 -0.984375q0.484375 -0.40625 1.515625 -0.40625q0.40625 0 0.84375 0.0625q0.4375 0.0625 0.734375 0.15625l-0.15625 0.78125q-0.078125 -0.046875 -0.234375 -0.09375q-0.140625 -0.046875 -0.34375 -0.078125q-0.1875 -0.03125 -0.40625 -0.046875q-0.21875 -0.03125 -0.421875 -0.03125q-1.15625 0 -1.15625 0.625q0 0.21875 0.21875 0.375q0.21875 0.15625 0.546875 0.28125q0.34375 0.125 0.71875 0.265625q0.390625 0.140625 0.71875 0.328125q0.328125 0.1875 0.546875 0.46875q0.21875 0.265625 0.21875 0.671875q0 0.671875 -0.53125 1.046875q-0.515625 0.375 -1.640625 0.375q-0.515625 0 -0.9375 -0.09375q-0.421875 -0.078125 -0.8125 -0.25l0.171875 -0.796875q0.375 0.15625 0.78125 0.28125q0.40625 0.109375 0.875 0.109375q1.203125 0 1.203125 -0.609375zm9.640747 0.609375q0.328125 0 0.578125 -0.015625q0.265625 -0.03125 0.4375 -0.0625l0 -1.46875q-0.171875 -0.0625 -0.40625 -0.09375q-0.234375 -0.03125 -0.5 -0.03125q-0.25 0 -0.484375 0.046875q-0.234375 0.03125 -0.421875 0.125q-0.171875 0.09375 -0.296875 0.25q-0.109375 0.15625 -0.109375 0.390625q0 0.484375 0.3125 0.671875q0.328125 0.1875 0.890625 0.1875zm-0.09375 -4.4375q0.5625 0 0.9375 0.140625q0.375 0.140625 0.609375 0.390625q0.234375 0.234375 0.328125 0.59375q0.109375 0.34375 0.109375 0.765625l0 3.09375q-0.3125 0.046875 -0.828125 0.125q-0.5 0.078125 -1.03125 0.078125q-0.40625 0 -0.796875 -0.078125q-0.375 -0.0625 -0.671875 -0.234375q-0.296875 -0.1875 -0.484375 -0.484375q-0.171875 -0.3125 -0.171875 -0.796875q0 -0.421875 0.171875 -0.71875q0.1875 -0.296875 0.484375 -0.46875q0.296875 -0.1875 0.671875 -0.265625q0.375 -0.078125 0.765625 -0.078125q0.515625 0 1.015625 0.109375l0 -0.25q0 -0.21875 -0.046875 -0.421875q-0.046875 -0.203125 -0.1875 -0.375q-0.125 -0.171875 -0.359375 -0.265625q-0.21875 -0.109375 -0.578125 -0.109375q-0.46875 0 -0.8125 0.0625q-0.328125 0.0625 -0.515625 0.125l-0.109375 -0.71875q0.1875 -0.09375 0.609375 -0.15625q0.421875 -0.0625 0.890625 -0.0625zm3.453186 0.25q0.484375 -0.109375 0.953125 -0.171875q0.484375 -0.0625 0.890625 -0.0625q1.0 0 1.5 0.515625q0.515625 0.5 0.515625 1.625l0 2.90625l-0.875 0l0 -2.734375q0 -0.484375 -0.09375 -0.78125q-0.078125 -0.296875 -0.234375 -0.453125q-0.15625 -0.171875 -0.375 -0.234375q-0.21875 -0.0625 -0.46875 -0.0625q-0.21875 0 -0.46875 0.03125q-0.234375 0.015625 -0.453125 0.0625l0 4.171875l-0.890625 0l0 -4.8125zm8.265686 0.90625q-0.15625 -0.125 -0.4375 -0.25q-0.28125 -0.125 -0.59375 -0.125q-0.359375 0 -0.609375 0.140625q-0.25 0.140625 -0.40625 0.375q-0.15625 0.234375 -0.234375 0.578125q-0.078125 0.328125 -0.078125 0.71875q0 0.859375 0.40625 1.328125q0.40625 0.46875 1.0625 0.46875q0.328125 0 0.546875 -0.03125q0.234375 -0.03125 0.34375 -0.0625l0 -3.140625zm0 -3.328125l0.890625 -0.15625l0 7.25q-0.296875 0.09375 -0.75 0.171875q-0.4375 0.09375 -1.03125 0.09375q-0.53125 0 -0.96875 -0.1875q-0.4375 -0.1875 -0.75 -0.515625q-0.3125 -0.34375 -0.484375 -0.8125q-0.171875 -0.484375 -0.171875 -1.078125q0 -0.578125 0.140625 -1.046875q0.15625 -0.484375 0.421875 -0.8125q0.28125 -0.34375 0.671875 -0.53125q0.390625 -0.203125 0.890625 -0.203125q0.390625 0 0.6875 0.09375q0.296875 0.09375 0.453125 0.203125l0 -2.46875z" fill-rule="nonzero"/><path fill="#000000" d="m451.45486 279.98q-0.28125 0 -0.484375 -0.1875q-0.203125 -0.1875 -0.203125 -0.515625q0 -0.328125 0.203125 -0.515625q0.203125 -0.203125 0.484375 -0.203125q0.28125 0 0.46875 0.203125q0.203125 0.1875 0.203125 0.515625q0 0.328125 -0.203125 0.515625q-0.1875 0.1875 -0.46875 0.1875zm-0.234375 1.515625l-1.421875 0l0 -0.734375l2.296875 0l0 3.03125q0 0.734375 0.203125 0.984375q0.203125 0.25 0.609375 0.25q0.3125 0 0.5625 -0.078125q0.265625 -0.078125 0.421875 -0.15625l0.125 0.75q-0.0625 0.03125 -0.1875 0.078125q-0.109375 0.046875 -0.265625 0.078125q-0.15625 0.046875 -0.34375 0.078125q-0.1875 0.046875 -0.390625 0.046875q-0.46875 0 -0.78125 -0.125q-0.296875 -0.140625 -0.484375 -0.390625q-0.1875 -0.265625 -0.265625 -0.640625q-0.078125 -0.375 -0.078125 -0.875l0 -2.296875zm4.078186 -0.609375q0.484375 -0.109375 0.953125 -0.171875q0.484375 -0.0625 0.890625 -0.0625q1.0 0 1.5 0.515625q0.515625 0.5 0.515625 1.625l0 2.90625l-0.875 0l0 -2.734375q0 -0.484375 -0.09375 -0.78125q-0.078125 -0.296875 -0.234375 -0.453125q-0.15625 -0.171875 -0.375 -0.234375q-0.21875 -0.0625 -0.46875 -0.0625q-0.21875 0 -0.46875 0.03125q-0.234375 0.015625 -0.453125 0.0625l0 4.171875l-0.890625 0l0 -4.8125zm7.171936 -0.125l2.078125 0l0 0.734375l-2.078125 0l0 2.296875q0 0.375 0.046875 0.609375q0.0625 0.234375 0.171875 0.375q0.125 0.140625 0.3125 0.203125q0.203125 0.046875 0.484375 0.046875q0.375 0 0.609375 -0.0625q0.234375 -0.0625 0.453125 -0.171875l0.125 0.75q-0.15625 0.0625 -0.484375 0.171875q-0.3125 0.109375 -0.796875 0.109375q-0.546875 0 -0.90625 -0.125q-0.34375 -0.140625 -0.546875 -0.390625q-0.203125 -0.265625 -0.28125 -0.640625q-0.0625 -0.375 -0.0625 -0.875l0 -2.296875l-1.046875 0l0 -0.734375l1.046875 0l0 -1.390625l0.875 -0.15625l0 1.546875zm5.500061 -0.125q1.0 0 1.53125 0.625q0.546875 0.625 0.546875 1.890625l0 0.3125l-3.53125 0q0.046875 0.765625 0.5 1.171875q0.453125 0.390625 1.28125 0.390625q0.46875 0 0.796875 -0.078125q0.328125 -0.078125 0.5 -0.15625l0.109375 0.75q-0.15625 0.078125 -0.578125 0.171875q-0.40625 0.109375 -0.921875 0.109375q-0.640625 0 -1.125 -0.203125q-0.484375 -0.203125 -0.8125 -0.53125q-0.3125 -0.34375 -0.484375 -0.8125q-0.15625 -0.484375 -0.15625 -1.046875q0 -0.65625 0.203125 -1.140625q0.203125 -0.5 0.53125 -0.8125q0.328125 -0.3125 0.75 -0.46875q0.421875 -0.171875 0.859375 -0.171875zm1.1875 2.109375q0 -0.625 -0.328125 -0.984375q-0.328125 -0.375 -0.875 -0.375q-0.3125 0 -0.5625 0.125q-0.25 0.109375 -0.4375 0.296875q-0.171875 0.1875 -0.28125 0.4375q-0.109375 0.25 -0.140625 0.5l2.625 0zm2.515686 2.953125l0 -4.671875q1.09375 -0.375 2.1875 -0.375q0.34375 0 0.65625 0.03125q0.3125 0.015625 0.6875 0.109375l-0.171875 0.765625q-0.328125 -0.09375 -0.59375 -0.109375q-0.265625 -0.03125 -0.578125 -0.03125q-0.640625 0 -1.3125 0.171875l0 4.109375l-0.875 0zm4.937561 -4.8125q0.484375 -0.109375 0.953125 -0.171875q0.484375 -0.0625 0.890625 -0.0625q1.0 0 1.5 0.515625q0.515625 0.5 0.515625 1.625l0 2.90625l-0.875 0l0 -2.734375q0 -0.484375 -0.09375 -0.78125q-0.078125 -0.296875 -0.234375 -0.453125q-0.15625 -0.171875 -0.375 -0.234375q-0.21875 -0.0625 -0.46875 -0.0625q-0.21875 0 -0.46875 0.03125q-0.234375 0.015625 -0.453125 0.0625l0 4.171875l-0.890625 0l0 -4.8125zm9.484436 2.34375q0 0.578125 -0.171875 1.0625q-0.15625 0.46875 -0.46875 0.8125q-0.296875 0.34375 -0.71875 0.53125q-0.40625 0.1875 -0.890625 0.1875q-0.484375 0 -0.890625 -0.1875q-0.40625 -0.1875 -0.71875 -0.53125q-0.296875 -0.34375 -0.46875 -0.8125q-0.15625 -0.484375 -0.15625 -1.0625q0 -0.59375 0.15625 -1.0625q0.171875 -0.484375 0.46875 -0.8125q0.3125 -0.34375 0.71875 -0.53125q0.40625 -0.1875 0.890625 -0.1875q0.484375 0 0.890625 0.1875q0.421875 0.1875 0.71875 0.53125q0.3125 0.328125 0.46875 0.8125q0.171875 0.46875 0.171875 1.0625zm-0.90625 0q0 -0.84375 -0.375 -1.328125q-0.359375 -0.484375 -0.96875 -0.484375q-0.609375 0 -0.96875 0.484375q-0.359375 0.484375 -0.359375 1.328125q0 0.828125 0.359375 1.3125q0.359375 0.484375 0.96875 0.484375q0.609375 0 0.96875 -0.484375q0.375 -0.484375 0.375 -1.3125zm5.015686 -1.4375q-0.15625 -0.125 -0.4375 -0.25q-0.28125 -0.125 -0.59375 -0.125q-0.359375 0 -0.609375 0.140625q-0.25 0.140625 -0.40625 0.375q-0.15625 0.234375 -0.234375 0.578125q-0.078125 0.328125 -0.078125 0.71875q0 0.859375 0.40625 1.328125q0.40625 0.46875 1.0625 0.46875q0.328125 0 0.546875 -0.03125q0.234375 -0.03125 0.34375 -0.0625l0 -3.140625zm0 -3.328125l0.890625 -0.15625l0 7.25q-0.296875 0.09375 -0.75 0.171875q-0.4375 0.09375 -1.03125 0.09375q-0.53125 0 -0.96875 -0.1875q-0.4375 -0.1875 -0.75 -0.515625q-0.3125 -0.34375 -0.484375 -0.8125q-0.171875 -0.484375 -0.171875 -1.078125q0 -0.578125 0.140625 -1.046875q0.15625 -0.484375 0.421875 -0.8125q0.28125 -0.34375 0.671875 -0.53125q0.390625 -0.203125 0.890625 -0.203125q0.390625 0 0.6875 0.09375q0.296875 0.09375 0.453125 0.203125l0 -2.46875zm4.406311 2.171875q1.0 0 1.53125 0.625q0.546875 0.625 0.546875 1.890625l0 0.3125l-3.53125 0q0.046875 0.765625 0.5 1.171875q0.453125 0.390625 1.28125 0.390625q0.46875 0 0.796875 -0.078125q0.328125 -0.078125 0.5 -0.15625l0.109375 0.75q-0.15625 0.078125 -0.578125 0.171875q-0.40625 0.109375 -0.921875 0.109375q-0.640625 0 -1.125 -0.203125q-0.484375 -0.203125 -0.8125 -0.53125q-0.3125 -0.34375 -0.484375 -0.8125q-0.15625 -0.484375 -0.15625 -1.046875q0 -0.65625 0.203125 -1.140625q0.203125 -0.5 0.53125 -0.8125q0.328125 -0.3125 0.75 -0.46875q0.421875 -0.171875 0.859375 -0.171875zm1.1875 2.109375q0 -0.625 -0.328125 -0.984375q-0.328125 -0.375 -0.875 -0.375q-0.3125 0 -0.5625 0.125q-0.25 0.109375 -0.4375 0.296875q-0.171875 0.1875 -0.28125 0.4375q-0.109375 0.25 -0.140625 0.5l2.625 0zm5.109436 1.71875q0 -0.265625 -0.21875 -0.4375q-0.21875 -0.171875 -0.546875 -0.296875q-0.3125 -0.125 -0.703125 -0.25q-0.375 -0.125 -0.703125 -0.296875q-0.328125 -0.1875 -0.546875 -0.453125q-0.21875 -0.265625 -0.21875 -0.703125q0 -0.59375 0.484375 -0.984375q0.484375 -0.40625 1.515625 -0.40625q0.40625 0 0.84375 0.0625q0.4375 0.0625 0.734375 0.15625l-0.15625 0.78125q-0.078125 -0.046875 -0.234375 -0.09375q-0.140625 -0.046875 -0.34375 -0.078125q-0.1875 -0.03125 -0.40625 -0.046875q-0.21875 -0.03125 -0.421875 -0.03125q-1.15625 0 -1.15625 0.625q0 0.21875 0.21875 0.375q0.21875 0.15625 0.546875 0.28125q0.34375 0.125 0.71875 0.265625q0.390625 0.140625 0.71875 0.328125q0.328125 0.1875 0.546875 0.46875q0.21875 0.265625 0.21875 0.671875q0 0.671875 -0.53125 1.046875q-0.515625 0.375 -1.640625 0.375q-0.515625 0 -0.9375 -0.09375q-0.421875 -0.078125 -0.8125 -0.25l0.171875 -0.796875q0.375 0.15625 0.78125 0.28125q0.40625 0.109375 0.875 0.109375q1.203125 0 1.203125 -0.609375z" fill-rule="nonzero"/><path fill="#000000" d="m463.9706 291.87064q-1.0 0.765625 -1.515625 1.765625q-0.515625 1.0 -0.515625 2.1875q0 0.59375 0.109375 1.125q0.125 0.53125 0.375 1.03125q0.25 0.484375 0.640625 0.9375q0.390625 0.46875 0.921875 0.921875l-0.46875 0.640625q-1.234375 -0.90625 -1.84375 -2.109375q-0.59375 -1.203125 -0.59375 -2.53125q0 -1.3125 0.609375 -2.515625q0.609375 -1.203125 1.828125 -2.09375l0.46875 0.640625l-0.015625 0zm2.593811 0.984375l0 -0.75l3.109375 0l0 4.46875q0 0.46875 -0.109375 0.890625q-0.09375 0.40625 -0.34375 0.71875q-0.25 0.296875 -0.671875 0.484375q-0.40625 0.171875 -1.046875 0.171875q-0.640625 0 -1.078125 -0.171875q-0.4375 -0.1875 -0.640625 -0.359375l0.34375 -0.71875q0.203125 0.15625 0.53125 0.328125q0.34375 0.15625 0.796875 0.15625q0.6875 0 1.015625 -0.359375q0.34375 -0.359375 0.34375 -1.21875l0 -3.640625l-2.25 0zm6.468811 5.21875q0.671875 0 1.015625 -0.25q0.359375 -0.25 0.359375 -0.765625q0 -0.3125 -0.140625 -0.53125q-0.125 -0.21875 -0.34375 -0.375q-0.203125 -0.171875 -0.46875 -0.296875q-0.265625 -0.125 -0.546875 -0.21875q-0.3125 -0.140625 -0.609375 -0.296875q-0.296875 -0.15625 -0.53125 -0.359375q-0.21875 -0.21875 -0.359375 -0.5q-0.125 -0.296875 -0.125 -0.6875q0 -0.875 0.53125 -1.359375q0.546875 -0.484375 1.515625 -0.484375q0.265625 0 0.53125 0.046875q0.265625 0.03125 0.484375 0.09375q0.21875 0.046875 0.390625 0.125q0.1875 0.0625 0.296875 0.140625l-0.28125 0.734375q-0.21875 -0.125 -0.59375 -0.25q-0.359375 -0.125 -0.828125 -0.125q-0.46875 0 -0.828125 0.234375q-0.34375 0.234375 -0.34375 0.71875q0 0.28125 0.09375 0.46875q0.109375 0.1875 0.28125 0.34375q0.171875 0.140625 0.40625 0.265625q0.234375 0.109375 0.515625 0.21875q0.40625 0.171875 0.734375 0.34375q0.34375 0.171875 0.578125 0.40625q0.234375 0.234375 0.359375 0.5625q0.140625 0.3125 0.140625 0.765625q0 0.875 -0.578125 1.34375q-0.578125 0.453125 -1.65625 0.453125q-0.359375 0 -0.671875 -0.046875q-0.296875 -0.046875 -0.546875 -0.125q-0.234375 -0.078125 -0.421875 -0.140625q-0.171875 -0.078125 -0.265625 -0.140625l0.265625 -0.734375q0.203125 0.125 0.609375 0.28125q0.421875 0.140625 1.03125 0.140625zm3.140686 -2.671875q0 -0.890625 0.171875 -1.53125q0.171875 -0.65625 0.46875 -1.078125q0.3125 -0.421875 0.734375 -0.625q0.4375 -0.21875 0.984375 -0.21875q0.515625 0 0.953125 0.21875q0.4375 0.203125 0.734375 0.625q0.3125 0.421875 0.484375 1.078125q0.1875 0.640625 0.1875 1.53125q0 0.875 -0.1875 1.53125q-0.171875 0.640625 -0.484375 1.078125q-0.296875 0.421875 -0.734375 0.625q-0.4375 0.203125 -0.953125 0.203125q-0.546875 0 -0.984375 -0.203125q-0.421875 -0.203125 -0.734375 -0.625q-0.296875 -0.4375 -0.46875 -1.078125q-0.171875 -0.65625 -0.171875 -1.53125zm0.890625 0q0 1.296875 0.34375 1.984375q0.359375 0.6875 1.09375 0.6875q0.75 0 1.125 -0.6875q0.375 -0.6875 0.375 -1.984375q0 -1.3125 -0.375 -2.0q-0.375 -0.6875 -1.125 -0.6875q-0.734375 0 -1.09375 0.6875q-0.34375 0.6875 -0.34375 2.0zm7.968811 3.296875q-0.359375 -0.890625 -0.6875 -1.609375q-0.3125 -0.71875 -0.609375 -1.34375q-0.28125 -0.625 -0.578125 -1.1875q-0.28125 -0.5625 -0.578125 -1.125l0 5.265625l-0.796875 0l0 -6.59375l0.890625 0q0.4375 0.796875 0.75 1.390625q0.328125 0.59375 0.59375 1.15625q0.28125 0.5625 0.53125 1.15625q0.265625 0.59375 0.578125 1.359375l0 -5.0625l0.796875 0l0 6.59375l-0.890625 0zm2.703186 1.140625q1.0 -0.765625 1.515625 -1.765625q0.53125 -1.0 0.53125 -2.1875q0 -0.59375 -0.125 -1.125q-0.109375 -0.53125 -0.375 -1.015625q-0.25 -0.5 -0.640625 -0.953125q-0.390625 -0.46875 -0.921875 -0.921875l0.484375 -0.640625q1.21875 0.90625 1.8125 2.109375q0.609375 1.1875 0.609375 2.53125q0 0.65625 -0.15625 1.296875q-0.15625 0.640625 -0.453125 1.234375q-0.296875 0.578125 -0.75 1.109375q-0.453125 0.53125 -1.0625 0.96875l-0.46875 -0.640625l0 0z" fill-rule="nonzero"/><path fill="#e06666" d="m576.85065 251.0l171.38556 0c4.272461E-4 0 7.9345703E-4 1.6784668E-4 0.0010986328 4.5776367E-4c3.0517578E-4 2.746582E-4 4.272461E-4 6.713867E-4 4.272461E-4 0.001083374l-0.0015258789 66.69112c0 7.3668213 -5.971985 13.338837 -13.338806 13.338837l-171.38556 0l0 0c-8.544922E-4 0 -0.0015869141 -7.019043E-4 -0.0015869141 -0.0015258789l0.0015869141 -66.69113l0 0c0 -7.3668213 5.971985 -13.338837 13.338806 -13.338837z" fill-rule="evenodd"/><path stroke="#1a1a1a" stroke-width="1.0" stroke-linejoin="round" stroke-linecap="butt" d="m576.85065 251.0l171.38556 0c4.272461E-4 0 7.9345703E-4 1.6784668E-4 0.0010986328 4.5776367E-4c3.0517578E-4 2.746582E-4 4.272461E-4 6.713867E-4 4.272461E-4 0.001083374l-0.0015258789 66.69112c0 7.3668213 -5.971985 13.338837 -13.338806 13.338837l-171.38556 0l0 0c-8.544922E-4 0 -0.0015869141 -7.019043E-4 -0.0015869141 -0.0015258789l0.0015869141 -66.69113l0 0c0 -7.3668213 5.971985 -13.338837 13.338806 -13.338837z" fill-rule="evenodd"/><path fill="#000000" d="m586.3037 294.2195l-4.40625 0l-0.921875 2.65625l-2.0625 0l4.296875 -11.375l1.78125 0l4.296875 11.375l-2.0625 0l-0.921875 -2.65625zm-3.859375 -1.59375l3.296875 0l-1.640625 -4.71875l-1.65625 4.71875zm9.3359375 -4.203125l0.0625 0.96875q0.9375 -1.125 2.453125 -1.125q2.640625 0 2.6875 3.015625l0 5.59375l-1.890625 0l0 -5.484375q0 -0.796875 -0.359375 -1.1875q-0.34375 -0.390625 -1.125 -0.390625q-1.15625 0 -1.71875 1.046875l0 6.015625l-1.890625 0l0 -8.453125l1.78125 0zm6.8046875 4.15625q0 -1.96875 0.921875 -3.140625q0.9375 -1.171875 2.46875 -1.171875q1.4375 0 2.265625 1.0l0.09375 -0.84375l1.703125 0l0 8.1875q0 1.671875 -1.03125 2.625q-1.03125 0.96875 -2.796875 0.96875q-0.921875 0 -1.8125 -0.390625q-0.890625 -0.375 -1.34375 -1.0l0.890625 -1.140625q0.875 1.03125 2.15625 1.03125q0.953125 0 1.5 -0.515625q0.546875 -0.5 0.546875 -1.5l0 -0.578125q-0.828125 0.921875 -2.1875 0.921875q-1.484375 0 -2.4375 -1.171875q-0.9375 -1.1875 -0.9375 -3.28125zm1.890625 0.171875q0 1.265625 0.515625 2.0q0.53125 0.734375 1.453125 0.734375q1.140625 0 1.703125 -0.984375l0 -3.71875q-0.546875 -0.96875 -1.6875 -0.96875q-0.9375 0 -1.46875 0.75q-0.515625 0.734375 -0.515625 2.1875zm9.5390625 4.125l-1.90625 0l0 -12.0l1.90625 0l0 12.0zm5.7890625 0.15625q-1.8125 0 -2.9375 -1.140625q-1.109375 -1.140625 -1.109375 -3.03125l0 -0.234375q0 -1.265625 0.484375 -2.25q0.484375 -1.0 1.359375 -1.546875q0.890625 -0.5625 1.984375 -0.5625q1.71875 0 2.65625 1.109375q0.953125 1.09375 0.953125 3.109375l0 0.765625l-5.53125 0q0.09375 1.046875 0.703125 1.65625q0.609375 0.609375 1.546875 0.609375q1.296875 0 2.125 -1.0625l1.015625 0.984375q-0.5 0.75 -1.359375 1.171875q-0.84375 0.421875 -1.890625 0.421875zm-0.234375 -7.25q-0.78125 0 -1.265625 0.546875q-0.46875 0.546875 -0.609375 1.53125l3.625 0l0 -0.140625q-0.0625 -0.953125 -0.515625 -1.4375q-0.4375 -0.5 -1.234375 -0.5zm9.8359375 4.796875q0 -0.515625 -0.421875 -0.78125q-0.421875 -0.265625 -1.390625 -0.46875q-0.96875 -0.203125 -1.609375 -0.515625q-1.421875 -0.6875 -1.421875 -1.984375q0 -1.09375 0.921875 -1.828125q0.921875 -0.734375 2.34375 -0.734375q1.515625 0 2.4375 0.75q0.9375 0.75 0.9375 1.9375l-1.890625 0q0 -0.546875 -0.40625 -0.90625q-0.40625 -0.359375 -1.078125 -0.359375q-0.625 0 -1.03125 0.296875q-0.390625 0.28125 -0.390625 0.765625q0 0.4375 0.359375 0.6875q0.375 0.234375 1.484375 0.484375q1.125 0.234375 1.765625 0.578125q0.640625 0.34375 0.9375 0.828125q0.3125 0.46875 0.3125 1.140625q0 1.140625 -0.953125 1.859375q-0.9375 0.703125 -2.46875 0.703125q-1.03125 0 -1.84375 -0.375q-0.8125 -0.375 -1.265625 -1.03125q-0.453125 -0.65625 -0.453125 -1.421875l1.84375 0q0.03125 0.671875 0.5 1.046875q0.46875 0.359375 1.25 0.359375q0.75 0 1.140625 -0.28125q0.390625 -0.296875 0.390625 -0.75zm10.0703125 -0.359375l-4.40625 0l-0.921875 2.65625l-2.0625 0l4.296875 -11.375l1.78125 0l4.296875 11.375l-2.0625 0l-0.921875 -2.65625zm-3.859375 -1.59375l3.296875 0l-1.640625 -4.71875l-1.65625 4.71875zm9.3359375 -4.203125l0.0625 0.96875q0.9375 -1.125 2.453125 -1.125q2.640625 0 2.6875 3.015625l0 5.59375l-1.890625 0l0 -5.484375q0 -0.796875 -0.359375 -1.1875q-0.34375 -0.390625 -1.125 -0.390625q-1.15625 0 -1.71875 1.046875l0 6.015625l-1.890625 0l0 -8.453125l1.78125 0zm6.7890625 4.15625q0 -1.953125 0.90625 -3.125q0.90625 -1.1875 2.421875 -1.1875q1.34375 0 2.171875 0.9375l0 -4.328125l1.90625 0l0 12.0l-1.71875 0l-0.09375 -0.875q-0.859375 1.03125 -2.28125 1.03125q-1.484375 0 -2.40625 -1.1875q-0.90625 -1.203125 -0.90625 -3.265625zm1.890625 0.171875q0 1.28125 0.5 2.015625q0.5 0.71875 1.40625 0.71875q1.171875 0 1.703125 -1.046875l0 -3.609375q-0.515625 -1.015625 -1.6875 -1.015625q-0.921875 0 -1.421875 0.734375q-0.5 0.734375 -0.5 2.203125zm9.765625 4.125l-1.96875 0l0 -11.375l1.96875 0l0 11.375zm4.0 -8.453125l0.0625 0.96875q0.9375 -1.125 2.453125 -1.125q2.640625 0 2.6875 3.015625l0 5.59375l-1.890625 0l0 -5.484375q0 -0.796875 -0.359375 -1.1875q-0.34375 -0.390625 -1.125 -0.390625q-1.15625 0 -1.71875 1.046875l0 6.015625l-1.890625 0l0 -8.453125l1.78125 0zm9.5234375 -2.0625l0 2.0625l1.484375 0l0 1.40625l-1.484375 0l0 4.71875q0 0.484375 0.1875 0.703125q0.1875 0.203125 0.6875 0.203125q0.328125 0 0.65625 -0.078125l0 1.46875q-0.640625 0.1875 -1.25 0.1875q-2.1875 0 -2.1875 -2.421875l0 -4.78125l-1.390625 0l0 -1.40625l1.390625 0l0 -2.0625l1.90625 0zm6.6640625 10.671875q-1.8125 0 -2.9375 -1.140625q-1.109375 -1.140625 -1.109375 -3.03125l0 -0.234375q0 -1.265625 0.484375 -2.25q0.484375 -1.0 1.359375 -1.546875q0.890625 -0.5625 1.984375 -0.5625q1.71875 0 2.65625 1.109375q0.953125 1.09375 0.953125 3.109375l0 0.765625l-5.53125 0q0.09375 1.046875 0.703125 1.65625q0.609375 0.609375 1.546875 0.609375q1.296875 0 2.125 -1.0625l1.015625 0.984375q-0.5 0.75 -1.359375 1.171875q-0.84375 0.421875 -1.890625 0.421875zm-0.234375 -7.25q-0.78125 0 -1.265625 0.546875q-0.46875 0.546875 -0.609375 1.53125l3.625 0l0 -0.140625q-0.0625 -0.953125 -0.515625 -1.4375q-0.4375 -0.5 -1.234375 -0.5zm9.5234375 0.375q-0.375 -0.0625 -0.78125 -0.0625q-1.296875 0 -1.75 1.0l0 5.78125l-1.90625 0l0 -8.453125l1.8125 0l0.046875 0.9375q0.6875 -1.09375 1.90625 -1.09375q0.40625 0 0.671875 0.109375l0 1.78125zm2.953125 -1.734375l0.0625 0.96875q0.9375 -1.125 2.453125 -1.125q2.640625 0 2.6875 3.015625l0 5.59375l-1.890625 0l0 -5.484375q0 -0.796875 -0.359375 -1.1875q-0.34375 -0.390625 -1.125 -0.390625q-1.15625 0 -1.71875 1.046875l0 6.015625l-1.890625 0l0 -8.453125l1.78125 0zm6.7890625 4.140625q0 -1.234375 0.484375 -2.234375q0.5 -1.0 1.390625 -1.53125q0.890625 -0.53125 2.046875 -0.53125q1.703125 0 2.765625 1.109375q1.078125 1.09375 1.15625 2.90625l0.015625 0.453125q0 1.25 -0.484375 2.234375q-0.484375 0.984375 -1.375 1.53125q-0.890625 0.53125 -2.0625 0.53125q-1.796875 0 -2.875 -1.1875q-1.0625 -1.203125 -1.0625 -3.1875l0 -0.09375zm1.890625 0.171875q0 1.296875 0.53125 2.046875q0.546875 0.734375 1.5 0.734375q0.96875 0 1.5 -0.75q0.546875 -0.75 0.546875 -2.203125q0 -1.28125 -0.5625 -2.03125q-0.546875 -0.75 -1.484375 -0.75q-0.9375 0 -1.484375 0.75q-0.546875 0.734375 -0.546875 2.203125zm7.21875 -0.15625q0 -1.953125 0.90625 -3.125q0.90625 -1.1875 2.421875 -1.1875q1.34375 0 2.171875 0.9375l0 -4.328125l1.90625 0l0 12.0l-1.71875 0l-0.09375 -0.875q-0.859375 1.03125 -2.28125 1.03125q-1.484375 0 -2.40625 -1.1875q-0.90625 -1.203125 -0.90625 -3.265625zm1.890625 0.171875q0 1.28125 0.5 2.015625q0.5 0.71875 1.40625 0.71875q1.171875 0 1.703125 -1.046875l0 -3.609375q-0.515625 -1.015625 -1.6875 -1.015625q-0.921875 0 -1.421875 0.734375q-0.5 0.734375 -0.5 2.203125zm11.21875 4.28125q-1.8125 0 -2.9375 -1.140625q-1.109375 -1.140625 -1.109375 -3.03125l0 -0.234375q0 -1.265625 0.484375 -2.25q0.484375 -1.0 1.359375 -1.546875q0.890625 -0.5625 1.984375 -0.5625q1.71875 0 2.65625 1.109375q0.953125 1.09375 0.953125 3.109375l0 0.765625l-5.53125 0q0.09375 1.046875 0.703125 1.65625q0.609375 0.609375 1.546875 0.609375q1.296875 0 2.125 -1.0625l1.015625 0.984375q-0.5 0.75 -1.359375 1.171875q-0.84375 0.421875 -1.890625 0.421875zm-0.234375 -7.25q-0.78125 0 -1.265625 0.546875q-0.46875 0.546875 -0.609375 1.53125l3.625 0l0 -0.140625q-0.0625 -0.953125 -0.515625 -1.4375q-0.4375 -0.5 -1.234375 -0.5zm9.8359375 4.796875q0 -0.515625 -0.421875 -0.78125q-0.421875 -0.265625 -1.390625 -0.46875q-0.96875 -0.203125 -1.609375 -0.515625q-1.421875 -0.6875 -1.421875 -1.984375q0 -1.09375 0.921875 -1.828125q0.921875 -0.734375 2.34375 -0.734375q1.515625 0 2.4375 0.75q0.9375 0.75 0.9375 1.9375l-1.890625 0q0 -0.546875 -0.40625 -0.90625q-0.40625 -0.359375 -1.078125 -0.359375q-0.625 0 -1.03125 0.296875q-0.390625 0.28125 -0.390625 0.765625q0 0.4375 0.359375 0.6875q0.375 0.234375 1.484375 0.484375q1.125 0.234375 1.765625 0.578125q0.640625 0.34375 0.9375 0.828125q0.3125 0.46875 0.3125 1.140625q0 1.140625 -0.953125 1.859375q-0.9375 0.703125 -2.46875 0.703125q-1.03125 0 -1.84375 -0.375q-0.8125 -0.375 -1.265625 -1.03125q-0.453125 -0.65625 -0.453125 -1.421875l1.84375 0q0.03125 0.671875 0.5 1.046875q0.46875 0.359375 1.25 0.359375q0.75 0 1.140625 -0.28125q0.390625 -0.296875 0.390625 -0.75z" fill-rule="nonzero"/><path fill="#000000" fill-opacity="0.0" d="m800.3002 203.59445l0 87.433075l-52.06299 0" fill-rule="evenodd"/><path stroke="#1a1a1a" stroke-width="3.0" stroke-linejoin="round" stroke-linecap="butt" d="m800.3002 203.59447l0 87.43306l-34.06299 0" fill-rule="evenodd"/><path fill="#1a1a1a" stroke="#1a1a1a" stroke-width="3.0" stroke-linecap="butt" d="m766.2372 286.07233l-13.614258 4.9552l13.614258 4.9552z" fill-rule="evenodd"/><path fill="#000000" fill-opacity="0.0" d="m563.51184 291.01575l-40.409485 0" fill-rule="evenodd"/><path stroke="#1a1a1a" stroke-width="3.0" stroke-linejoin="round" stroke-linecap="butt" d="m563.51184 291.01575l-22.409485 0" fill-rule="evenodd"/><path fill="#1a1a1a" stroke="#1a1a1a" stroke-width="3.0" stroke-linecap="butt" d="m541.10236 286.06055l-13.614258 4.9552l13.614258 4.9552z" fill-rule="evenodd"/></g></svg>