<?xml version="1.0" encoding="UTF-8" standalone="no"?>
<!DOCTYPE svg PUBLIC "-//W3C//DTD SVG 1.1//EN"
 "http://www.w3.org/Graphics/SVG/1.1/DTD/svg11.dtd">
<!-- Generated by graphviz version 2.40.1 (20161225.0304)
 -->
<!-- Title: G Pages: 1 -->
<svg width="988pt" height="1373pt"
 viewBox="0.00 0.00 988.00 1373.00" xmlns="http://www.w3.org/2000/svg" xmlns:xlink="http://www.w3.org/1999/xlink">
<g id="graph0" class="graph" transform="scale(1 1) rotate(0) translate(4 1369)">
<title>G</title>
<polygon fill="#ffffff" stroke="transparent" points="-4,4 -4,-1369 984,-1369 984,4 -4,4"/>
<g id="clust3" class="cluster">
<title>cluster_level0</title>
<polygon fill="none" stroke="#000000" points="8,-8 8,-1116.5 266,-1116.5 266,-8 8,-8"/>
<text text-anchor="middle" x="137" y="-1101.3" font-family="Times,serif" font-size="14.00" fill="#000000">Algorithmic Pipeline</text>
</g>
<g id="clust4" class="cluster">
<title>cluster_level1</title>
<polygon fill="none" stroke="#000000" points="284,-364 284,-1124 542,-1124 542,-364 284,-364"/>
<text text-anchor="middle" x="413" y="-1108.8" font-family="Times,serif" font-size="14.00" fill="#000000">Machine Learning Pipeline</text>
</g>
<!-- input -->
<g id="node1" class="node">
<title>input</title>
<polygon fill="none" stroke="#000000" points="278,-1364 275,-1368 254,-1368 251,-1364 62,-1364 62,-1328 278,-1328 278,-1364"/>
<text text-anchor="middle" x="170" y="-1342.3" font-family="Times,serif" font-size="14.00" fill="#000000">Multiple RGB images (PNG|JPEG)</text>
</g>
<!-- undistorted_task -->
<g id="node2" class="node">
<title>undistorted_task</title>
<path fill="none" stroke="#000000" d="M74,-1206.5C74,-1206.5 266,-1206.5 266,-1206.5 272,-1206.5 278,-1212.5 278,-1218.5 278,-1218.5 278,-1278.5 278,-1278.5 278,-1284.5 272,-1290.5 266,-1290.5 266,-1290.5 74,-1290.5 74,-1290.5 68,-1290.5 62,-1284.5 62,-1278.5 62,-1278.5 62,-1218.5 62,-1218.5 62,-1212.5 68,-1206.5 74,-1206.5"/>
<text text-anchor="middle" x="170" y="-1275.3" font-family="Times,serif" font-size="14.00" fill="#000000">Undistorted</text>
<polyline fill="none" stroke="#000000" points="62,-1267.5 278,-1267.5 "/>
<text text-anchor="middle" x="170" y="-1252.3" font-family="Times,serif" font-size="14.00" fill="#000000">romiscan.tasks.proc2d</text>
<polyline fill="none" stroke="#000000" points="62,-1244.5 278,-1244.5 "/>
<text text-anchor="middle" x="170" y="-1229.3" font-family="Times,serif" font-size="14.00" fill="#000000">Undistorts images using computed</text>
<text text-anchor="middle" x="170" y="-1214.3" font-family="Times,serif" font-size="14.00" fill="#000000"> intrinsic camera parameters.</text>
</g>
<!-- input&#45;&gt;undistorted_task -->
<g id="edge1" class="edge">
<title>input&#45;&gt;undistorted_task</title>
<path fill="none" stroke="#000000" d="M170,-1327.661C170,-1319.8822 170,-1310.3834 170,-1300.7021"/>
<polygon fill="#000000" stroke="#000000" points="173.5001,-1300.6115 170,-1290.6115 166.5001,-1300.6116 173.5001,-1300.6115"/>
</g>
<!-- colmap_task -->
<g id="node4" class="node">
<title>colmap_task</title>
<path fill="none" stroke="#000000" d="M308,-1214C308,-1214 500,-1214 500,-1214 506,-1214 512,-1220 512,-1226 512,-1226 512,-1271 512,-1271 512,-1277 506,-1283 500,-1283 500,-1283 308,-1283 308,-1283 302,-1283 296,-1277 296,-1271 296,-1271 296,-1226 296,-1226 296,-1220 302,-1214 308,-1214"/>
<text text-anchor="middle" x="404" y="-1267.8" font-family="Times,serif" font-size="14.00" fill="#000000">Colmap</text>
<polyline fill="none" stroke="#000000" points="296,-1260 512,-1260 "/>
<text text-anchor="middle" x="404" y="-1244.8" font-family="Times,serif" font-size="14.00" fill="#000000">romiscan.tasks.colmap</text>
<polyline fill="none" stroke="#000000" points="296,-1237 512,-1237 "/>
<text text-anchor="middle" x="404" y="-1221.8" font-family="Times,serif" font-size="14.00" fill="#000000">Camera poses estimation.</text>
</g>
<!-- input&#45;&gt;colmap_task -->
<g id="edge2" class="edge">
<title>input&#45;&gt;colmap_task</title>
<path fill="none" stroke="#000000" d="M213.4652,-1327.8895C241.0103,-1316.4124 277.6999,-1301.125 311.5258,-1287.0309"/>
<polygon fill="#000000" stroke="#000000" points="313.096,-1290.1684 320.9806,-1283.0914 310.4036,-1283.7069 313.096,-1290.1684"/>
</g>
<!-- mask_task -->
<g id="node9" class="node">
<title>mask_task</title>
<path fill="none" stroke="#000000" d="M34,-1016C34,-1016 226,-1016 226,-1016 232,-1016 238,-1022 238,-1028 238,-1028 238,-1073 238,-1073 238,-1079 232,-1085 226,-1085 226,-1085 34,-1085 34,-1085 28,-1085 22,-1079 22,-1073 22,-1073 22,-1028 22,-1028 22,-1022 28,-1016 34,-1016"/>
<text text-anchor="middle" x="130" y="-1069.8" font-family="Times,serif" font-size="14.00" fill="#000000">Mask</text>
<polyline fill="none" stroke="#000000" points="22,-1062 238,-1062 "/>
<text text-anchor="middle" x="130" y="-1046.8" font-family="Times,serif" font-size="14.00" fill="#000000">romiscan.tasks.proc2d</text>
<polyline fill="none" stroke="#000000" points="22,-1039 238,-1039 "/>
<text text-anchor="middle" x="130" y="-1023.8" font-family="Times,serif" font-size="14.00" fill="#000000">&#39;Plant pixels&#39; detection.</text>
</g>
<!-- input&#45;&gt;mask_task -->
<g id="edge8" class="edge">
<title>input&#45;&gt;mask_task</title>
<path fill="none" stroke="#000000" d="M99.5661,-1327.9882C81.3062,-1319.7823 63.7671,-1307.9589 53,-1291 15.1232,-1231.3416 26.8863,-1197.6647 53,-1132 58.7826,-1117.4592 68.5266,-1104.0138 79.1738,-1092.4099"/>
<polygon fill="#000000" stroke="#000000" points="81.8433,-1094.6838 86.2684,-1085.0573 76.806,-1089.8232 81.8433,-1094.6838"/>
</g>
<!-- undistorted_out -->
<g id="node3" class="node">
<title>undistorted_out</title>
<polygon fill="none" stroke="#000000" points="278,-1169 275,-1173 254,-1173 251,-1169 62,-1169 62,-1133 278,-1133 278,-1169"/>
<text text-anchor="middle" x="170" y="-1147.3" font-family="Times,serif" font-size="14.00" fill="#000000">Undistorted images (PNG)</text>
</g>
<!-- undistorted_task&#45;&gt;undistorted_out -->
<g id="edge21" class="edge">
<title>undistorted_task&#45;&gt;undistorted_out</title>
<path fill="none" stroke="#000000" d="M170,-1206.3021C170,-1197.1107 170,-1187.6027 170,-1179.1174"/>
<polygon fill="#000000" stroke="#000000" points="173.5001,-1179.017 170,-1169.0171 166.5001,-1179.0171 173.5001,-1179.017"/>
</g>
<!-- undistorted_out&#45;&gt;mask_task -->
<g id="edge7" class="edge">
<title>undistorted_out&#45;&gt;mask_task</title>
<path fill="none" stroke="#000000" d="M162.6634,-1132.5668C158.4165,-1121.8965 152.8756,-1107.9749 147.5668,-1094.6365"/>
<polygon fill="#000000" stroke="#000000" points="150.7139,-1093.0788 143.764,-1085.082 144.2101,-1095.6674 150.7139,-1093.0788"/>
</g>
<!-- segmentation_task -->
<g id="node21" class="node">
<title>segmentation_task</title>
<path fill="none" stroke="#000000" d="M308,-1008.5C308,-1008.5 500,-1008.5 500,-1008.5 506,-1008.5 512,-1014.5 512,-1020.5 512,-1020.5 512,-1080.5 512,-1080.5 512,-1086.5 506,-1092.5 500,-1092.5 500,-1092.5 308,-1092.5 308,-1092.5 302,-1092.5 296,-1086.5 296,-1080.5 296,-1080.5 296,-1020.5 296,-1020.5 296,-1014.5 302,-1008.5 308,-1008.5"/>
<text text-anchor="middle" x="404" y="-1077.3" font-family="Times,serif" font-size="14.00" fill="#000000">Segmentation2D</text>
<polyline fill="none" stroke="#000000" points="296,-1069.5 512,-1069.5 "/>
<text text-anchor="middle" x="404" y="-1054.3" font-family="Times,serif" font-size="14.00" fill="#000000">romiscan.tasks.proc2d</text>
<polyline fill="none" stroke="#000000" points="296,-1046.5 512,-1046.5 "/>
<text text-anchor="middle" x="404" y="-1031.3" font-family="Times,serif" font-size="14.00" fill="#000000">Compute masks using</text>
<text text-anchor="middle" x="404" y="-1016.3" font-family="Times,serif" font-size="14.00" fill="#000000"> trained deep learning models.</text>
</g>
<!-- undistorted_out&#45;&gt;segmentation_task -->
<g id="edge22" class="edge">
<title>undistorted_out&#45;&gt;segmentation_task</title>
<path fill="none" stroke="#000000" d="M244.6458,-1132.9594C253.2949,-1130.2489 261.9093,-1127.2569 270,-1124 288.4453,-1116.5748 307.5739,-1107.1987 325.4053,-1097.65"/>
<polygon fill="#000000" stroke="#000000" points="327.4876,-1100.5018 334.6013,-1092.6503 324.144,-1094.3519 327.4876,-1100.5018"/>
</g>
<!-- colmap_out_img_md -->
<g id="node5" class="node">
<title>colmap_out_img_md</title>
<polygon fill="none" stroke="#000000" points="512,-1365 509,-1369 488,-1369 485,-1365 296,-1365 296,-1327 512,-1327 512,-1365"/>
<text text-anchor="middle" x="404" y="-1349.8" font-family="Times,serif" font-size="14.00" fill="#000000">Images metadata (JSON)</text>
<text text-anchor="middle" x="404" y="-1334.8" font-family="Times,serif" font-size="14.00" fill="#000000"> images.json</text>
</g>
<!-- colmap_task&#45;&gt;colmap_out_img_md -->
<g id="edge4" class="edge">
<title>colmap_task&#45;&gt;colmap_out_img_md</title>
<path fill="none" stroke="#000000" d="M404,-1283.115C404,-1293.9968 404,-1305.9071 404,-1316.4074"/>
<polygon fill="#000000" stroke="#000000" points="400.5001,-1316.7371 404,-1326.7371 407.5001,-1316.7372 400.5001,-1316.7371"/>
</g>
<!-- colmap_out_cam -->
<g id="node6" class="node">
<title>colmap_out_cam</title>
<polygon fill="none" stroke="#000000" points="512,-1170 509,-1174 488,-1174 485,-1170 296,-1170 296,-1132 512,-1132 512,-1170"/>
<text text-anchor="middle" x="404" y="-1154.8" font-family="Times,serif" font-size="14.00" fill="#000000">Camera poses (JSON)</text>
<text text-anchor="middle" x="404" y="-1139.8" font-family="Times,serif" font-size="14.00" fill="#000000"> cameras.json</text>
</g>
<!-- colmap_task&#45;&gt;colmap_out_cam -->
<g id="edge3" class="edge">
<title>colmap_task&#45;&gt;colmap_out_cam</title>
<path fill="none" stroke="#000000" d="M404,-1213.8506C404,-1202.9635 404,-1191.0498 404,-1180.5502"/>
<polygon fill="#000000" stroke="#000000" points="407.5001,-1180.2228 404,-1170.2228 400.5001,-1180.2229 407.5001,-1180.2228"/>
</g>
<!-- colmap_out_pts -->
<g id="node7" class="node">
<title>colmap_out_pts</title>
<polygon fill="none" stroke="#000000" points="746,-1365 743,-1369 722,-1369 719,-1365 530,-1365 530,-1327 746,-1327 746,-1365"/>
<text text-anchor="middle" x="638" y="-1349.8" font-family="Times,serif" font-size="14.00" fill="#000000">Points in 3D (JSON)</text>
<text text-anchor="middle" x="638" y="-1334.8" font-family="Times,serif" font-size="14.00" fill="#000000"> points3D.json</text>
</g>
<!-- colmap_task&#45;&gt;colmap_out_pts -->
<g id="edge5" class="edge">
<title>colmap_task&#45;&gt;colmap_out_pts</title>
<path fill="none" stroke="#000000" d="M486.9744,-1283.0727C518.8089,-1296.337 554.3243,-1311.1351 582.9127,-1323.0469"/>
<polygon fill="#000000" stroke="#000000" points="581.75,-1326.3541 592.3269,-1326.9696 584.4423,-1319.8926 581.75,-1326.3541"/>
</g>
<!-- colmap_out_ply -->
<g id="node8" class="node">
<title>colmap_out_ply</title>
<polygon fill="none" stroke="#000000" points="980,-1365 977,-1369 956,-1369 953,-1365 764,-1365 764,-1327 980,-1327 980,-1365"/>
<text text-anchor="middle" x="872" y="-1349.8" font-family="Times,serif" font-size="14.00" fill="#000000">PointCloud (PLY)</text>
<text text-anchor="middle" x="872" y="-1334.8" font-family="Times,serif" font-size="14.00" fill="#000000"> sparse.ply (, dense.ply)</text>
</g>
<!-- colmap_task&#45;&gt;colmap_out_ply -->
<g id="edge6" class="edge">
<title>colmap_task&#45;&gt;colmap_out_ply</title>
<path fill="none" stroke="#000000" d="M512.3632,-1271.0757C590.1883,-1287.2892 694.3692,-1308.9936 770.565,-1324.8677"/>
<polygon fill="#000000" stroke="#000000" points="770.1502,-1328.3564 780.6539,-1326.9696 771.578,-1321.5035 770.1502,-1328.3564"/>
</g>
<!-- voxel_task -->
<g id="node11" class="node">
<title>voxel_task</title>
<path fill="none" stroke="#000000" d="M28,-815.5C28,-815.5 246,-815.5 246,-815.5 252,-815.5 258,-821.5 258,-827.5 258,-827.5 258,-887.5 258,-887.5 258,-893.5 252,-899.5 246,-899.5 246,-899.5 28,-899.5 28,-899.5 22,-899.5 16,-893.5 16,-887.5 16,-887.5 16,-827.5 16,-827.5 16,-821.5 22,-815.5 28,-815.5"/>
<text text-anchor="middle" x="137" y="-884.3" font-family="Times,serif" font-size="14.00" fill="#000000">Voxel</text>
<polyline fill="none" stroke="#000000" points="16,-876.5 258,-876.5 "/>
<text text-anchor="middle" x="137" y="-861.3" font-family="Times,serif" font-size="14.00" fill="#000000">romiscan.tasks.cl</text>
<polyline fill="none" stroke="#000000" points="16,-853.5 258,-853.5 "/>
<text text-anchor="middle" x="137" y="-838.3" font-family="Times,serif" font-size="14.00" fill="#000000">Computes a volume from backprojection</text>
<text text-anchor="middle" x="137" y="-823.3" font-family="Times,serif" font-size="14.00" fill="#000000"> of 2D segmented images.</text>
</g>
<!-- colmap_out_cam&#45;&gt;voxel_task -->
<g id="edge9" class="edge">
<title>colmap_out_cam&#45;&gt;voxel_task</title>
<path fill="none" stroke="#000000" d="M295.6356,-1132.9382C288.6951,-1130.3065 283.2045,-1127.3374 280,-1124 221.245,-1062.8077 292.2323,-1007.7682 247,-936 240.0221,-924.9284 230.8624,-914.9546 220.8031,-906.126"/>
<polygon fill="#000000" stroke="#000000" points="222.8827,-903.3032 212.9566,-899.5986 218.406,-908.6846 222.8827,-903.3032"/>
</g>
<!-- colmap_out_cam&#45;&gt;segmentation_task -->
<g id="edge23" class="edge">
<title>colmap_out_cam&#45;&gt;segmentation_task</title>
<path fill="none" stroke="#000000" d="M404,-1131.6226C404,-1123.3234 404,-1113.1898 404,-1102.9346"/>
<polygon fill="#000000" stroke="#000000" points="407.5001,-1102.7024 404,-1092.7024 400.5001,-1102.7024 407.5001,-1102.7024"/>
</g>
<!-- mask_out -->
<g id="node10" class="node">
<title>mask_out</title>
<polygon fill="none" stroke="#000000" points="238,-972 235,-976 214,-976 211,-972 22,-972 22,-936 238,-936 238,-972"/>
<text text-anchor="middle" x="130" y="-950.3" font-family="Times,serif" font-size="14.00" fill="#000000">Grayscale or Binary masks (PNG)</text>
</g>
<!-- mask_task&#45;&gt;mask_out -->
<g id="edge15" class="edge">
<title>mask_task&#45;&gt;mask_out</title>
<path fill="none" stroke="#000000" d="M130,-1015.9339C130,-1004.9359 130,-992.9039 130,-982.3943"/>
<polygon fill="#000000" stroke="#000000" points="133.5001,-982.1004 130,-972.1005 126.5001,-982.1005 133.5001,-982.1004"/>
</g>
<!-- mask_out&#45;&gt;voxel_task -->
<g id="edge10" class="edge">
<title>mask_out&#45;&gt;voxel_task</title>
<path fill="none" stroke="#000000" d="M131.3166,-935.8491C131.8634,-928.3113 132.5286,-919.1417 133.2085,-909.7684"/>
<polygon fill="#000000" stroke="#000000" points="136.7144,-909.8121 133.9472,-899.585 129.7328,-909.3056 136.7144,-909.8121"/>
</g>
<!-- voxel_out -->
<g id="node12" class="node">
<title>voxel_out</title>
<polygon fill="none" stroke="#000000" points="245,-779 242,-783 221,-783 218,-779 29,-779 29,-743 245,-743 245,-779"/>
<text text-anchor="middle" x="137" y="-757.3" font-family="Times,serif" font-size="14.00" fill="#000000">Binary Voxel (NPZ)</text>
</g>
<!-- voxel_task&#45;&gt;voxel_out -->
<g id="edge16" class="edge">
<title>voxel_task&#45;&gt;voxel_out</title>
<path fill="none" stroke="#000000" d="M137,-815.4544C137,-806.6962 137,-797.6607 137,-789.5281"/>
<polygon fill="#000000" stroke="#000000" points="140.5001,-789.4563 137,-779.4564 133.5001,-789.4564 140.5001,-789.4563"/>
</g>
<!-- pointcloud_task -->
<g id="node13" class="node">
<title>pointcloud_task</title>
<path fill="none" stroke="#000000" d="M41,-622.5C41,-622.5 233,-622.5 233,-622.5 239,-622.5 245,-628.5 245,-634.5 245,-634.5 245,-694.5 245,-694.5 245,-700.5 239,-706.5 233,-706.5 233,-706.5 41,-706.5 41,-706.5 35,-706.5 29,-700.5 29,-694.5 29,-694.5 29,-634.5 29,-634.5 29,-628.5 35,-622.5 41,-622.5"/>
<text text-anchor="middle" x="137" y="-691.3" font-family="Times,serif" font-size="14.00" fill="#000000">PointCloud</text>
<polyline fill="none" stroke="#000000" points="29,-683.5 245,-683.5 "/>
<text text-anchor="middle" x="137" y="-668.3" font-family="Times,serif" font-size="14.00" fill="#000000">romiscan.tasks.proc3d</text>
<polyline fill="none" stroke="#000000" points="29,-660.5 245,-660.5 "/>
<text text-anchor="middle" x="137" y="-645.3" font-family="Times,serif" font-size="14.00" fill="#000000">Computes a point cloud from</text>
<text text-anchor="middle" x="137" y="-630.3" font-family="Times,serif" font-size="14.00" fill="#000000"> volumetric voxel data.</text>
</g>
<!-- voxel_out&#45;&gt;pointcloud_task -->
<g id="edge11" class="edge">
<title>voxel_out&#45;&gt;pointcloud_task</title>
<path fill="none" stroke="#000000" d="M137,-742.8491C137,-735.3113 137,-726.1417 137,-716.7684"/>
<polygon fill="#000000" stroke="#000000" points="140.5001,-716.585 137,-706.585 133.5001,-716.5851 140.5001,-716.585"/>
</g>
<!-- pointcloud_out -->
<g id="node14" class="node">
<title>pointcloud_out</title>
<polygon fill="none" stroke="#000000" points="245,-586 242,-590 221,-590 218,-586 29,-586 29,-550 245,-550 245,-586"/>
<text text-anchor="middle" x="137" y="-564.3" font-family="Times,serif" font-size="14.00" fill="#000000">Plant pointcloud (PLY)</text>
</g>
<!-- pointcloud_task&#45;&gt;pointcloud_out -->
<g id="edge17" class="edge">
<title>pointcloud_task&#45;&gt;pointcloud_out</title>
<path fill="none" stroke="#000000" d="M137,-622.4544C137,-613.6962 137,-604.6607 137,-596.5281"/>
<polygon fill="#000000" stroke="#000000" points="140.5001,-596.4563 137,-586.4564 133.5001,-596.4564 140.5001,-596.4563"/>
</g>
<!-- triangle_mesh_task -->
<g id="node15" class="node">
<title>triangle_mesh_task</title>
<path fill="none" stroke="#000000" d="M41,-444.5C41,-444.5 233,-444.5 233,-444.5 239,-444.5 245,-450.5 245,-456.5 245,-456.5 245,-501.5 245,-501.5 245,-507.5 239,-513.5 233,-513.5 233,-513.5 41,-513.5 41,-513.5 35,-513.5 29,-507.5 29,-501.5 29,-501.5 29,-456.5 29,-456.5 29,-450.5 35,-444.5 41,-444.5"/>
<text text-anchor="middle" x="137" y="-498.3" font-family="Times,serif" font-size="14.00" fill="#000000">TriangleMesh</text>
<polyline fill="none" stroke="#000000" points="29,-490.5 245,-490.5 "/>
<text text-anchor="middle" x="137" y="-475.3" font-family="Times,serif" font-size="14.00" fill="#000000">romiscan.tasks.proc3d</text>
<polyline fill="none" stroke="#000000" points="29,-467.5 245,-467.5 "/>
<text text-anchor="middle" x="137" y="-452.3" font-family="Times,serif" font-size="14.00" fill="#000000">Triangulates input point cloud.</text>
</g>
<!-- pointcloud_out&#45;&gt;triangle_mesh_task -->
<g id="edge12" class="edge">
<title>pointcloud_out&#45;&gt;triangle_mesh_task</title>
<path fill="none" stroke="#000000" d="M137,-549.9895C137,-542.3055 137,-532.9646 137,-523.6169"/>
<polygon fill="#000000" stroke="#000000" points="140.5001,-523.549 137,-513.5491 133.5001,-523.5491 140.5001,-523.549"/>
</g>
<!-- triangle_mesh_out -->
<g id="node16" class="node">
<title>triangle_mesh_out</title>
<polygon fill="none" stroke="#000000" points="245,-408 242,-412 221,-412 218,-408 29,-408 29,-372 245,-372 245,-408"/>
<text text-anchor="middle" x="137" y="-386.3" font-family="Times,serif" font-size="14.00" fill="#000000">Mesh (PLY)</text>
</g>
<!-- triangle_mesh_task&#45;&gt;triangle_mesh_out -->
<g id="edge18" class="edge">
<title>triangle_mesh_task&#45;&gt;triangle_mesh_out</title>
<path fill="none" stroke="#000000" d="M137,-444.3354C137,-435.7833 137,-426.7211 137,-418.4995"/>
<polygon fill="#000000" stroke="#000000" points="140.5001,-418.2891 137,-408.2892 133.5001,-418.2892 140.5001,-418.2891"/>
</g>
<!-- skeleton_task -->
<g id="node17" class="node">
<title>skeleton_task</title>
<path fill="none" stroke="#000000" d="M41,-266.5C41,-266.5 233,-266.5 233,-266.5 239,-266.5 245,-272.5 245,-278.5 245,-278.5 245,-323.5 245,-323.5 245,-329.5 239,-335.5 233,-335.5 233,-335.5 41,-335.5 41,-335.5 35,-335.5 29,-329.5 29,-323.5 29,-323.5 29,-278.5 29,-278.5 29,-272.5 35,-266.5 41,-266.5"/>
<text text-anchor="middle" x="137" y="-320.3" font-family="Times,serif" font-size="14.00" fill="#000000">Skeletonization</text>
<polyline fill="none" stroke="#000000" points="29,-312.5 245,-312.5 "/>
<text text-anchor="middle" x="137" y="-297.3" font-family="Times,serif" font-size="14.00" fill="#000000">romiscan.tasks.proc3d</text>
<polyline fill="none" stroke="#000000" points="29,-289.5 245,-289.5 "/>
<text text-anchor="middle" x="137" y="-274.3" font-family="Times,serif" font-size="14.00" fill="#000000">Mesh skeletonization.</text>
</g>
<!-- triangle_mesh_out&#45;&gt;skeleton_task -->
<g id="edge13" class="edge">
<title>triangle_mesh_out&#45;&gt;skeleton_task</title>
<path fill="none" stroke="#000000" d="M137,-371.9895C137,-364.3055 137,-354.9646 137,-345.6169"/>
<polygon fill="#000000" stroke="#000000" points="140.5001,-345.549 137,-335.5491 133.5001,-345.5491 140.5001,-345.549"/>
</g>
<!-- skeleton_out -->
<g id="node18" class="node">
<title>skeleton_out</title>
<polygon fill="none" stroke="#000000" points="245,-230 242,-234 221,-234 218,-230 29,-230 29,-194 245,-194 245,-230"/>
<text text-anchor="middle" x="137" y="-208.3" font-family="Times,serif" font-size="14.00" fill="#000000"> ? (JSON)</text>
</g>
<!-- skeleton_task&#45;&gt;skeleton_out -->
<g id="edge19" class="edge">
<title>skeleton_task&#45;&gt;skeleton_out</title>
<path fill="none" stroke="#000000" d="M137,-266.3354C137,-257.7833 137,-248.7211 137,-240.4995"/>
<polygon fill="#000000" stroke="#000000" points="140.5001,-240.2891 137,-230.2892 133.5001,-240.2892 140.5001,-240.2891"/>
</g>
<!-- tree_graph_task -->
<g id="node19" class="node">
<title>tree_graph_task</title>
<path fill="none" stroke="#000000" d="M37,-88.5C37,-88.5 237,-88.5 237,-88.5 243,-88.5 249,-94.5 249,-100.5 249,-100.5 249,-145.5 249,-145.5 249,-151.5 243,-157.5 237,-157.5 237,-157.5 37,-157.5 37,-157.5 31,-157.5 25,-151.5 25,-145.5 25,-145.5 25,-100.5 25,-100.5 25,-94.5 31,-88.5 37,-88.5"/>
<text text-anchor="middle" x="137" y="-142.3" font-family="Times,serif" font-size="14.00" fill="#000000">TreeGraph</text>
<polyline fill="none" stroke="#000000" points="25,-134.5 249,-134.5 "/>
<text text-anchor="middle" x="137" y="-119.3" font-family="Times,serif" font-size="14.00" fill="#000000">romiscan.tasks.arabidopsis</text>
<polyline fill="none" stroke="#000000" points="25,-111.5 249,-111.5 "/>
<text text-anchor="middle" x="137" y="-96.3" font-family="Times,serif" font-size="14.00" fill="#000000">Plant skeleton to TreeGraph structure.</text>
</g>
<!-- skeleton_out&#45;&gt;tree_graph_task -->
<g id="edge14" class="edge">
<title>skeleton_out&#45;&gt;tree_graph_task</title>
<path fill="none" stroke="#000000" d="M137,-193.9895C137,-186.3055 137,-176.9646 137,-167.6169"/>
<polygon fill="#000000" stroke="#000000" points="140.5001,-167.549 137,-157.5491 133.5001,-167.5491 140.5001,-167.549"/>
</g>
<!-- tree_graph_out -->
<g id="node20" class="node">
<title>tree_graph_out</title>
<polygon fill="none" stroke="#000000" points="245,-52 242,-56 221,-56 218,-52 29,-52 29,-16 245,-16 245,-52"/>
<text text-anchor="middle" x="137" y="-30.3" font-family="Times,serif" font-size="14.00" fill="#000000"> TreeGraph (JSON)</text>
</g>
<!-- tree_graph_task&#45;&gt;tree_graph_out -->
<g id="edge20" class="edge">
<title>tree_graph_task&#45;&gt;tree_graph_out</title>
<path fill="none" stroke="#000000" d="M137,-88.3354C137,-79.7833 137,-70.7211 137,-62.4995"/>
<polygon fill="#000000" stroke="#000000" points="140.5001,-62.2891 137,-52.2892 133.5001,-62.2892 140.5001,-62.2891"/>
</g>
<!-- segmentation_out -->
<g id="node22" class="node">
<title>segmentation_out</title>
<polygon fill="none" stroke="#000000" points="515,-972 512,-976 491,-976 488,-972 299,-972 299,-936 515,-936 515,-972"/>
<text text-anchor="middle" x="407" y="-950.3" font-family="Times,serif" font-size="14.00" fill="#000000">Masks (PNG)</text>
</g>
<!-- segmentation_task&#45;&gt;segmentation_out -->
<g id="edge27" class="edge">
<title>segmentation_task&#45;&gt;segmentation_out</title>
<path fill="none" stroke="#000000" d="M405.3071,-1008.4544C405.5794,-999.6962 405.8603,-990.6607 406.1131,-982.5281"/>
<polygon fill="#000000" stroke="#000000" points="409.6137,-982.5603 406.4262,-972.4564 402.6171,-982.3427 409.6137,-982.5603"/>
</g>
<!-- mvoxel_task -->
<g id="node23" class="node">
<title>mvoxel_task</title>
<path fill="none" stroke="#000000" d="M304,-815.5C304,-815.5 522,-815.5 522,-815.5 528,-815.5 534,-821.5 534,-827.5 534,-827.5 534,-887.5 534,-887.5 534,-893.5 528,-899.5 522,-899.5 522,-899.5 304,-899.5 304,-899.5 298,-899.5 292,-893.5 292,-887.5 292,-887.5 292,-827.5 292,-827.5 292,-821.5 298,-815.5 304,-815.5"/>
<text text-anchor="middle" x="413" y="-884.3" font-family="Times,serif" font-size="14.00" fill="#000000">Voxels</text>
<polyline fill="none" stroke="#000000" points="292,-876.5 534,-876.5 "/>
<text text-anchor="middle" x="413" y="-861.3" font-family="Times,serif" font-size="14.00" fill="#000000">romiscan.tasks.cl</text>
<polyline fill="none" stroke="#000000" points="292,-853.5 534,-853.5 "/>
<text text-anchor="middle" x="413" y="-838.3" font-family="Times,serif" font-size="14.00" fill="#000000">Computes a volume from backprojection</text>
<text text-anchor="middle" x="413" y="-823.3" font-family="Times,serif" font-size="14.00" fill="#000000"> of 2D segmented images.</text>
</g>
<!-- segmentation_out&#45;&gt;mvoxel_task -->
<g id="edge24" class="edge">
<title>segmentation_out&#45;&gt;mvoxel_task</title>
<path fill="none" stroke="#000000" d="M408.1286,-935.8491C408.5972,-928.3113 409.1674,-919.1417 409.7502,-909.7684"/>
<polygon fill="#000000" stroke="#000000" points="413.2559,-909.783 410.3833,-899.585 406.2694,-909.3485 413.2559,-909.783"/>
</g>
<!-- mvoxel_out -->
<g id="node24" class="node">
<title>mvoxel_out</title>
<polygon fill="none" stroke="#000000" points="521,-779 518,-783 497,-783 494,-779 305,-779 305,-743 521,-743 521,-779"/>
<text text-anchor="middle" x="413" y="-757.3" font-family="Times,serif" font-size="14.00" fill="#000000">Binary Voxel (NPZ)</text>
</g>
<!-- mvoxel_task&#45;&gt;mvoxel_out -->
<g id="edge28" class="edge">
<title>mvoxel_task&#45;&gt;mvoxel_out</title>
<path fill="none" stroke="#000000" d="M413,-815.4544C413,-806.6962 413,-797.6607 413,-789.5281"/>
<polygon fill="#000000" stroke="#000000" points="416.5001,-789.4563 413,-779.4564 409.5001,-789.4564 416.5001,-789.4563"/>
</g>
<!-- lpointcloud_task -->
<g id="node25" class="node">
<title>lpointcloud_task</title>
<path fill="none" stroke="#000000" d="M317,-622.5C317,-622.5 509,-622.5 509,-622.5 515,-622.5 521,-628.5 521,-634.5 521,-634.5 521,-694.5 521,-694.5 521,-700.5 515,-706.5 509,-706.5 509,-706.5 317,-706.5 317,-706.5 311,-706.5 305,-700.5 305,-694.5 305,-694.5 305,-634.5 305,-634.5 305,-628.5 311,-622.5 317,-622.5"/>
<text text-anchor="middle" x="413" y="-691.3" font-family="Times,serif" font-size="14.00" fill="#000000">PointCloud</text>
<polyline fill="none" stroke="#000000" points="305,-683.5 521,-683.5 "/>
<text text-anchor="middle" x="413" y="-668.3" font-family="Times,serif" font-size="14.00" fill="#000000">romiscan.tasks.proc3d</text>
<polyline fill="none" stroke="#000000" points="305,-660.5 521,-660.5 "/>
<text text-anchor="middle" x="413" y="-645.3" font-family="Times,serif" font-size="14.00" fill="#000000">Computes a point cloud from</text>
<text text-anchor="middle" x="413" y="-630.3" font-family="Times,serif" font-size="14.00" fill="#000000"> volumetric voxel data.</text>
</g>
<!-- mvoxel_out&#45;&gt;lpointcloud_task -->
<g id="edge25" class="edge">
<title>mvoxel_out&#45;&gt;lpointcloud_task</title>
<path fill="none" stroke="#000000" d="M413,-742.8491C413,-735.3113 413,-726.1417 413,-716.7684"/>
<polygon fill="#000000" stroke="#000000" points="416.5001,-716.585 413,-706.585 409.5001,-716.5851 416.5001,-716.585"/>
</g>
<!-- lpointcloud_out -->
<g id="node26" class="node">
<title>lpointcloud_out</title>
<polygon fill="none" stroke="#000000" points="521,-586 518,-590 497,-590 494,-586 305,-586 305,-550 521,-550 521,-586"/>
<text text-anchor="middle" x="413" y="-564.3" font-family="Times,serif" font-size="14.00" fill="#000000">Plant pointcloud (PLY)</text>
</g>
<!-- lpointcloud_task&#45;&gt;lpointcloud_out -->
<g id="edge29" class="edge">
<title>lpointcloud_task&#45;&gt;lpointcloud_out</title>
<path fill="none" stroke="#000000" d="M413,-622.4544C413,-613.6962 413,-604.6607 413,-596.5281"/>
<polygon fill="#000000" stroke="#000000" points="416.5001,-596.4563 413,-586.4564 409.5001,-596.4564 416.5001,-596.4563"/>
</g>
<!-- clutered_mesh_task -->
<g id="node27" class="node">
<title>clutered_mesh_task</title>
<path fill="none" stroke="#000000" d="M317,-444.5C317,-444.5 509,-444.5 509,-444.5 515,-444.5 521,-450.5 521,-456.5 521,-456.5 521,-501.5 521,-501.5 521,-507.5 515,-513.5 509,-513.5 509,-513.5 317,-513.5 317,-513.5 311,-513.5 305,-507.5 305,-501.5 305,-501.5 305,-456.5 305,-456.5 305,-450.5 311,-444.5 317,-444.5"/>
<text text-anchor="middle" x="413" y="-498.3" font-family="Times,serif" font-size="14.00" fill="#000000">ClusteredMesh</text>
<polyline fill="none" stroke="#000000" points="305,-490.5 521,-490.5 "/>
<text text-anchor="middle" x="413" y="-475.3" font-family="Times,serif" font-size="14.00" fill="#000000">romiscan.tasks.proc3d</text>
<polyline fill="none" stroke="#000000" points="305,-467.5 521,-467.5 "/>
<text text-anchor="middle" x="413" y="-452.3" font-family="Times,serif" font-size="14.00" fill="#000000">Triangulates input point cloud.</text>
</g>
<!-- lpointcloud_out&#45;&gt;clutered_mesh_task -->
<g id="edge26" class="edge">
<title>lpointcloud_out&#45;&gt;clutered_mesh_task</title>
<path fill="none" stroke="#000000" d="M413,-549.9895C413,-542.3055 413,-532.9646 413,-523.6169"/>
<polygon fill="#000000" stroke="#000000" points="416.5001,-523.549 413,-513.5491 409.5001,-523.5491 416.5001,-523.549"/>
</g>
<!-- clutered_mesh_out -->
<g id="node28" class="node">
<title>clutered_mesh_out</title>
<polygon fill="none" stroke="#000000" points="521,-408 518,-412 497,-412 494,-408 305,-408 305,-372 521,-372 521,-408"/>
<text text-anchor="middle" x="413" y="-386.3" font-family="Times,serif" font-size="14.00" fill="#000000">Mesh (PLY)</text>
</g>
<!-- clutered_mesh_task&#45;&gt;clutered_mesh_out -->
<g id="edge30" class="edge">
<title>clutered_mesh_task&#45;&gt;clutered_mesh_out</title>
<path fill="none" stroke="#000000" d="M413,-444.3354C413,-435.7833 413,-426.7211 413,-418.4995"/>
<polygon fill="#000000" stroke="#000000" points="416.5001,-418.2891 413,-408.2892 409.5001,-418.2892 416.5001,-418.2891"/>
</g>
</g>
</svg>
