<?xml version="1.0" encoding="UTF-8" standalone="no"?>
<!DOCTYPE svg PUBLIC "-//W3C//DTD SVG 1.1//EN"
 "http://www.w3.org/Graphics/SVG/1.1/DTD/svg11.dtd">
<!-- Generated by graphviz version 2.40.1 (20161225.0304)
 -->
<!-- Title: G Pages: 1 -->
<svg width="692pt" height="241pt"
 viewBox="0.00 0.00 692.00 241.00" xmlns="http://www.w3.org/2000/svg" xmlns:xlink="http://www.w3.org/1999/xlink">
<g id="graph0" class="graph" transform="scale(1 1) rotate(0) translate(4 237)">
<title>G</title>
<polygon fill="#ffffff" stroke="transparent" points="-4,4 -4,-237 688,-237 688,4 -4,4"/>
<g id="clust2" class="cluster">
<title>cluster_level1</title>
<polygon fill="none" stroke="#000000" points="218,-8 218,-189 466,-189 466,-8 218,-8"/>
<text text-anchor="middle" x="342" y="-173.8" font-family="Times,serif" font-size="14.00" fill="#000000">Plant Phenotyping</text>
</g>
<!-- config_input -->
<g id="node1" class="node">
<title>config_input</title>
<polygon fill="none" stroke="#000000" points="210,-233 0,-233 0,-197 216,-197 216,-227 210,-233"/>
<polyline fill="none" stroke="#000000" points="210,-233 210,-227 "/>
<polyline fill="none" stroke="#000000" points="216,-227 210,-227 "/>
<text text-anchor="middle" x="108" y="-211.3" font-family="Times,serif" font-size="14.00" fill="#000000">Parameters (TOML)</text>
</g>
<!-- angles_and_internodes_task -->
<g id="node4" class="node">
<title>angles_and_internodes_task</title>
<path fill="none" stroke="#000000" d="M238,-88.5C238,-88.5 446,-88.5 446,-88.5 452,-88.5 458,-94.5 458,-100.5 458,-100.5 458,-145.5 458,-145.5 458,-151.5 452,-157.5 446,-157.5 446,-157.5 238,-157.5 238,-157.5 232,-157.5 226,-151.5 226,-145.5 226,-145.5 226,-100.5 226,-100.5 226,-94.5 232,-88.5 238,-88.5"/>
<text text-anchor="middle" x="342" y="-142.3" font-family="Times,serif" font-size="14.00" fill="#000000">AnglesAndInternodes</text>
<polyline fill="none" stroke="#000000" points="226,-134.5 458,-134.5 "/>
<text text-anchor="middle" x="342" y="-119.3" font-family="Times,serif" font-size="14.00" fill="#000000">romiscan.tasks.arabidopsis</text>
<polyline fill="none" stroke="#000000" points="226,-111.5 458,-111.5 "/>
<text text-anchor="middle" x="342" y="-96.3" font-family="Times,serif" font-size="14.00" fill="#000000">Compute organs angles and internodes.</text>
</g>
<!-- config_input&#45;&gt;angles_and_internodes_task -->
<g id="edge1" class="edge">
<title>config_input&#45;&gt;angles_and_internodes_task</title>
<path fill="none" stroke="#000000" d="M153.9517,-196.9335C179.7647,-186.7848 213.0033,-173.7167 244.3385,-161.3968"/>
<polygon fill="#000000" stroke="#000000" points="245.9659,-164.5179 253.9918,-157.6015 243.4045,-158.0033 245.9659,-164.5179"/>
</g>
<!-- algo_input -->
<g id="node2" class="node">
<title>algo_input</title>
<polygon fill="none" stroke="#000000" points="450,-233 447,-237 426,-237 423,-233 234,-233 234,-197 450,-197 450,-233"/>
<text text-anchor="middle" x="342" y="-211.3" font-family="Times,serif" font-size="14.00" fill="#000000">TreeGraph (JSON)</text>
</g>
<!-- algo_input&#45;&gt;angles_and_internodes_task -->
<g id="edge2" class="edge">
<title>algo_input&#45;&gt;angles_and_internodes_task</title>
<path fill="none" stroke="#000000" d="M342,-196.8238C342,-188.4189 342,-178.0291 342,-167.7246"/>
<polygon fill="#000000" stroke="#000000" points="345.5001,-167.5253 342,-157.5253 338.5001,-167.5253 345.5001,-167.5253"/>
</g>
<!-- ml_input -->
<g id="node3" class="node">
<title>ml_input</title>
<polygon fill="none" stroke="#000000" points="684,-233 681,-237 660,-237 657,-233 468,-233 468,-197 684,-197 684,-233"/>
<text text-anchor="middle" x="576" y="-211.3" font-family="Times,serif" font-size="14.00" fill="#000000">ClusteredMesh (PLY)</text>
</g>
<!-- ml_input&#45;&gt;angles_and_internodes_task -->
<g id="edge3" class="edge">
<title>ml_input&#45;&gt;angles_and_internodes_task</title>
<path fill="none" stroke="#000000" d="M530.0483,-196.9335C504.2353,-186.7848 470.9967,-173.7167 439.6615,-161.3968"/>
<polygon fill="#000000" stroke="#000000" points="440.5955,-158.0033 430.0082,-157.6015 438.0341,-164.5179 440.5955,-158.0033"/>
</g>
<!-- angles_and_internodes_out -->
<g id="node5" class="node">
<title>angles_and_internodes_out</title>
<polygon fill="none" stroke="#000000" points="450,-52 447,-56 426,-56 423,-52 234,-52 234,-16 450,-16 450,-52"/>
<text text-anchor="middle" x="342" y="-30.3" font-family="Times,serif" font-size="14.00" fill="#000000">Measures (JSON)</text>
</g>
<!-- angles_and_internodes_task&#45;&gt;angles_and_internodes_out -->
<g id="edge4" class="edge">
<title>angles_and_internodes_task&#45;&gt;angles_and_internodes_out</title>
<path fill="none" stroke="#000000" d="M342,-88.3354C342,-79.7833 342,-70.7211 342,-62.4995"/>
<polygon fill="#000000" stroke="#000000" points="345.5001,-62.2891 342,-52.2892 338.5001,-62.2892 345.5001,-62.2891"/>
</g>
</g>
</svg>
